{"glyphs":{"0":{"ha":926,"x_min":84,"x_max":845,"o":"m 84 454 q 189 801 84 677 q 468 922 291 922 q 742 801 642 922 q 845 454 845 676 q 742 109 845 233 q 468 -11 642 -11 q 189 109 291 -11 q 84 454 84 232 m 467 92 q 582 121 536 92 q 654 198 627 149 q 703 454 703 288 q 582 791 703 714 q 468 819 536 819 q 279 712 340 819 q 227 455 227 618 q 467 92 227 92 z "},"1":{"ha":578,"x_min":87,"x_max":465,"o":"m 330 736 l 87 570 l 87 707 l 390 922 l 465 922 l 465 0 l 330 0 l 330 736 z "},"2":{"ha":810,"x_min":92,"x_max":713,"o":"m 115 903 q 323 922 234 922 q 474 909 412 922 q 579 875 536 897 q 649 827 623 854 q 690 770 675 800 q 713 671 713 723 q 698 577 713 620 q 654 492 683 535 q 585 401 626 448 l 492 300 l 316 119 l 713 119 l 713 0 l 92 0 l 92 62 l 379 353 l 471 450 q 567 593 547 534 q 578 652 578 624 q 570 705 578 680 q 535 751 562 730 q 340 802 473 802 q 115 773 206 802 l 115 903 z "},"3":{"ha":810,"x_min":96,"x_max":736,"o":"m 645 76 q 621 57 645 76 q 521 16 597 38 q 307 -6 445 -6 q 96 12 169 -6 l 96 140 q 323 114 176 114 q 533 156 471 114 q 595 275 595 199 q 528 387 595 351 q 282 425 455 425 l 214 425 l 214 479 l 485 803 l 115 803 l 115 922 l 705 922 l 705 868 l 420 541 l 420 539 q 731 335 695 522 q 736 261 736 305 q 714 165 736 216 q 645 76 692 115 z "},"4":{"ha":810,"x_min":39,"x_max":770,"o":"m 39 277 l 415 922 l 575 922 l 231 345 l 555 345 l 555 534 l 692 534 l 692 345 l 770 345 l 770 226 l 692 226 l 692 0 l 555 0 l 555 226 l 39 226 l 39 277 z "},"5":{"ha":810,"x_min":96,"x_max":726,"o":"m 96 143 q 319 117 188 117 q 518 160 451 117 q 586 295 586 202 q 529 418 586 380 q 310 464 463 464 l 121 464 l 121 920 l 677 920 l 677 792 l 251 792 l 251 578 l 330 578 q 629 511 536 578 q 726 292 726 443 q 629 81 726 160 q 319 -6 524 -6 q 96 12 169 -6 l 96 143 z "},"6":{"ha":926,"x_min":103,"x_max":825,"o":"m 742 783 q 584 804 677 804 q 427 780 491 804 q 321 715 363 757 q 239 491 239 633 q 426 570 317 549 q 519 576 464 576 q 634 558 575 576 q 736 503 694 539 q 825 288 825 427 q 712 62 825 143 q 471 -11 611 -11 q 195 107 291 -11 q 103 420 103 220 l 103 462 q 235 798 103 671 q 578 922 365 922 l 620 922 q 742 915 701 922 l 742 783 m 240 389 q 368 117 240 185 q 467 92 413 92 q 561 105 522 92 q 631 141 601 117 q 694 281 694 193 q 634 420 694 368 q 473 472 574 472 q 277 416 368 472 q 240 389 253 401 z "},"7":{"ha":810,"x_min":71,"x_max":764,"o":"m 585 802 l 71 802 l 71 922 l 764 922 l 764 867 l 319 0 l 163 0 l 585 802 z "},"8":{"ha":926,"x_min":108,"x_max":817,"o":"m 202 62 q 132 145 156 96 q 108 237 108 194 q 117 310 108 279 q 145 370 126 340 q 269 475 189 439 l 269 477 q 145 618 178 524 q 134 678 134 650 q 142 735 134 707 q 165 791 149 764 q 207 843 181 818 q 269 887 233 868 q 462 928 348 928 q 761 791 682 928 q 791 694 791 739 q 780 619 791 650 q 751 562 769 588 q 656 477 713 507 l 656 475 q 780 370 736 439 q 817 252 817 311 q 793 145 817 194 q 723 62 769 96 q 463 -11 627 -11 q 202 62 298 -11 m 463 522 q 540 535 505 522 q 601 568 576 547 q 654 682 654 614 q 552 811 654 777 q 463 823 515 823 q 315 779 366 823 q 272 682 272 741 q 325 568 272 614 q 463 522 379 522 m 245 249 q 263 182 245 212 q 313 132 282 151 q 462 91 374 91 q 662 182 606 91 q 680 249 680 212 q 668 315 680 286 q 629 368 656 345 q 463 418 572 418 q 296 368 353 418 q 245 249 245 323 z "},"9":{"ha":926,"x_min":93,"x_max":815,"o":"m 176 128 q 334 107 241 107 q 491 131 427 107 q 597 196 555 154 q 680 420 680 278 q 492 341 601 362 q 399 334 454 334 q 284 353 343 334 q 182 408 225 372 q 93 623 93 484 q 206 849 93 768 q 448 922 307 922 q 723 804 627 922 q 815 490 815 691 l 815 449 q 684 113 815 240 q 340 -11 553 -11 l 298 -11 q 176 -4 217 -11 l 176 128 m 678 522 q 550 794 678 726 q 451 819 505 819 q 357 806 397 819 q 288 770 317 793 q 225 630 225 718 q 284 491 225 543 q 446 439 344 439 q 642 494 551 439 q 678 522 665 509 z "},"\u0001":{"ha":0,"x_min":0,"x_max":0,"o":""},"\u0002":{"ha":0,"x_min":0,"x_max":0,"o":""},"\u0003":{"ha":0,"x_min":0,"x_max":0,"o":""},"\u0004":{"ha":0,"x_min":0,"x_max":0,"o":""},"\u0005":{"ha":0,"x_min":0,"x_max":0,"o":""},"\u0006":{"ha":0,"x_min":0,"x_max":0,"o":""},"\u0007":{"ha":0,"x_min":0,"x_max":0,"o":""},"\b":{"ha":0,"x_min":0,"x_max":0,"o":""},"\t":{"ha":0,"x_min":0,"x_max":0,"o":""},"\u0010":{"ha":0,"x_min":0,"x_max":0,"o":""},"\u0011":{"ha":0,"x_min":0,"x_max":0,"o":""},"\u0012":{"ha":0,"x_min":0,"x_max":0,"o":""},"\u0013":{"ha":0,"x_min":0,"x_max":0,"o":""},"\u0014":{"ha":0,"x_min":0,"x_max":0,"o":""},"\u0015":{"ha":0,"x_min":0,"x_max":0,"o":""},"\u0016":{"ha":0,"x_min":0,"x_max":0,"o":""},"\u0017":{"ha":0,"x_min":0,"x_max":0,"o":""},"\u0018":{"ha":0,"x_min":0,"x_max":0,"o":""},"\u0019":{"ha":0,"x_min":0,"x_max":0,"o":""}," ":{"ha":463,"x_min":0,"x_max":0,"o":""},"!":{"ha":347,"x_min":79,"x_max":269,"o":"m 106 983 l 241 983 l 231 281 l 117 281 l 106 983 m 174 -17 q 153 -17 174 -17 q 106 5 133 -17 q 79 69 79 27 q 106 133 79 111 q 174 155 133 155 q 242 133 215 155 q 269 69 269 111 q 242 5 269 27 q 174 -17 215 -17 z "},"\"":{"ha":578,"x_min":94,"x_max":484,"o":"m 94 1038 l 233 1038 l 216 670 l 111 670 l 94 1038 m 344 1038 l 484 1038 l 466 670 l 361 670 l 344 1038 z "},"#":{"ha":1040,"x_min":83,"x_max":940,"o":"m 241 231 l 83 231 l 83 331 l 260 331 l 309 591 l 142 591 l 142 692 l 328 692 l 372 922 l 481 922 l 438 692 l 673 692 l 716 922 l 826 922 l 782 692 l 940 692 l 940 591 l 763 591 l 714 331 l 882 331 l 882 231 l 695 231 l 652 0 l 542 0 l 585 231 l 351 231 l 308 0 l 198 0 l 241 231 m 604 331 l 654 591 l 419 591 l 370 331 l 604 331 z "},"$":{"ha":810,"x_min":115,"x_max":711,"o":"m 352 0 q 115 11 199 0 l 115 142 q 361 119 201 119 q 576 218 576 119 q 534 287 576 258 q 411 345 502 309 l 328 378 q 177 466 225 418 q 116 622 116 527 q 245 798 116 741 q 352 825 290 817 l 352 1038 l 455 1038 l 455 830 q 673 818 544 829 l 673 686 q 467 711 553 711 q 345 703 380 711 q 288 681 309 694 q 251 618 251 656 q 281 553 251 581 q 380 498 312 526 l 473 460 q 633 376 592 412 q 693 301 675 339 q 711 218 711 262 q 696 140 711 174 q 650 79 682 106 q 455 5 583 21 l 455 -231 l 352 -231 l 352 0 z "},"%":{"ha":1157,"x_min":79,"x_max":1077,"o":"m 292 461 q 205 476 245 461 q 138 521 166 492 q 79 691 79 583 q 138 860 79 797 q 292 922 196 922 q 444 860 387 922 q 503 691 503 798 q 444 521 503 583 q 292 461 388 461 m 187 690 q 187 656 187 690 q 215 585 187 623 q 292 548 243 548 q 367 585 340 548 q 394 690 394 623 q 367 796 394 758 q 292 835 340 835 q 215 796 243 835 q 187 690 187 758 m 653 230 q 669 327 653 284 q 712 399 684 370 q 867 461 770 461 q 1019 399 961 461 q 1077 231 1077 337 q 1019 61 1077 123 q 867 1 962 1 q 712 61 770 1 q 653 230 653 123 m 866 374 q 842 374 866 374 q 789 336 817 374 q 762 230 762 297 q 789 125 762 162 q 866 87 817 87 q 942 125 915 87 q 968 230 968 162 q 942 336 968 297 q 866 374 915 374 m 782 922 l 895 922 l 361 0 l 248 0 l 782 922 z "},"&":{"ha":925,"x_min":101,"x_max":876,"o":"m 267 693 q 461 561 267 561 l 876 561 l 876 446 l 792 446 l 792 0 l 675 0 l 670 86 q 479 -3 597 20 q 390 -11 441 -11 q 282 6 338 -11 q 186 57 227 22 q 101 264 101 129 q 191 442 101 364 q 281 495 227 473 l 281 497 q 170 577 210 526 q 130 683 130 629 q 148 782 130 737 q 208 863 165 827 q 506 944 305 944 q 693 937 621 944 l 693 814 q 528 830 610 830 q 400 820 446 830 q 326 792 355 810 q 267 693 267 757 m 429 98 q 662 184 574 98 l 662 446 l 460 446 q 293 388 354 446 q 238 262 238 336 q 349 108 238 140 q 429 98 385 98 z "},"'":{"ha":347,"x_min":104,"x_max":243,"o":"m 104 1038 l 243 1038 l 226 670 l 121 670 l 104 1038 z "},"(":{"ha":463,"x_min":74,"x_max":467,"o":"m 326 -115 q 87 298 128 46 q 74 461 74 377 q 207 914 74 733 q 326 1038 255 979 l 467 1038 q 219 637 276 889 q 200 461 200 553 q 219 284 200 368 q 273 127 238 201 q 467 -115 341 -18 l 326 -115 z "},")":{"ha":463,"x_min":-33,"x_max":360,"o":"m 109 -115 q 347 298 306 46 q 360 461 360 377 q 227 914 360 733 q 109 1038 179 979 l -33 1038 q 215 637 158 889 q 234 461 234 553 q 215 284 234 368 q 161 127 196 201 q -33 -115 93 -18 l 109 -115 z "},"*":{"ha":810,"x_min":95,"x_max":713,"o":"m 176 518 l 343 710 l 95 770 l 131 883 l 367 782 l 344 1038 l 464 1038 l 441 781 l 676 888 l 713 774 l 465 713 l 632 522 l 535 452 l 404 666 l 272 448 l 176 518 z "},"+":{"ha":810,"x_min":66,"x_max":746,"o":"m 352 352 l 66 352 l 66 455 l 352 455 l 352 741 l 455 741 l 455 455 l 746 455 l 746 352 l 455 352 l 455 61 l 352 61 l 352 352 z "},",":{"ha":347,"x_min":16,"x_max":253,"o":"m 122 126 l 253 126 l 253 0 q 202 -194 253 -132 q 16 -263 145 -263 l 16 -151 q 117 -66 102 -151 q 122 0 122 -38 l 122 126 z "},"-":{"ha":693,"x_min":115,"x_max":576,"o":"m 115 456 l 576 456 l 576 351 l 115 351 l 115 456 z "},".":{"ha":347,"x_min":79,"x_max":269,"o":"m 174 -17 q 153 -17 174 -17 q 106 5 133 -17 q 79 69 79 27 q 106 133 79 111 q 174 155 133 155 q 242 133 215 155 q 269 69 269 111 q 242 5 269 27 q 174 -17 215 -17 z "},"/":{"ha":579,"x_min":8,"x_max":568,"o":"m 448 922 l 568 922 l 129 -115 l 8 -115 l 448 922 z "},":":{"ha":347,"x_min":79,"x_max":269,"o":"m 174 -17 q 153 -17 174 -17 q 106 5 133 -17 q 79 69 79 27 q 106 133 79 111 q 174 155 133 155 q 242 133 215 155 q 269 69 269 111 q 242 5 269 27 q 174 -17 215 -17 m 174 541 q 153 541 174 541 q 106 563 133 541 q 79 627 79 585 q 106 691 79 669 q 174 713 133 713 q 242 691 215 713 q 269 627 269 669 q 242 563 269 585 q 174 541 215 541 z "},";":{"ha":348,"x_min":16,"x_max":269,"o":"m 174 541 q 153 541 174 541 q 106 563 133 541 q 79 627 79 585 q 106 691 79 669 q 174 713 133 713 q 242 691 215 713 q 269 627 269 669 q 242 563 269 585 q 174 541 215 541 m 122 126 l 253 126 l 253 0 q 202 -194 253 -132 q 16 -263 145 -263 l 16 -151 q 117 -66 102 -151 q 122 0 122 -38 l 122 126 z "},"<":{"ha":807,"x_min":48,"x_max":728,"o":"m 48 435 l 728 728 l 728 604 l 224 400 l 728 197 l 728 73 l 48 366 l 48 435 z "},"=":{"ha":810,"x_min":66,"x_max":746,"o":"m 66 576 l 746 576 l 746 471 l 66 471 l 66 576 m 66 335 l 746 335 l 746 231 l 66 231 l 66 335 z "},">":{"ha":807,"x_min":77,"x_max":758,"o":"m 758 435 l 77 728 l 77 604 l 582 400 l 77 197 l 77 73 l 758 366 l 758 435 z "},"?":{"ha":694,"x_min":115,"x_max":616,"o":"m 298 420 q 481 576 481 420 q 290 798 481 743 q 115 822 213 821 l 115 949 q 494 836 357 949 q 616 576 616 734 q 479 346 616 416 q 345 315 426 319 l 345 231 l 230 231 l 230 422 q 298 420 257 420 m 199 65 q 224 125 199 104 q 288 146 249 146 q 352 125 326 146 q 378 65 378 104 q 352 5 378 26 q 288 -16 326 -16 q 224 5 249 -16 q 199 65 199 26 z "},"@":{"ha":1386,"x_min":74,"x_max":1312,"o":"m 663 576 q 775 584 705 584 q 932 572 845 584 l 932 233 q 962 122 932 170 q 1057 67 997 67 q 1186 205 1154 67 q 1197 334 1197 253 q 1165 502 1197 414 q 1072 657 1134 590 q 701 804 935 804 q 442 733 562 804 q 207 423 263 627 q 189 268 189 357 q 227 84 189 178 q 335 -80 264 -9 q 732 -231 488 -231 q 918 -207 829 -231 q 954 -194 942 -200 l 947 -304 q 743 -339 852 -339 q 545 -316 633 -339 q 385 -253 458 -294 q 254 -154 311 -212 q 156 -27 196 -96 q 74 286 74 115 q 160 597 74 452 q 387 819 243 736 q 701 903 532 903 q 1032 821 889 903 q 1240 608 1166 744 q 1312 318 1312 477 q 1246 80 1312 181 q 1056 -33 1175 -33 q 966 -9 1007 -33 q 865 93 887 33 q 738 -11 822 22 q 656 -24 703 -24 q 563 -8 610 -24 q 477 41 515 7 q 393 260 393 118 q 507 509 393 421 q 663 576 573 559 m 807 471 q 736 477 783 477 q 650 465 689 477 q 582 426 610 452 q 523 260 523 370 q 575 114 523 163 q 656 77 615 77 q 721 88 698 77 q 761 114 744 98 q 807 174 789 140 l 807 471 z "},"A":{"ha":926,"x_min":18,"x_max":907,"o":"m 416 944 l 509 944 l 907 0 l 766 0 l 671 237 l 252 237 l 157 0 l 18 0 l 416 944 m 627 346 l 462 760 l 296 346 l 627 346 z "},"B":{"ha":810,"x_min":115,"x_max":740,"o":"m 115 944 l 353 944 q 655 809 587 944 q 680 708 680 758 q 670 628 680 658 q 642 574 659 599 q 553 496 608 528 l 553 493 q 703 391 655 464 q 740 267 740 335 q 713 150 740 199 q 639 67 686 100 q 380 0 542 0 l 115 0 l 115 944 m 379 532 q 526 618 488 532 q 539 687 539 649 q 530 752 539 724 q 499 799 520 779 q 364 841 454 841 l 251 841 l 251 532 l 379 532 m 599 264 q 401 429 599 429 l 251 429 l 251 103 l 380 103 q 581 193 529 103 q 599 264 599 224 z "},"C":{"ha":810,"x_min":62,"x_max":746,"o":"m 746 5 q 565 -7 679 -7 q 360 24 452 -7 q 203 117 269 56 q 62 481 62 248 q 135 746 62 634 q 437 939 233 897 q 586 951 499 951 q 724 941 672 951 l 724 812 q 577 827 677 827 q 409 802 478 827 q 294 732 340 778 q 203 481 203 644 q 293 222 203 318 q 572 119 390 119 q 746 136 678 119 l 746 5 z "},"D":{"ha":926,"x_min":104,"x_max":848,"o":"m 104 943 l 334 943 q 701 829 566 943 q 848 471 848 706 q 705 113 848 235 q 340 0 572 0 l 104 0 l 104 943 m 709 470 q 325 834 709 834 l 240 834 l 240 109 l 332 109 q 689 320 625 109 q 709 470 709 387 z "},"E":{"ha":810,"x_min":104,"x_max":714,"o":"m 104 944 l 714 944 l 714 826 l 240 826 l 240 548 l 599 548 l 599 434 l 240 434 l 240 119 l 714 119 l 714 0 l 104 0 l 104 944 z "},"F":{"ha":810,"x_min":104,"x_max":747,"o":"m 104 944 l 747 944 l 747 826 l 240 826 l 240 548 l 631 548 l 631 434 l 240 434 l 240 0 l 104 0 l 104 944 z "},"G":{"ha":926,"x_min":90,"x_max":812,"o":"m 812 9 q 607 -11 734 -11 q 388 21 479 -11 q 231 115 296 53 q 90 481 90 247 q 163 746 90 635 q 467 939 262 897 q 622 951 530 951 q 780 942 713 951 l 780 812 q 613 827 722 827 q 436 802 505 827 q 321 732 367 778 q 231 481 231 644 q 320 218 231 317 q 599 110 418 110 q 677 113 641 110 l 677 461 l 812 461 l 812 9 z "},"H":{"ha":926,"x_min":104,"x_max":822,"o":"m 104 944 l 240 944 l 240 571 l 686 571 l 686 944 l 822 944 l 822 0 l 686 0 l 686 452 l 240 452 l 240 0 l 104 0 l 104 944 z "},"I":{"ha":347,"x_min":106,"x_max":241,"o":"m 106 944 l 241 944 l 241 0 l 106 0 l 106 944 z "},"J":{"ha":694,"x_min":87,"x_max":587,"o":"m 167 -7 q 87 -3 138 -7 l 87 127 q 185 119 115 119 q 305 139 256 119 q 386 201 353 159 q 452 477 452 288 l 452 824 l 104 824 l 104 944 l 587 944 l 587 477 q 356 23 587 110 q 167 -7 277 -7 z "},"K":{"ha":810,"x_min":104,"x_max":802,"o":"m 104 944 l 239 944 l 239 502 l 603 944 l 772 944 l 385 490 l 802 0 l 634 0 l 239 471 l 239 0 l 104 0 l 104 944 z "},"L":{"ha":696,"x_min":104,"x_max":644,"o":"m 104 944 l 240 944 l 240 119 l 644 119 l 644 0 l 104 0 l 104 944 z "},"M":{"ha":1042,"x_min":98,"x_max":943,"o":"m 98 944 l 185 944 l 522 557 l 857 944 l 943 944 l 943 0 l 808 0 l 808 719 l 768 665 l 522 378 l 275 664 l 234 718 l 234 0 l 98 0 l 98 944 z "},"N":{"ha":926,"x_min":104,"x_max":821,"o":"m 104 944 l 201 944 l 694 248 l 687 345 l 687 944 l 821 944 l 821 0 l 724 0 l 313 578 l 231 696 l 238 578 l 238 0 l 104 0 l 104 944 z "},"O":{"ha":1042,"x_min":74,"x_max":968,"o":"m 74 471 q 107 671 74 581 q 199 823 140 760 q 522 955 323 955 q 843 823 720 955 q 968 471 968 690 q 843 119 968 252 q 522 -11 721 -11 q 199 119 323 -11 q 74 471 74 252 m 210 471 q 285 216 210 317 q 522 103 370 103 q 758 216 673 103 q 832 470 832 315 q 758 727 832 626 q 522 841 673 841 q 285 727 369 841 q 210 471 210 626 z "},"P":{"ha":810,"x_min":115,"x_max":756,"o":"m 115 944 l 383 944 q 728 785 651 944 q 756 647 756 727 q 728 510 756 567 q 651 416 699 453 q 401 346 557 346 l 251 346 l 251 0 l 115 0 l 115 944 m 374 454 q 556 502 497 454 q 615 650 615 549 q 491 822 615 783 q 386 836 448 836 l 251 836 l 251 454 l 374 454 z "},"Q":{"ha":1042,"x_min":74,"x_max":968,"o":"m 901 -260 q 844 -262 891 -262 q 736 -243 796 -262 q 627 -191 675 -224 q 475 -14 537 -130 l 479 -9 q 187 133 297 5 q 74 471 74 265 q 199 823 74 690 q 522 955 323 955 q 843 823 720 955 q 968 471 968 690 q 868 149 968 278 q 608 -3 772 24 l 610 -5 q 871 -130 703 -130 q 887 -130 871 -130 q 901 -129 894 -130 l 901 -260 m 210 471 q 285 216 210 317 q 522 103 370 103 q 758 216 673 103 q 832 470 832 315 q 758 727 832 626 q 522 841 673 841 q 285 727 369 841 q 210 471 210 626 z "},"R":{"ha":810,"x_min":115,"x_max":788,"o":"m 115 944 l 383 944 q 728 785 651 944 q 756 654 756 727 q 737 531 756 581 q 683 445 718 481 q 500 354 616 376 q 663 149 548 205 q 727 129 701 130 q 788 132 770 127 l 788 0 l 758 0 q 498 109 605 0 q 371 346 404 203 l 251 346 l 251 0 l 115 0 l 115 944 m 374 454 q 556 502 497 454 q 615 650 615 549 q 491 822 615 783 q 386 836 448 836 l 251 836 l 251 454 l 374 454 z "},"S":{"ha":810,"x_min":100,"x_max":737,"o":"m 643 66 q 618 49 643 66 q 519 13 594 32 q 335 -7 444 -7 q 115 6 226 -7 l 115 138 q 315 115 214 115 q 465 126 415 115 q 546 156 515 138 q 602 244 602 190 q 581 309 602 286 q 481 375 546 345 l 307 454 q 180 532 218 496 q 100 711 100 610 q 191 880 100 816 q 475 951 291 951 q 692 941 593 951 l 692 812 q 506 831 608 831 q 356 820 403 831 q 283 793 310 810 q 235 715 235 764 q 266 636 235 667 q 365 575 293 610 l 543 490 q 668 411 632 448 q 720 336 703 374 q 737 246 737 298 q 714 147 737 193 q 643 66 691 100 z "},"T":{"ha":810,"x_min":52,"x_max":755,"o":"m 336 825 l 52 825 l 52 944 l 755 944 l 755 825 l 471 825 l 471 0 l 336 0 l 336 825 z "},"U":{"ha":926,"x_min":104,"x_max":821,"o":"m 463 106 q 686 379 686 106 l 686 944 l 821 944 l 821 379 q 720 79 821 179 q 463 -11 629 -11 q 132 200 208 -11 q 104 379 104 274 l 104 944 l 240 944 l 240 379 q 463 106 240 106 z "},"V":{"ha":814,"x_min":-30,"x_max":844,"o":"m -30 944 l 111 944 l 408 168 l 703 944 l 844 944 l 472 0 l 342 0 l -30 944 z "},"W":{"ha":1273,"x_min":1,"x_max":1271,"o":"m 1 944 l 142 944 l 325 278 l 351 161 l 381 278 l 572 944 l 703 944 l 892 278 l 922 156 l 951 278 l 1135 944 l 1271 944 l 985 0 l 854 0 l 656 665 l 633 749 l 612 665 l 415 0 l 285 0 l 1 944 z "},"X":{"ha":810,"x_min":14,"x_max":802,"o":"m 329 478 l 31 944 l 182 944 l 405 583 l 633 944 l 775 944 l 471 487 l 802 0 l 651 0 l 397 387 l 162 0 l 14 0 l 329 478 z "},"Y":{"ha":814,"x_min":0,"x_max":814,"o":"m 337 411 l 0 944 l 146 944 l 410 522 l 667 944 l 814 944 l 478 412 l 478 0 l 337 0 l 337 411 z "},"Z":{"ha":810,"x_min":62,"x_max":736,"o":"m 62 61 l 551 829 l 455 826 l 85 826 l 85 944 l 736 944 l 736 883 l 245 117 l 349 119 l 736 119 l 736 0 l 62 0 l 62 61 z "},"[":{"ha":464,"x_min":109,"x_max":410,"o":"m 232 -23 l 232 966 l 408 966 l 408 1059 l 109 1059 l 109 -117 l 410 -117 l 410 -23 l 232 -23 z "},"\\":{"ha":579,"x_min":1,"x_max":562,"o":"m 122 922 l 1 922 l 441 -115 l 562 -115 l 122 922 z "},"]":{"ha":464,"x_min":54,"x_max":354,"o":"m 231 -23 l 231 966 l 55 966 l 55 1059 l 354 1059 l 354 -117 l 54 -117 l 54 -23 l 231 -23 z "},"^":{"ha":809,"x_min":23,"x_max":786,"o":"m 363 944 l 445 944 l 786 231 l 639 231 l 423 698 l 404 758 l 385 698 l 162 231 l 23 231 l 363 944 z "},"_":{"ha":810,"x_min":-7,"x_max":817,"o":"m 817 -127 l 817 -231 l -7 -231 l -7 -127 l 817 -127 z "},"`":{"ha":462,"x_min":62,"x_max":378,"o":"m 62 1099 l 221 1099 l 378 850 l 258 850 l 62 1099 z "},"a":{"ha":810,"x_min":87,"x_max":698,"o":"m 137 125 q 125 144 137 125 q 101 216 114 163 q 87 352 87 268 q 124 507 87 436 q 218 623 160 578 q 500 711 332 711 q 632 707 587 711 q 698 700 632 707 l 698 0 l 576 0 l 570 81 q 446 0 530 26 q 381 -10 414 -10 q 315 -3 347 -10 q 250 19 282 3 q 189 61 218 35 q 137 125 159 87 m 562 600 q 476 606 519 606 q 384 590 433 606 q 300 543 335 575 q 229 336 229 475 q 290 141 229 204 q 403 94 337 94 q 543 156 488 94 q 562 184 556 172 l 562 600 z "},"b":{"ha":808,"x_min":114,"x_max":726,"o":"m 595 78 q 566 55 595 78 q 463 11 536 33 q 304 -10 389 -10 q 114 0 219 -10 l 114 1009 l 250 1009 l 250 630 q 374 703 294 681 q 435 711 404 711 q 499 704 467 711 q 564 682 532 698 q 625 641 596 667 q 677 576 654 615 q 726 380 726 494 q 690 195 726 267 q 595 78 654 124 m 250 100 q 325 94 269 94 q 429 110 380 94 q 513 159 478 125 q 585 367 585 229 q 487 588 585 536 q 415 606 452 606 q 351 597 378 606 q 304 574 324 587 q 250 517 265 547 l 250 100 z "},"c":{"ha":693,"x_min":74,"x_max":608,"o":"m 608 2 q 467 -11 567 -11 q 296 14 366 -11 q 176 85 226 38 q 74 358 74 184 q 197 624 74 527 q 467 711 307 711 q 602 704 566 711 l 602 583 q 472 602 545 602 q 351 582 399 602 q 273 528 303 562 q 215 358 215 463 q 343 121 215 180 q 432 100 389 100 q 499 102 475 100 q 543 108 522 104 q 608 123 588 115 l 608 2 z "},"d":{"ha":810,"x_min":80,"x_max":692,"o":"m 211 623 q 241 646 211 623 q 343 690 270 669 q 472 711 417 711 q 557 708 527 711 l 557 1009 l 692 1009 l 692 0 l 570 0 l 565 81 q 439 -1 524 26 q 373 -11 407 -11 q 307 -4 340 -11 q 242 19 275 3 q 181 61 210 35 q 129 125 152 87 q 80 322 80 208 q 116 507 80 436 q 211 623 153 578 m 293 543 q 276 526 293 543 q 240 459 258 510 q 221 335 221 408 q 239 215 221 262 q 283 141 256 168 q 395 94 330 94 q 536 156 480 94 q 556 184 550 172 l 556 601 l 543 602 q 468 606 511 606 q 376 591 425 606 q 293 543 328 576 z "},"e":{"ha":695,"x_min":48,"x_max":652,"o":"m 432 -11 q 48 364 48 -11 q 155 623 48 526 q 373 711 250 711 q 582 621 507 711 q 652 398 652 538 l 652 345 l 189 345 q 346 111 189 153 q 461 100 383 100 q 613 121 538 100 l 613 7 q 432 -11 538 -11 m 516 445 q 480 555 516 510 q 364 606 438 606 q 237 557 286 606 q 193 445 193 511 l 516 445 z "},"f":{"ha":464,"x_min":38,"x_max":460,"o":"m 460 907 q 393 916 436 916 q 324 907 349 916 q 283 884 298 899 q 258 793 258 856 l 258 700 l 433 700 l 433 596 l 258 596 l 258 0 l 122 0 l 122 596 l 38 596 l 38 660 l 122 700 l 122 774 q 135 882 122 846 q 165 941 147 918 q 212 983 182 965 q 389 1020 275 1020 q 460 1015 437 1020 l 460 907 z "},"g":{"ha":810,"x_min":58,"x_max":692,"o":"m 502 -267 q 350 -282 443 -282 q 215 -269 258 -282 l 215 -148 q 346 -171 269 -171 q 460 -161 424 -172 q 518 -125 497 -150 q 556 34 556 -81 l 556 70 q 420 -2 505 18 q 353 -10 387 -10 q 287 -3 319 -10 q 222 21 254 5 q 161 65 191 38 q 110 132 132 92 q 60 345 60 218 q 127 551 58 463 q 292 671 187 629 q 497 711 387 711 q 692 700 608 711 l 692 34 q 502 -267 692 -220 m 556 601 q 471 606 513 606 q 376 591 429 606 q 285 543 324 575 q 199 345 199 473 q 266 142 199 206 q 389 94 316 94 q 536 156 476 94 q 556 184 550 172 l 556 601 z "},"h":{"ha":810,"x_min":105,"x_max":713,"o":"m 420 594 q 241 526 319 594 l 241 0 l 105 0 l 105 1009 l 241 1009 l 241 625 q 468 711 351 711 q 652 636 593 711 q 713 382 713 557 l 713 0 l 577 0 l 577 382 q 486 583 577 551 q 420 594 456 594 z "},"i":{"ha":348,"x_min":87,"x_max":263,"o":"m 263 904 q 263 884 263 904 q 238 844 263 865 q 174 823 212 823 q 112 844 136 823 q 87 904 87 865 q 112 963 87 943 q 174 983 136 983 q 238 963 212 983 q 263 904 263 943 m 104 700 l 240 700 l 240 0 l 104 0 l 104 700 z "},"j":{"ha":347,"x_min":-40,"x_max":263,"o":"m 263 904 q 263 885 263 904 q 238 845 263 865 q 174 824 212 824 q 112 845 136 824 q 87 904 87 865 q 112 964 87 943 q 174 984 136 984 q 238 964 212 984 q 263 904 263 943 m 106 700 l 241 700 l 241 -14 q 126 -258 241 -197 q 9 -282 81 -282 q -15 -281 -3 -282 l -40 -278 l -40 -174 q 1 -179 -22 -179 q 45 -171 24 -179 q 79 -144 66 -163 q 106 -13 106 -106 l 106 700 z "},"k":{"ha":694,"x_min":115,"x_max":711,"o":"m 115 1008 l 251 1008 l 251 387 l 534 700 l 696 700 l 394 382 l 711 0 l 546 0 l 251 357 l 251 0 l 115 0 l 115 1008 z "},"l":{"ha":463,"x_min":134,"x_max":416,"o":"m 134 1009 l 270 1009 l 270 265 q 331 107 270 131 q 374 99 351 99 q 416 104 397 99 l 416 0 l 391 -3 q 367 -4 378 -4 q 179 81 237 -4 q 134 264 134 149 l 134 1009 z "},"m":{"ha":1274,"x_min":109,"x_max":1161,"o":"m 243 526 l 244 0 l 109 0 l 109 700 l 233 700 l 243 623 q 416 705 317 686 q 479 711 448 711 q 670 604 606 711 q 917 711 788 711 q 1103 634 1044 711 q 1161 376 1161 556 l 1161 0 l 1025 0 l 1025 372 q 941 583 1025 548 q 874 594 912 594 q 707 529 783 594 l 707 0 l 572 0 l 572 377 q 536 547 572 498 q 412 594 501 594 q 243 526 323 594 z "},"n":{"ha":810,"x_min":105,"x_max":713,"o":"m 420 594 q 241 526 319 594 l 241 0 l 105 0 l 105 700 l 231 700 l 240 624 q 469 711 351 711 q 652 636 593 711 q 713 382 713 557 l 713 0 l 577 0 l 577 382 q 486 583 577 551 q 420 594 457 594 z "},"o":{"ha":810,"x_min":60,"x_max":748,"o":"m 60 351 q 165 618 60 516 q 408 714 263 714 q 646 618 551 714 q 748 351 748 517 q 646 85 748 186 q 408 -11 549 -11 q 165 85 264 -11 q 60 351 60 186 m 201 351 q 312 115 201 178 q 406 94 351 94 q 499 116 461 94 q 562 174 537 138 q 607 351 607 243 q 498 587 607 524 q 407 610 460 610 q 315 588 354 610 q 251 530 276 566 q 201 351 201 459 z "},"p":{"ha":811,"x_min":115,"x_max":726,"o":"m 251 -271 l 115 -271 l 115 700 l 237 700 l 243 620 q 368 701 283 674 q 434 711 400 711 q 500 704 467 711 q 564 681 532 696 q 625 638 596 665 q 677 574 654 612 q 726 367 726 490 q 595 79 726 178 q 315 -10 480 -10 l 281 -10 q 251 -9 264 -10 l 251 -271 m 251 100 q 326 95 270 95 q 430 111 381 95 q 513 159 479 126 q 585 367 585 228 q 522 560 585 498 q 410 606 476 606 q 271 545 326 606 q 251 517 257 529 l 251 100 z "},"q":{"ha":811,"x_min":81,"x_max":692,"o":"m 131 125 q 119 144 131 125 q 95 216 108 163 q 81 352 81 268 q 118 507 81 436 q 213 623 154 578 q 494 711 326 711 q 626 707 581 711 q 692 700 626 707 l 692 -271 l 556 -271 l 556 -85 l 565 81 q 441 0 524 26 q 375 -10 408 -10 q 309 -3 341 -10 q 244 19 276 3 q 182 61 212 35 q 131 125 153 87 m 556 600 q 470 606 513 606 q 378 590 427 606 q 294 543 329 575 q 222 336 222 475 q 284 141 222 204 q 397 94 331 94 q 536 156 481 94 q 556 184 550 172 l 556 600 z "},"r":{"ha":578,"x_min":115,"x_max":550,"o":"m 550 576 q 461 587 513 587 q 376 576 409 587 q 317 551 342 566 q 250 490 271 524 l 250 0 l 115 0 l 115 700 l 245 700 l 250 603 q 399 699 301 667 q 479 711 434 711 q 550 704 525 711 l 550 576 z "},"s":{"ha":694,"x_min":105,"x_max":607,"o":"m 277 -11 q 105 1 192 -11 l 105 121 q 284 100 193 100 q 466 177 466 100 q 452 220 466 206 q 385 265 431 243 l 286 311 q 161 388 190 359 q 108 517 108 442 q 186 654 108 601 q 422 711 270 711 q 576 700 498 711 l 576 584 q 428 600 491 600 q 329 591 364 600 q 277 571 294 583 q 249 522 249 552 q 268 473 249 492 q 329 433 288 454 l 429 385 q 554 307 526 334 q 607 177 607 255 q 523 43 607 94 q 277 -11 435 -11 z "},"t":{"ha":578,"x_min":51,"x_max":504,"o":"m 357 107 q 425 99 379 99 q 500 110 470 99 l 500 1 q 459 -3 486 -2 l 416 -4 q 395 -4 402 -4 q 201 81 264 -4 q 151 264 151 151 l 151 596 l 51 596 l 51 660 l 151 700 l 184 873 l 287 873 l 287 700 l 504 700 l 504 596 l 287 596 l 287 265 q 357 107 287 132 z "},"u":{"ha":810,"x_min":103,"x_max":697,"o":"m 562 172 l 562 700 l 697 700 l 697 0 l 575 0 l 563 74 q 341 -11 463 -11 q 159 60 212 -11 q 103 311 103 133 l 103 700 l 239 700 l 239 317 q 275 146 239 192 q 396 106 307 106 q 562 172 486 106 z "},"v":{"ha":692,"x_min":9,"x_max":682,"o":"m 9 700 l 155 700 l 346 132 l 537 700 l 682 700 l 414 0 l 278 0 l 9 700 z "},"w":{"ha":1158,"x_min":11,"x_max":1147,"o":"m 11 700 l 155 700 l 335 144 l 517 700 l 658 700 l 842 146 l 1013 700 l 1147 700 l 911 0 l 772 0 l 583 530 l 405 0 l 265 0 l 11 700 z "},"x":{"ha":695,"x_min":14,"x_max":681,"o":"m 271 351 l 30 700 l 184 700 l 351 447 l 529 700 l 681 700 l 420 352 l 675 0 l 522 0 l 343 255 l 168 0 l 14 0 l 271 351 z "},"y":{"ha":695,"x_min":35,"x_max":705,"o":"m 76 -174 q 126 -179 94 -179 q 191 -166 157 -179 q 248 -132 224 -154 q 322 -16 289 -95 l 35 700 l 179 700 l 381 142 l 562 700 l 705 700 l 418 -86 q 328 -221 385 -174 q 125 -282 252 -282 q 101 -281 113 -282 l 76 -278 l 76 -174 z "},"z":{"ha":695,"x_min":60,"x_max":656,"o":"m 60 79 l 467 591 l 85 591 l 85 700 l 641 700 l 641 621 l 228 109 l 656 109 l 656 0 l 60 0 l 60 79 z "},"{":{"ha":694,"x_min":117,"x_max":655,"o":"m 655 -116 q 578 -121 631 -121 q 484 -112 524 -121 q 418 -84 444 -102 q 377 -43 392 -66 q 355 8 363 -19 q 346 124 346 45 l 346 165 q 302 375 346 320 q 165 424 264 424 l 117 424 l 117 522 l 165 522 q 302 570 264 522 q 346 778 346 624 l 346 819 q 354 930 346 898 q 377 986 363 962 q 418 1027 392 1010 q 583 1065 473 1065 q 655 1059 631 1065 l 655 963 q 584 971 631 971 q 514 962 537 971 q 479 937 491 954 q 461 843 461 909 l 461 772 q 429 576 461 642 q 318 481 398 515 l 318 468 q 429 370 397 434 q 461 171 461 303 l 461 100 q 476 12 461 34 q 567 -28 503 -28 q 655 -20 631 -28 l 655 -116 z "},"|":{"ha":347,"x_min":112,"x_max":234,"o":"m 112 922 l 234 922 l 234 -115 l 112 -115 l 112 922 z "},"}":{"ha":694,"x_min":64,"x_max":603,"o":"m 64 -116 q 142 -121 88 -121 q 235 -112 195 -121 q 301 -84 275 -102 q 342 -43 328 -66 q 364 8 357 -19 q 374 124 374 45 l 374 165 q 417 375 374 320 q 555 424 456 424 l 603 424 l 603 522 l 555 522 q 417 570 455 522 q 374 778 374 624 l 374 819 q 365 930 374 898 q 342 986 357 962 q 302 1027 328 1010 q 137 1065 246 1065 q 64 1059 88 1065 l 64 963 q 136 971 89 971 q 206 962 182 971 q 240 937 229 954 q 258 843 258 909 l 258 772 q 291 576 258 642 q 401 481 321 515 l 401 468 q 291 370 322 434 q 258 171 258 303 l 258 100 q 243 12 258 34 q 153 -28 216 -28 q 64 -20 89 -28 l 64 -116 z "},"~":{"ha":810,"x_min":14,"x_max":796,"o":"m 14 374 q 73 540 14 476 q 214 600 128 600 q 311 581 272 600 q 374 545 349 562 l 430 509 q 468 483 449 497 q 508 456 488 468 q 586 427 555 427 q 633 437 616 427 q 662 463 650 446 q 688 550 688 498 l 796 550 q 737 384 796 446 q 595 324 682 324 q 497 344 539 324 q 430 380 455 364 l 330 447 q 214 496 256 496 q 148 461 174 496 q 122 374 122 426 l 14 374 z "}," ":{"ha":463,"x_min":0,"x_max":0,"o":"z "},"¡":{"ha":347,"x_min":79,"x_max":269,"o":"m 269 645 q 269 624 269 645 q 242 581 269 603 q 175 558 216 558 q 106 581 134 558 q 79 645 79 603 q 106 708 79 686 q 175 730 134 730 q 242 708 216 730 q 269 645 269 686 m 118 433 l 232 433 l 243 -270 l 107 -270 l 118 433 z "},"¢":{"ha":694,"x_min":67,"x_max":632,"o":"m 632 12 q 461 0 581 0 l 460 0 l 460 -231 l 357 -231 l 357 8 q 87 225 146 46 q 67 356 67 284 q 90 483 67 427 q 152 579 113 538 q 357 686 230 659 l 357 922 l 460 922 l 460 699 l 475 699 q 627 692 577 699 l 627 572 q 488 590 575 590 q 350 571 401 590 q 266 519 298 552 q 203 358 203 458 q 347 130 203 188 q 488 111 397 111 q 632 134 578 111 l 632 12 z "},"£":{"ha":810,"x_min":38,"x_max":719,"o":"m 698 706 q 563 719 635 719 q 451 699 491 719 q 389 647 410 680 q 358 491 358 598 l 358 461 l 589 461 l 589 358 l 357 358 q 281 158 347 241 q 242 118 262 134 l 242 115 l 719 115 l 719 0 l 38 0 l 38 115 q 170 172 118 115 q 228 358 228 237 l 56 358 l 56 461 l 228 461 l 228 488 q 430 817 228 751 q 543 834 484 834 q 697 827 642 834 l 698 706 z "},"¤":{"ha":810,"x_min":14,"x_max":793,"o":"m 403 121 q 262 159 326 121 l 102 0 l 14 89 l 171 245 q 124 403 124 317 q 171 560 124 489 l 14 718 l 103 807 l 263 647 q 403 685 329 685 q 544 646 478 685 l 705 806 l 793 718 l 636 559 q 683 402 683 486 q 635 247 683 319 l 793 90 l 704 1 l 544 159 q 403 121 479 121 m 221 403 q 236 334 221 366 q 275 277 250 301 q 404 224 328 224 q 532 277 479 224 q 586 404 586 329 q 532 530 586 479 q 404 582 478 582 q 275 530 328 582 q 221 403 221 477 z "},"¥":{"ha":810,"x_min":-11,"x_max":818,"o":"m 83 220 l 338 220 l 338 330 l 83 330 l 83 434 l 338 434 l -11 836 l 140 836 l 404 541 l 669 836 l 818 836 l 469 434 l 724 434 l 724 330 l 469 330 l 469 220 l 724 220 l 724 115 l 469 115 l 469 0 l 338 0 l 338 115 l 83 115 l 83 220 z "},"¦":{"ha":347,"x_min":112,"x_max":234,"o":"m 112 922 l 234 922 l 234 468 l 112 468 l 112 922 m 112 338 l 234 338 l 234 -115 l 112 -115 l 112 338 z "},"§":{"ha":694,"x_min":47,"x_max":644,"o":"m 511 -88 q 492 -103 511 -88 q 416 -135 473 -117 q 286 -152 359 -152 q 132 -141 212 -152 l 132 -17 q 282 -33 221 -33 q 377 -23 344 -33 q 427 0 410 -14 q 454 62 454 22 q 353 180 454 143 l 242 223 q 99 307 143 261 q 47 441 47 361 q 160 604 47 536 q 237 641 195 625 q 150 705 173 677 q 107 810 107 758 q 125 902 107 863 q 181 970 144 941 q 409 1034 262 1034 q 559 1023 477 1034 l 559 899 q 409 914 471 914 q 315 904 348 914 q 264 878 281 893 q 237 814 237 853 q 339 701 237 741 l 450 659 q 593 574 549 621 q 644 440 644 521 q 531 278 644 346 q 454 241 496 257 q 541 178 517 207 q 585 72 585 125 q 566 -20 585 19 q 511 -88 548 -59 m 330 307 q 475 357 423 314 q 519 440 519 393 q 496 505 519 482 q 359 576 451 552 q 216 525 267 567 q 172 441 172 488 q 251 334 172 376 q 330 307 281 318 z "},"¨":{"ha":576,"x_min":47,"x_max":530,"o":"m 530 900 q 530 881 530 900 q 506 843 530 863 q 446 823 481 823 q 386 843 410 823 q 363 900 363 863 q 386 956 363 937 q 446 975 410 975 q 506 956 481 975 q 530 900 530 937 m 215 900 q 215 881 215 900 q 191 843 215 863 q 130 823 166 823 q 71 843 94 823 q 47 900 47 863 q 71 956 47 937 q 130 975 94 975 q 191 956 166 975 q 215 900 215 937 z "},"©":{"ha":1267,"x_min":92,"x_max":1175,"o":"m 92 385 q 166 656 92 531 q 490 905 277 845 q 633 924 559 924 q 907 850 779 924 q 1101 656 1029 779 q 1175 385 1175 531 q 1101 113 1175 237 q 777 -134 991 -75 q 633 -154 708 -154 q 360 -80 488 -154 q 166 113 239 -10 q 92 385 92 237 m 195 385 q 323 73 195 202 q 463 -22 383 13 q 618 -56 543 -56 q 750 -41 694 -56 q 855 4 806 -25 q 943 73 903 33 q 1012 162 983 113 q 1072 385 1072 264 q 943 697 1072 567 q 750 810 863 778 q 618 826 694 826 q 463 791 543 826 q 323 697 383 757 q 230 556 264 637 q 195 385 195 476 m 808 100 q 685 90 763 90 q 548 110 608 90 q 444 170 488 130 q 351 395 351 252 q 456 610 351 531 q 688 681 549 681 q 800 674 739 681 l 800 571 q 692 585 746 585 q 597 571 639 585 q 528 533 556 558 q 471 395 471 483 q 524 248 471 304 q 686 189 581 189 q 808 206 764 189 l 808 100 z "},"ª":{"ha":694,"x_min":74,"x_max":576,"o":"m 366 350 q 303 341 338 341 q 227 355 267 341 q 153 401 186 370 q 74 612 74 475 q 180 854 74 768 q 404 928 273 928 q 522 924 486 928 l 576 918 l 576 346 l 474 346 l 469 421 q 366 350 435 370 m 460 825 q 394 831 435 831 q 316 818 353 831 q 252 779 279 806 q 196 612 196 723 q 243 469 196 516 q 330 433 279 433 q 460 516 416 433 l 460 825 z "},"«":{"ha":1157,"x_min":150,"x_max":981,"o":"m 566 402 l 981 675 l 981 542 l 696 361 l 981 176 l 981 43 l 566 322 l 566 402 m 150 402 l 564 675 l 564 542 l 279 361 l 564 176 l 564 43 l 150 322 l 150 402 z "},"¬":{"ha":810,"x_min":66,"x_max":692,"o":"m 66 576 l 692 576 l 692 231 l 587 231 l 587 465 l 66 465 l 66 576 z "},"­":{"ha":833,"x_min":0,"x_max":0,"o":""},"®":{"ha":1267,"x_min":92,"x_max":1175,"o":"m 92 385 q 166 656 92 531 q 490 905 277 845 q 633 924 559 924 q 907 850 779 924 q 1101 656 1029 779 q 1175 385 1175 531 q 1101 113 1175 237 q 777 -134 991 -75 q 633 -154 708 -154 q 360 -80 488 -154 q 166 113 239 -10 q 92 385 92 237 m 195 385 q 323 73 195 202 q 463 -22 383 13 q 618 -56 543 -56 q 750 -41 694 -56 q 855 4 806 -25 q 943 73 903 33 q 1012 162 983 113 q 1072 385 1072 264 q 943 697 1072 567 q 750 810 863 778 q 618 826 694 826 q 463 791 543 826 q 323 697 383 757 q 230 556 264 637 q 195 385 195 476 m 688 325 q 848 210 731 210 l 864 210 q 881 211 874 210 l 881 114 l 858 114 q 618 246 690 114 q 588 322 598 283 l 525 322 l 525 115 l 424 115 l 424 692 l 604 692 q 817 633 751 692 q 870 507 870 586 q 688 325 870 346 m 767 505 q 604 601 767 601 l 525 601 l 525 410 l 604 410 q 714 425 686 410 q 755 457 743 439 q 767 505 767 475 z "},"¯":{"ha":462,"x_min":47,"x_max":414,"o":"m 47 944 l 414 944 l 414 841 l 47 841 l 47 944 z "},"°":{"ha":578,"x_min":64,"x_max":513,"o":"m 288 479 q 130 544 195 479 q 64 701 64 608 q 130 857 64 793 q 288 922 195 922 q 447 857 381 922 q 513 701 513 793 q 447 544 513 608 q 288 479 381 479 m 288 576 q 374 613 338 576 q 410 701 410 648 q 374 788 410 753 q 288 825 338 825 q 202 788 239 825 q 167 701 167 753 q 202 613 167 648 q 288 576 239 576 z "},"±":{"ha":810,"x_min":66,"x_max":746,"o":"m 352 352 l 66 352 l 66 455 l 352 455 l 352 741 l 455 741 l 455 455 l 746 455 l 746 352 l 455 352 l 455 61 l 352 61 l 352 352 m 86 109 l 726 109 l 726 5 l 86 5 l 86 109 z "},"²":{"ha":578,"x_min":64,"x_max":508,"o":"m 78 916 q 202 928 133 928 q 312 920 271 928 q 383 896 353 911 q 432 861 413 880 q 462 819 451 841 q 481 731 481 781 q 442 628 481 682 q 327 508 402 574 l 268 456 l 268 450 l 508 450 l 508 346 l 64 346 l 64 408 l 172 494 q 353 689 333 622 q 359 733 359 712 q 352 771 359 754 q 328 802 345 789 q 216 831 292 831 q 127 821 169 831 q 78 808 86 812 l 78 916 z "},"³":{"ha":578,"x_min":62,"x_max":526,"o":"m 370 361 q 226 346 317 346 q 62 363 136 346 l 62 469 q 232 444 147 444 q 404 526 404 444 q 358 590 404 572 q 212 607 315 607 l 157 607 l 157 661 l 319 824 l 68 824 l 68 922 l 502 922 l 502 868 l 317 690 l 317 688 q 526 526 526 673 q 370 361 526 402 z "},"´":{"ha":808,"x_min":345,"x_max":661,"o":"m 503 1099 l 661 1099 l 466 850 l 345 850 l 503 1099 z "},"µ":{"ha":810,"x_min":113,"x_max":701,"o":"m 391 0 q 224 64 295 0 l 239 -231 l 113 -231 l 113 700 l 239 700 l 239 309 q 294 145 239 199 q 386 105 335 105 q 467 117 436 105 q 519 145 498 128 q 574 216 559 177 l 574 700 l 701 700 l 701 0 l 588 0 l 597 115 l 594 115 q 448 8 538 34 q 391 0 419 0 z "},"¶":{"ha":811,"x_min":51,"x_max":699,"o":"m 339 346 q 135 430 220 346 q 51 634 51 515 q 135 838 51 753 q 339 922 220 922 l 445 922 l 445 922 l 593 922 l 593 922 l 699 922 l 699 -231 l 593 -231 l 593 823 l 445 823 l 445 -231 l 339 -231 l 339 346 z "},"·":{"ha":347,"x_min":79,"x_max":269,"o":"m 269 490 q 269 469 269 490 q 242 426 269 448 q 174 404 215 404 q 106 426 133 404 q 79 490 79 448 q 106 554 79 532 q 174 576 133 576 q 242 554 215 576 q 269 490 269 532 z "},"¸":{"ha":692,"x_min":330,"x_max":609,"o":"m 498 -186 q 422 -149 498 -149 l 340 -149 l 340 57 l 438 57 l 438 -62 l 461 -62 q 598 -129 566 -62 q 609 -186 609 -152 q 592 -250 609 -220 q 547 -301 575 -280 q 398 -345 486 -345 q 330 -340 353 -345 l 330 -245 q 389 -252 360 -252 q 498 -186 498 -252 z "},"¹":{"ha":463,"x_min":37,"x_max":323,"o":"m 208 768 l 37 651 l 37 773 l 253 928 l 323 928 l 323 345 l 208 345 l 208 768 z "},"º":{"ha":695,"x_min":70,"x_max":623,"o":"m 346 341 q 238 360 289 341 q 151 416 188 379 q 70 634 70 496 q 151 853 70 772 q 346 928 226 928 q 541 853 465 928 q 623 634 623 773 q 541 416 623 496 q 346 341 465 341 m 274 452 q 346 435 304 435 q 418 451 389 435 q 467 495 448 468 q 502 634 502 548 q 416 818 502 769 q 345 835 387 835 q 274 818 304 835 q 227 774 245 802 q 191 634 191 722 q 274 452 191 498 z "},"»":{"ha":1156,"x_min":191,"x_max":1021,"o":"m 605 402 l 191 675 l 191 542 l 475 361 l 191 176 l 191 43 l 605 322 l 605 402 m 1021 402 l 607 675 l 607 542 l 892 361 l 607 176 l 607 43 l 1021 322 l 1021 402 z "},"¼":{"ha":579,"x_min":37,"x_max":531,"o":"m 266 346 l 406 346 l 189 -5 l 344 -5 l 344 115 l 460 115 l 460 -5 l 531 -5 l 531 -98 l 460 -98 l 460 -231 l 344 -231 l 344 -98 l 37 -98 l 37 -47 l 266 346 m 281 884 l 111 766 l 111 888 l 326 1043 l 397 1043 l 397 460 l 281 460 l 281 884 z "},"½":{"ha":578,"x_min":84,"x_max":528,"o":"m 98 340 q 222 353 153 353 q 333 345 292 353 q 404 320 374 336 q 452 286 433 305 q 482 244 471 266 q 502 156 502 205 q 462 53 502 107 q 347 -67 422 -1 l 288 -119 l 288 -125 l 528 -125 l 528 -229 l 84 -229 l 84 -167 l 192 -81 q 373 114 353 47 q 380 158 380 137 q 373 196 380 179 q 349 227 366 214 q 236 256 313 256 q 148 246 189 256 q 98 233 106 237 l 98 340 m 281 884 l 111 766 l 111 888 l 326 1043 l 397 1043 l 397 460 l 281 460 l 281 884 z "},"¾":{"ha":579,"x_min":37,"x_max":531,"o":"m 374 475 q 230 460 321 460 q 66 478 140 460 l 66 584 q 236 558 151 558 q 408 640 408 558 q 362 705 408 687 q 216 722 319 722 l 161 722 l 161 776 l 323 939 l 72 939 l 72 1037 l 506 1037 l 506 983 l 321 805 l 321 803 q 530 640 530 788 q 374 475 530 517 m 266 346 l 406 346 l 189 -5 l 344 -5 l 344 115 l 460 115 l 460 -5 l 531 -5 l 531 -98 l 460 -98 l 460 -231 l 344 -231 l 344 -98 l 37 -98 l 37 -47 l 266 346 z "},"¿":{"ha":694,"x_min":115,"x_max":616,"o":"m 433 294 q 251 137 251 294 q 442 -84 251 -29 q 616 -108 519 -107 l 616 -236 q 238 -123 375 -236 q 115 137 115 -20 q 253 368 115 298 q 387 399 306 395 l 387 482 l 502 482 l 502 291 q 433 294 475 294 m 533 648 q 508 588 533 609 q 444 567 483 567 q 380 588 406 567 q 354 648 354 609 q 380 709 354 688 q 444 730 406 730 q 508 709 483 730 q 533 648 533 688 z "},"À":{"ha":926,"x_min":18,"x_max":907,"o":"m 416 944 l 509 944 l 907 0 l 766 0 l 671 237 l 252 237 l 157 0 l 18 0 l 416 944 m 627 346 l 462 760 l 296 346 l 627 346 m 237 1286 l 396 1286 l 553 1038 l 433 1038 l 237 1286 z "},"Á":{"ha":926,"x_min":18,"x_max":907,"o":"m 416 944 l 509 944 l 907 0 l 766 0 l 671 237 l 252 237 l 157 0 l 18 0 l 416 944 m 627 346 l 462 760 l 296 346 l 627 346 m 528 1286 l 686 1286 l 491 1038 l 370 1038 l 528 1286 z "},"Â":{"ha":926,"x_min":18,"x_max":907,"o":"m 416 944 l 509 944 l 907 0 l 766 0 l 671 237 l 252 237 l 157 0 l 18 0 l 416 944 m 627 346 l 462 760 l 296 346 l 627 346 m 241 1183 l 460 1339 l 680 1183 l 680 1053 l 460 1198 l 241 1053 l 241 1183 z "},"Ã":{"ha":926,"x_min":18,"x_max":907,"o":"m 416 944 l 509 944 l 907 0 l 766 0 l 671 237 l 252 237 l 157 0 l 18 0 l 416 944 m 627 346 l 462 760 l 296 346 l 627 346 m 180 1086 q 227 1214 180 1163 q 340 1263 273 1263 q 454 1217 394 1263 l 511 1173 q 580 1141 552 1141 q 624 1160 608 1141 q 641 1214 641 1178 l 744 1214 q 697 1086 744 1137 q 584 1037 651 1037 q 441 1102 522 1037 l 414 1124 q 344 1159 372 1159 q 299 1141 316 1159 q 283 1086 283 1122 l 180 1086 z "},"Ä":{"ha":926,"x_min":18,"x_max":907,"o":"m 416 944 l 509 944 l 907 0 l 766 0 l 671 237 l 252 237 l 157 0 l 18 0 l 416 944 m 627 346 l 462 760 l 296 346 l 627 346 m 697 1133 q 697 1115 697 1133 q 673 1076 697 1096 q 612 1057 648 1057 q 553 1076 576 1057 q 530 1133 530 1096 q 553 1190 530 1171 q 612 1208 576 1208 q 673 1190 648 1208 q 697 1133 697 1171 m 382 1133 q 382 1115 382 1133 q 357 1076 382 1096 q 297 1057 333 1057 q 238 1076 261 1057 q 214 1133 214 1096 q 238 1190 214 1171 q 297 1208 261 1208 q 357 1190 333 1208 q 382 1133 382 1171 z "},"Å":{"ha":926,"x_min":18,"x_max":907,"o":"m 416 944 l 509 944 l 907 0 l 766 0 l 671 237 l 252 237 l 157 0 l 18 0 l 416 944 m 627 346 l 462 760 l 296 346 l 627 346 m 460 1019 q 388 1034 422 1019 q 329 1072 354 1048 q 274 1201 274 1124 q 329 1330 274 1277 q 461 1383 383 1383 q 593 1331 539 1383 q 649 1201 649 1276 q 593 1072 649 1125 q 460 1019 538 1019 m 461 1095 q 532 1126 503 1095 q 562 1201 562 1156 q 500 1299 562 1270 q 461 1308 482 1308 q 390 1276 420 1308 q 361 1201 361 1246 q 390 1126 361 1156 q 461 1095 419 1095 z "},"Æ":{"ha":1270,"x_min":14,"x_max":1190,"o":"m 626 944 l 1190 944 l 1190 826 l 806 826 l 806 548 l 1075 548 l 1075 434 l 806 434 l 806 119 l 1190 119 l 1190 0 l 671 0 l 671 237 l 317 237 l 165 0 l 14 0 l 626 944 m 671 346 l 671 790 l 387 346 l 671 346 z "},"Ç":{"ha":810,"x_min":62,"x_max":746,"o":"m 586 -186 q 510 -149 586 -149 l 429 -149 l 429 5 q 89 300 168 60 q 62 471 62 380 q 82 628 62 562 q 135 746 101 694 q 216 837 169 798 q 319 901 263 875 q 551 951 430 951 q 724 941 672 951 l 724 812 q 577 827 677 827 q 409 802 478 827 q 294 732 340 778 q 203 481 203 644 q 293 222 203 318 q 572 119 390 119 q 746 136 678 119 l 746 5 q 611 -7 679 -7 q 526 -5 543 -7 l 526 -62 l 549 -62 q 686 -129 654 -62 q 697 -186 697 -152 q 680 -250 697 -220 q 635 -301 663 -280 q 486 -345 574 -345 q 418 -340 441 -345 l 418 -245 q 477 -252 448 -252 q 586 -186 586 -252 z "},"È":{"ha":810,"x_min":104,"x_max":714,"o":"m 104 944 l 714 944 l 714 826 l 240 826 l 240 548 l 599 548 l 599 434 l 240 434 l 240 119 l 714 119 l 714 0 l 104 0 l 104 944 m 193 1286 l 352 1286 l 509 1038 l 389 1038 l 193 1286 z "},"É":{"ha":810,"x_min":104,"x_max":714,"o":"m 104 944 l 714 944 l 714 826 l 240 826 l 240 548 l 599 548 l 599 434 l 240 434 l 240 119 l 714 119 l 714 0 l 104 0 l 104 944 m 484 1286 l 642 1286 l 447 1038 l 326 1038 l 484 1286 z "},"Ê":{"ha":810,"x_min":104,"x_max":714,"o":"m 104 944 l 714 944 l 714 826 l 240 826 l 240 548 l 599 548 l 599 434 l 240 434 l 240 119 l 714 119 l 714 0 l 104 0 l 104 944 m 197 1183 l 416 1339 l 636 1183 l 636 1053 l 416 1198 l 197 1053 l 197 1183 z "},"Ë":{"ha":810,"x_min":104,"x_max":714,"o":"m 104 944 l 714 944 l 714 826 l 240 826 l 240 548 l 599 548 l 599 434 l 240 434 l 240 119 l 714 119 l 714 0 l 104 0 l 104 944 m 666 1133 q 666 1115 666 1133 q 642 1076 666 1096 q 581 1057 617 1057 q 522 1076 545 1057 q 498 1133 498 1096 q 522 1190 498 1171 q 581 1208 545 1208 q 642 1190 617 1208 q 666 1133 666 1171 m 351 1133 q 351 1115 351 1133 q 326 1076 351 1096 q 266 1057 302 1057 q 207 1076 230 1057 q 183 1133 183 1096 q 207 1190 183 1171 q 266 1208 230 1208 q 326 1190 302 1208 q 351 1133 351 1171 z "},"Ì":{"ha":347,"x_min":-50,"x_max":267,"o":"m 106 944 l 241 944 l 241 0 l 106 0 l 106 944 m -50 1286 l 109 1286 l 267 1038 l 146 1038 l -50 1286 z "},"Í":{"ha":347,"x_min":83,"x_max":399,"o":"m 106 944 l 241 944 l 241 0 l 106 0 l 106 944 m 240 1286 l 399 1286 l 203 1038 l 83 1038 l 240 1286 z "},"Î":{"ha":347,"x_min":-46,"x_max":393,"o":"m 106 944 l 241 944 l 241 0 l 106 0 l 106 944 m -46 1183 l 174 1339 l 393 1183 l 393 1053 l 174 1198 l -46 1053 l -46 1183 z "},"Ï":{"ha":347,"x_min":-73,"x_max":410,"o":"m 106 944 l 241 944 l 241 0 l 106 0 l 106 944 m 410 1133 q 410 1115 410 1133 q 386 1076 410 1096 q 326 1057 361 1057 q 266 1076 290 1057 q 243 1133 243 1096 q 266 1190 243 1171 q 326 1208 290 1208 q 386 1190 361 1208 q 410 1133 410 1171 m 95 1133 q 95 1115 95 1133 q 71 1076 95 1096 q 10 1057 46 1057 q -49 1076 -26 1057 q -73 1133 -73 1096 q -49 1190 -73 1171 q 10 1208 -26 1208 q 71 1190 46 1208 q 95 1133 95 1171 z "},"Ð":{"ha":926,"x_min":20,"x_max":848,"o":"m 104 452 l 20 452 l 20 556 l 104 556 l 104 943 l 334 943 q 701 829 566 943 q 848 471 848 706 q 705 113 848 235 q 340 0 572 0 l 104 0 l 104 452 m 709 470 q 325 834 709 834 l 240 834 l 240 556 l 481 556 l 481 452 l 240 452 l 240 109 l 332 109 q 689 320 625 109 q 709 470 709 387 z "},"Ñ":{"ha":926,"x_min":104,"x_max":821,"o":"m 104 944 l 201 944 l 694 248 l 687 345 l 687 944 l 821 944 l 821 0 l 724 0 l 313 578 l 231 696 l 238 578 l 238 0 l 104 0 l 104 944 m 192 1086 q 239 1214 192 1163 q 352 1263 285 1263 q 466 1217 406 1263 l 523 1173 q 592 1141 564 1141 q 636 1160 620 1141 q 653 1214 653 1178 l 756 1214 q 709 1086 756 1137 q 596 1037 663 1037 q 454 1102 534 1037 l 426 1124 q 356 1159 385 1159 q 312 1141 328 1159 q 295 1086 295 1122 l 192 1086 z "},"Ò":{"ha":1042,"x_min":74,"x_max":968,"o":"m 74 471 q 107 671 74 581 q 199 823 140 760 q 522 955 323 955 q 843 823 720 955 q 968 471 968 690 q 843 119 968 252 q 522 -11 721 -11 q 199 119 323 -11 q 74 471 74 252 m 210 471 q 285 216 210 317 q 522 103 370 103 q 758 216 673 103 q 832 470 832 315 q 758 727 832 626 q 522 841 673 841 q 285 727 369 841 q 210 471 210 626 m 297 1286 l 456 1286 l 613 1038 l 492 1038 l 297 1286 z "},"Ó":{"ha":1042,"x_min":74,"x_max":968,"o":"m 74 471 q 107 671 74 581 q 199 823 140 760 q 522 955 323 955 q 843 823 720 955 q 968 471 968 690 q 843 119 968 252 q 522 -11 721 -11 q 199 119 323 -11 q 74 471 74 252 m 210 471 q 285 216 210 317 q 522 103 370 103 q 758 216 673 103 q 832 470 832 315 q 758 727 832 626 q 522 841 673 841 q 285 727 369 841 q 210 471 210 626 m 587 1286 l 746 1286 l 551 1038 l 430 1038 l 587 1286 z "},"Ô":{"ha":1042,"x_min":74,"x_max":968,"o":"m 74 471 q 107 671 74 581 q 199 823 140 760 q 522 955 323 955 q 843 823 720 955 q 968 471 968 690 q 843 119 968 252 q 522 -11 721 -11 q 199 119 323 -11 q 74 471 74 252 m 210 471 q 285 216 210 317 q 522 103 370 103 q 758 216 673 103 q 832 470 832 315 q 758 727 832 626 q 522 841 673 841 q 285 727 369 841 q 210 471 210 626 m 300 1183 l 520 1339 l 740 1183 l 740 1053 l 520 1198 l 300 1053 l 300 1183 z "},"Õ":{"ha":1042,"x_min":74,"x_max":968,"o":"m 74 471 q 107 671 74 581 q 199 823 140 760 q 522 955 323 955 q 843 823 720 955 q 968 471 968 690 q 843 119 968 252 q 522 -11 721 -11 q 199 119 323 -11 q 74 471 74 252 m 210 471 q 285 216 210 317 q 522 103 370 103 q 758 216 673 103 q 832 470 832 315 q 758 727 832 626 q 522 841 673 841 q 285 727 369 841 q 210 471 210 626 m 239 1086 q 286 1214 239 1163 q 399 1263 332 1263 q 513 1217 454 1263 l 570 1173 q 640 1141 612 1141 q 684 1160 667 1141 q 701 1214 701 1178 l 804 1214 q 757 1086 804 1137 q 644 1037 711 1037 q 501 1102 582 1037 l 473 1124 q 404 1159 432 1159 q 359 1141 376 1159 q 342 1086 342 1122 l 239 1086 z "},"Ö":{"ha":1042,"x_min":74,"x_max":968,"o":"m 74 471 q 107 671 74 581 q 199 823 140 760 q 522 955 323 955 q 843 823 720 955 q 968 471 968 690 q 843 119 968 252 q 522 -11 721 -11 q 199 119 323 -11 q 74 471 74 252 m 210 471 q 285 216 210 317 q 522 103 370 103 q 758 216 673 103 q 832 470 832 315 q 758 727 832 626 q 522 841 673 841 q 285 727 369 841 q 210 471 210 626 m 757 1133 q 757 1115 757 1133 q 732 1076 757 1096 q 672 1057 708 1057 q 613 1076 636 1057 q 589 1133 589 1096 q 613 1190 589 1171 q 672 1208 636 1208 q 732 1190 708 1208 q 757 1133 757 1171 m 441 1133 q 441 1115 441 1133 q 417 1076 441 1096 q 357 1057 393 1057 q 297 1076 321 1057 q 274 1133 274 1096 q 297 1190 274 1171 q 357 1208 321 1208 q 417 1190 393 1208 q 441 1133 441 1171 z "},"×":{"ha":810,"x_min":100,"x_max":707,"o":"m 328 398 l 100 627 l 175 702 l 404 473 l 632 702 l 707 627 l 479 398 l 707 170 l 632 94 l 404 323 l 175 94 l 100 170 l 328 398 z "},"Ø":{"ha":1042,"x_min":64,"x_max":968,"o":"m 522 -11 q 261 66 372 -11 l 152 -76 l 64 -8 l 179 142 q 74 471 74 269 q 199 823 74 690 q 522 955 323 955 q 757 892 654 955 l 854 1020 l 942 952 l 844 823 q 968 471 968 688 q 843 119 968 252 q 522 -11 721 -11 m 210 471 q 285 216 210 317 q 522 103 370 103 q 758 216 673 103 q 832 470 832 315 q 758 727 832 626 q 522 841 673 841 q 285 727 369 841 q 210 471 210 626 z "},"Ù":{"ha":926,"x_min":104,"x_max":821,"o":"m 463 106 q 686 379 686 106 l 686 944 l 821 944 l 821 379 q 720 79 821 179 q 463 -11 629 -11 q 132 200 208 -11 q 104 379 104 274 l 104 944 l 240 944 l 240 379 q 463 106 240 106 m 239 1286 l 397 1286 l 555 1038 l 434 1038 l 239 1286 z "},"Ú":{"ha":926,"x_min":104,"x_max":821,"o":"m 463 106 q 686 379 686 106 l 686 944 l 821 944 l 821 379 q 720 79 821 179 q 463 -11 629 -11 q 132 200 208 -11 q 104 379 104 274 l 104 944 l 240 944 l 240 379 q 463 106 240 106 m 529 1286 l 688 1286 l 492 1038 l 372 1038 l 529 1286 z "},"Û":{"ha":926,"x_min":104,"x_max":821,"o":"m 463 106 q 686 379 686 106 l 686 944 l 821 944 l 821 379 q 720 79 821 179 q 463 -11 629 -11 q 132 200 208 -11 q 104 379 104 274 l 104 944 l 240 944 l 240 379 q 463 106 240 106 m 242 1183 l 462 1339 l 682 1183 l 682 1053 l 462 1198 l 242 1053 l 242 1183 z "},"Ü":{"ha":926,"x_min":104,"x_max":821,"o":"m 463 106 q 686 379 686 106 l 686 944 l 821 944 l 821 379 q 720 79 821 179 q 463 -11 629 -11 q 132 200 208 -11 q 104 379 104 274 l 104 944 l 240 944 l 240 379 q 463 106 240 106 m 699 1133 q 699 1115 699 1133 q 674 1076 699 1096 q 614 1057 650 1057 q 554 1076 578 1057 q 531 1133 531 1096 q 554 1190 531 1171 q 614 1208 578 1208 q 674 1190 650 1208 q 699 1133 699 1171 m 383 1133 q 383 1115 383 1133 q 359 1076 383 1096 q 298 1057 334 1057 q 239 1076 262 1057 q 216 1133 216 1096 q 239 1190 216 1171 q 298 1208 262 1208 q 359 1190 334 1208 q 383 1133 383 1171 z "},"Ý":{"ha":814,"x_min":0,"x_max":814,"o":"m 337 411 l 0 944 l 146 944 l 410 522 l 667 944 l 814 944 l 478 412 l 478 0 l 337 0 l 337 411 m 473 1286 l 632 1286 l 437 1038 l 316 1038 l 473 1286 z "},"Þ":{"ha":810,"x_min":115,"x_max":755,"o":"m 115 944 l 251 944 l 251 788 l 382 788 q 727 629 650 788 q 755 491 755 571 q 726 354 755 411 q 650 260 698 297 q 399 190 556 190 l 250 190 l 251 0 l 115 0 l 115 944 m 373 298 q 555 346 496 298 q 614 494 614 393 q 490 666 614 627 q 385 680 446 680 l 250 680 l 250 298 l 373 298 z "},"ß":{"ha":807,"x_min":106,"x_max":779,"o":"m 345 121 q 480 100 425 100 q 566 111 536 100 q 612 137 596 121 q 637 204 637 163 q 551 320 637 273 l 490 353 q 379 425 404 398 q 346 478 355 452 q 336 538 336 505 q 349 593 336 572 q 381 633 361 615 q 427 667 401 651 l 481 703 q 559 779 543 744 q 566 811 566 795 q 560 844 566 827 q 538 876 554 861 q 423 912 501 912 q 296 873 339 912 q 241 701 241 823 l 241 0 l 106 0 l 106 701 q 281 994 106 928 q 418 1016 341 1016 q 546 999 495 1016 q 629 954 597 982 q 693 815 693 899 q 600 647 693 713 l 541 606 q 491 571 510 585 q 472 543 472 556 q 474 523 472 530 q 482 508 476 515 q 533 471 495 492 l 597 433 q 722 345 692 379 q 779 204 779 283 q 711 57 779 115 q 486 -11 633 -11 q 345 1 432 -11 l 345 121 z "},"à":{"ha":810,"x_min":87,"x_max":698,"o":"m 137 125 q 125 144 137 125 q 101 216 114 163 q 87 352 87 268 q 124 507 87 436 q 218 623 160 578 q 500 711 332 711 q 632 707 587 711 q 698 700 632 707 l 698 0 l 576 0 l 570 81 q 446 0 530 26 q 381 -10 414 -10 q 315 -3 347 -10 q 250 19 282 3 q 189 61 218 35 q 137 125 159 87 m 562 600 q 476 606 519 606 q 384 590 433 606 q 300 543 335 575 q 229 336 229 475 q 290 141 229 204 q 403 94 337 94 q 543 156 488 94 q 562 184 556 172 l 562 600 m 239 1099 l 398 1099 l 555 850 l 435 850 l 239 1099 z "},"á":{"ha":810,"x_min":87,"x_max":718,"o":"m 137 125 q 125 144 137 125 q 101 216 114 163 q 87 352 87 268 q 124 507 87 436 q 218 623 160 578 q 500 711 332 711 q 632 707 587 711 q 698 700 632 707 l 698 0 l 576 0 l 570 81 q 446 0 530 26 q 381 -10 414 -10 q 315 -3 347 -10 q 250 19 282 3 q 189 61 218 35 q 137 125 159 87 m 562 600 q 476 606 519 606 q 384 590 433 606 q 300 543 335 575 q 229 336 229 475 q 290 141 229 204 q 403 94 337 94 q 543 156 488 94 q 562 184 556 172 l 562 600 m 559 1099 l 718 1099 l 522 850 l 401 850 l 559 1099 z "},"â":{"ha":810,"x_min":87,"x_max":698,"o":"m 137 125 q 125 144 137 125 q 101 216 114 163 q 87 352 87 268 q 124 507 87 436 q 218 623 160 578 q 500 711 332 711 q 632 707 587 711 q 698 700 632 707 l 698 0 l 576 0 l 570 81 q 446 0 530 26 q 381 -10 414 -10 q 315 -3 347 -10 q 250 19 282 3 q 189 61 218 35 q 137 125 159 87 m 562 600 q 476 606 519 606 q 384 590 433 606 q 300 543 335 575 q 229 336 229 475 q 290 141 229 204 q 403 94 337 94 q 543 156 488 94 q 562 184 556 172 l 562 600 m 241 959 l 461 1115 l 681 959 l 681 829 l 461 974 l 241 829 l 241 959 z "},"ã":{"ha":810,"x_min":87,"x_max":743,"o":"m 137 125 q 125 144 137 125 q 101 216 114 163 q 87 352 87 268 q 124 507 87 436 q 218 623 160 578 q 500 711 332 711 q 632 707 587 711 q 698 700 632 707 l 698 0 l 576 0 l 570 81 q 446 0 530 26 q 381 -10 414 -10 q 315 -3 347 -10 q 250 19 282 3 q 189 61 218 35 q 137 125 159 87 m 562 600 q 476 606 519 606 q 384 590 433 606 q 300 543 335 575 q 229 336 229 475 q 290 141 229 204 q 403 94 337 94 q 543 156 488 94 q 562 184 556 172 l 562 600 m 179 857 q 226 983 179 933 q 339 1034 272 1034 q 453 987 393 1034 l 510 944 q 579 911 551 911 q 624 930 607 911 q 640 984 640 948 l 743 984 q 696 857 743 907 q 583 807 650 807 q 441 872 522 807 l 412 895 q 343 929 372 929 q 299 911 315 929 q 282 857 282 892 l 179 857 z "},"ä":{"ha":810,"x_min":87,"x_max":706,"o":"m 137 125 q 125 144 137 125 q 101 216 114 163 q 87 352 87 268 q 124 507 87 436 q 218 623 160 578 q 500 711 332 711 q 632 707 587 711 q 698 700 632 707 l 698 0 l 576 0 l 570 81 q 446 0 530 26 q 381 -10 414 -10 q 315 -3 347 -10 q 250 19 282 3 q 189 61 218 35 q 137 125 159 87 m 562 600 q 476 606 519 606 q 384 590 433 606 q 300 543 335 575 q 229 336 229 475 q 290 141 229 204 q 403 94 337 94 q 543 156 488 94 q 562 184 556 172 l 562 600 m 706 900 q 706 881 706 900 q 682 843 706 863 q 621 823 657 823 q 562 843 585 823 q 538 900 538 863 q 562 956 538 937 q 621 975 585 975 q 682 956 657 975 q 706 900 706 937 m 391 900 q 391 881 391 900 q 366 843 391 863 q 306 823 342 823 q 247 843 270 823 q 223 900 223 863 q 247 956 223 937 q 306 975 270 975 q 366 956 342 975 q 391 900 391 937 z "},"å":{"ha":810,"x_min":87,"x_max":698,"o":"m 137 125 q 125 144 137 125 q 101 216 114 163 q 87 352 87 268 q 124 507 87 436 q 218 623 160 578 q 500 711 332 711 q 632 707 587 711 q 698 700 632 707 l 698 0 l 576 0 l 570 81 q 446 0 530 26 q 381 -10 414 -10 q 315 -3 347 -10 q 250 19 282 3 q 189 61 218 35 q 137 125 159 87 m 562 600 q 476 606 519 606 q 384 590 433 606 q 300 543 335 575 q 229 336 229 475 q 290 141 229 204 q 403 94 337 94 q 543 156 488 94 q 562 184 556 172 l 562 600 m 460 828 q 387 842 420 828 q 327 881 353 857 q 273 1010 273 933 q 327 1139 273 1086 q 460 1192 382 1192 q 593 1139 538 1192 q 648 1010 648 1085 q 593 881 648 934 q 460 828 537 828 m 460 910 q 527 939 499 910 q 554 999 554 968 q 547 1048 554 1029 q 526 1080 539 1066 q 460 1109 500 1109 q 393 1080 421 1109 q 366 1020 366 1051 q 373 970 366 988 q 393 939 380 952 q 460 910 421 910 z "},"æ":{"ha":1155,"x_min":62,"x_max":1093,"o":"m 861 -10 q 578 125 662 -10 q 468 24 534 58 q 302 -10 402 -10 q 148 39 218 -10 q 62 219 62 100 q 181 396 62 338 q 442 446 281 446 l 521 446 l 521 475 q 478 568 521 533 q 345 603 436 603 q 163 586 233 603 q 127 578 144 581 l 127 686 q 361 711 228 711 q 605 616 545 711 q 770 705 671 684 q 846 711 800 711 q 943 689 893 711 q 1025 627 992 667 q 1093 399 1093 545 l 1093 346 l 648 346 q 756 121 648 173 q 889 101 798 101 q 1055 122 981 101 l 1055 7 q 861 -10 981 -10 m 957 446 q 880 595 957 559 q 819 607 854 607 q 697 557 748 607 q 648 446 648 510 l 957 446 m 584 591 l 585 592 q 584 591 584 592 m 280 325 q 257 315 280 325 q 216 281 234 305 q 198 220 198 256 q 210 160 198 184 q 241 122 222 136 q 319 94 277 94 q 397 105 361 94 q 464 138 433 115 q 532 289 532 191 l 532 345 l 442 345 q 280 325 326 345 z "},"ç":{"ha":693,"x_min":74,"x_max":608,"o":"m 486 -186 q 410 -149 486 -149 l 329 -149 l 329 3 q 142 125 210 33 q 74 358 74 218 q 197 624 74 527 q 467 711 307 711 q 602 704 566 711 l 602 583 q 472 602 545 602 q 351 582 399 602 q 273 528 303 562 q 215 358 215 463 q 343 121 215 180 q 432 100 389 100 q 499 102 475 100 q 543 108 522 104 q 608 123 588 115 l 608 2 q 453 -11 567 -11 l 427 -10 l 427 -62 l 450 -62 q 587 -129 555 -62 q 597 -186 597 -152 q 581 -250 597 -220 q 534 -301 564 -280 q 387 -345 474 -345 q 318 -340 341 -345 l 318 -245 q 377 -252 349 -252 q 486 -186 486 -252 z "},"è":{"ha":695,"x_min":48,"x_max":652,"o":"m 432 -11 q 48 364 48 -11 q 155 623 48 526 q 373 711 250 711 q 582 621 507 711 q 652 398 652 538 l 652 345 l 189 345 q 346 111 189 153 q 461 100 383 100 q 613 121 538 100 l 613 7 q 432 -11 538 -11 m 516 445 q 480 555 516 510 q 364 606 438 606 q 237 557 286 606 q 193 445 193 511 l 516 445 m 176 1099 l 335 1099 l 492 850 l 372 850 l 176 1099 z "},"é":{"ha":695,"x_min":48,"x_max":655,"o":"m 432 -11 q 48 364 48 -11 q 155 623 48 526 q 373 711 250 711 q 582 621 507 711 q 652 398 652 538 l 652 345 l 189 345 q 346 111 189 153 q 461 100 383 100 q 613 121 538 100 l 613 7 q 432 -11 538 -11 m 516 445 q 480 555 516 510 q 364 606 438 606 q 237 557 286 606 q 193 445 193 511 l 516 445 m 496 1099 l 655 1099 l 460 850 l 339 850 l 496 1099 z "},"ê":{"ha":695,"x_min":48,"x_max":652,"o":"m 432 -11 q 48 364 48 -11 q 155 623 48 526 q 373 711 250 711 q 582 621 507 711 q 652 398 652 538 l 652 345 l 189 345 q 346 111 189 153 q 461 100 383 100 q 613 121 538 100 l 613 7 q 432 -11 538 -11 m 516 445 q 480 555 516 510 q 364 606 438 606 q 237 557 286 606 q 193 445 193 511 l 516 445 m 178 959 l 398 1115 l 618 959 l 618 829 l 398 974 l 178 829 l 178 959 z "},"ë":{"ha":695,"x_min":48,"x_max":652,"o":"m 432 -11 q 48 364 48 -11 q 155 623 48 526 q 373 711 250 711 q 582 621 507 711 q 652 398 652 538 l 652 345 l 189 345 q 346 111 189 153 q 461 100 383 100 q 613 121 538 100 l 613 7 q 432 -11 538 -11 m 516 445 q 480 555 516 510 q 364 606 438 606 q 237 557 286 606 q 193 445 193 511 l 516 445 m 643 900 q 643 881 643 900 q 618 843 643 863 q 558 823 594 823 q 499 843 522 823 q 475 900 475 863 q 499 956 475 937 q 558 975 522 975 q 618 956 594 975 q 643 900 643 937 m 328 900 q 328 881 328 900 q 303 843 328 863 q 243 823 279 823 q 183 843 207 823 q 160 900 160 863 q 183 956 160 937 q 243 975 207 975 q 303 956 279 975 q 328 900 328 937 z "},"ì":{"ha":345,"x_min":-47,"x_max":269,"o":"m 104 700 l 240 700 l 240 0 l 104 0 l 104 700 m -47 1099 l 111 1099 l 269 850 l 148 850 l -47 1099 z "},"í":{"ha":345,"x_min":104,"x_max":431,"o":"m 104 700 l 240 700 l 240 0 l 104 0 l 104 700 m 272 1099 l 431 1099 l 235 850 l 115 850 l 272 1099 z "},"î":{"ha":345,"x_min":-45,"x_max":394,"o":"m 104 700 l 240 700 l 240 0 l 104 0 l 104 700 m -45 959 l 174 1115 l 394 959 l 394 829 l 174 974 l -45 829 l -45 959 z "},"ï":{"ha":345,"x_min":-64,"x_max":419,"o":"m 104 700 l 240 700 l 240 0 l 104 0 l 104 700 m 419 900 q 419 881 419 900 q 395 843 419 863 q 334 823 370 823 q 275 843 298 823 q 252 900 252 863 q 275 956 252 937 q 334 975 298 975 q 395 956 370 975 q 419 900 419 937 m 104 900 q 104 881 104 900 q 79 843 104 863 q 19 823 55 823 q -40 843 -17 823 q -64 900 -64 863 q -40 956 -64 937 q 19 975 -17 975 q 79 956 55 975 q 104 900 104 937 z "},"ð":{"ha":812,"x_min":68,"x_max":748,"o":"m 581 859 q 748 384 748 671 q 654 100 748 210 q 408 -11 558 -11 q 170 74 266 -11 q 68 311 68 164 q 170 545 68 456 q 395 627 264 627 q 566 583 498 627 q 608 541 591 566 l 611 541 q 466 810 585 693 l 283 732 l 252 830 l 376 884 q 199 979 300 937 l 319 1038 q 498 936 425 995 l 681 1014 l 713 916 l 581 859 m 209 312 q 220 232 209 271 q 256 162 232 193 q 408 94 309 94 q 566 168 510 94 q 612 311 612 229 q 559 456 612 397 q 408 518 501 518 q 258 456 311 518 q 209 312 209 399 z "},"ñ":{"ha":810,"x_min":105,"x_max":713,"o":"m 420 594 q 241 526 319 594 l 241 0 l 105 0 l 105 700 l 231 700 l 240 624 q 469 711 351 711 q 652 636 593 711 q 713 382 713 557 l 713 0 l 577 0 l 577 382 q 486 583 577 551 q 420 594 457 594 m 125 857 q 172 983 125 933 q 285 1034 218 1034 q 399 987 339 1034 l 456 944 q 525 911 497 911 q 569 930 553 911 q 586 984 586 948 l 689 984 q 642 857 689 907 q 529 807 596 807 q 387 872 467 807 l 358 895 q 289 929 317 929 q 244 911 261 929 q 228 857 228 892 l 125 857 z "},"ò":{"ha":810,"x_min":60,"x_max":748,"o":"m 60 351 q 165 618 60 516 q 408 714 263 714 q 646 618 551 714 q 748 351 748 517 q 646 85 748 186 q 408 -11 549 -11 q 165 85 264 -11 q 60 351 60 186 m 201 351 q 312 115 201 178 q 406 94 351 94 q 499 116 461 94 q 562 174 537 138 q 607 351 607 243 q 498 587 607 524 q 407 610 460 610 q 315 588 354 610 q 251 530 276 566 q 201 351 201 459 m 182 1099 l 340 1099 l 498 850 l 377 850 l 182 1099 z "},"ó":{"ha":810,"x_min":60,"x_max":748,"o":"m 60 351 q 165 618 60 516 q 408 714 263 714 q 646 618 551 714 q 748 351 748 517 q 646 85 748 186 q 408 -11 549 -11 q 165 85 264 -11 q 60 351 60 186 m 201 351 q 312 115 201 178 q 406 94 351 94 q 499 116 461 94 q 562 174 537 138 q 607 351 607 243 q 498 587 607 524 q 407 610 460 610 q 315 588 354 610 q 251 530 276 566 q 201 351 201 459 m 502 1099 l 661 1099 l 465 850 l 345 850 l 502 1099 z "},"ô":{"ha":810,"x_min":60,"x_max":748,"o":"m 60 351 q 165 618 60 516 q 408 714 263 714 q 646 618 551 714 q 748 351 748 517 q 646 85 748 186 q 408 -11 549 -11 q 165 85 264 -11 q 60 351 60 186 m 201 351 q 312 115 201 178 q 406 94 351 94 q 499 116 461 94 q 562 174 537 138 q 607 351 607 243 q 498 587 607 524 q 407 610 460 610 q 315 588 354 610 q 251 530 276 566 q 201 351 201 459 m 184 959 l 404 1115 l 623 959 l 623 829 l 404 974 l 184 829 l 184 959 z "},"õ":{"ha":810,"x_min":60,"x_max":748,"o":"m 60 351 q 165 618 60 516 q 408 714 263 714 q 646 618 551 714 q 748 351 748 517 q 646 85 748 186 q 408 -11 549 -11 q 165 85 264 -11 q 60 351 60 186 m 201 351 q 312 115 201 178 q 406 94 351 94 q 499 116 461 94 q 562 174 537 138 q 607 351 607 243 q 498 587 607 524 q 407 610 460 610 q 315 588 354 610 q 251 530 276 566 q 201 351 201 459 m 121 857 q 168 983 121 933 q 281 1034 214 1034 q 395 987 336 1034 l 452 944 q 522 911 494 911 q 566 930 549 911 q 583 984 583 948 l 686 984 q 639 857 686 907 q 526 807 593 807 q 383 872 464 807 l 355 895 q 286 929 314 929 q 241 911 258 929 q 224 857 224 892 l 121 857 z "},"ö":{"ha":810,"x_min":60,"x_max":748,"o":"m 60 351 q 165 618 60 516 q 408 714 263 714 q 646 618 551 714 q 748 351 748 517 q 646 85 748 186 q 408 -11 549 -11 q 165 85 264 -11 q 60 351 60 186 m 201 351 q 312 115 201 178 q 406 94 351 94 q 499 116 461 94 q 562 174 537 138 q 607 351 607 243 q 498 587 607 524 q 407 610 460 610 q 315 588 354 610 q 251 530 276 566 q 201 351 201 459 m 648 900 q 648 881 648 900 q 624 843 648 863 q 564 823 600 823 q 504 843 528 823 q 481 900 481 863 q 504 956 481 937 q 564 975 528 975 q 624 956 600 975 q 648 900 648 937 m 333 900 q 333 881 333 900 q 309 843 333 863 q 248 823 284 823 q 189 843 212 823 q 165 900 165 863 q 189 956 165 937 q 248 975 212 975 q 309 956 284 975 q 333 900 333 937 z "},"÷":{"ha":810,"x_min":86,"x_max":726,"o":"m 86 456 l 726 456 l 726 352 l 86 352 l 86 456 m 403 571 q 383 571 403 571 q 335 593 362 571 q 309 657 309 615 q 335 721 309 699 q 403 743 362 743 q 471 721 444 743 q 498 657 498 699 q 471 593 498 615 q 403 571 444 571 m 403 64 q 383 64 403 64 q 335 86 362 64 q 309 150 309 109 q 335 214 309 192 q 403 237 362 237 q 471 214 444 237 q 498 150 498 192 q 471 86 498 109 q 403 64 444 64 z "},"ø":{"ha":810,"x_min":52,"x_max":762,"o":"m 393 -11 q 226 38 309 -11 l 138 -71 l 52 0 l 141 111 q 60 351 60 208 q 165 618 60 516 q 408 714 263 714 q 589 663 507 714 l 675 770 l 762 700 l 672 589 q 748 351 748 492 q 646 85 748 186 q 393 -11 549 -11 m 201 351 q 312 115 201 178 q 406 94 351 94 q 499 116 461 94 q 562 174 537 138 q 607 351 607 243 q 498 587 607 524 q 407 610 460 610 q 315 588 354 610 q 251 530 276 566 q 201 351 201 459 z "},"ù":{"ha":810,"x_min":103,"x_max":697,"o":"m 562 172 l 562 700 l 697 700 l 697 0 l 575 0 l 563 74 q 341 -11 463 -11 q 159 60 212 -11 q 103 311 103 133 l 103 700 l 239 700 l 239 317 q 275 146 239 192 q 396 106 307 106 q 562 172 486 106 m 182 1099 l 341 1099 l 498 850 l 378 850 l 182 1099 z "},"ú":{"ha":810,"x_min":103,"x_max":697,"o":"m 562 172 l 562 700 l 697 700 l 697 0 l 575 0 l 563 74 q 341 -11 463 -11 q 159 60 212 -11 q 103 311 103 133 l 103 700 l 239 700 l 239 317 q 275 146 239 192 q 396 106 307 106 q 562 172 486 106 m 503 1099 l 661 1099 l 466 850 l 345 850 l 503 1099 z "},"û":{"ha":810,"x_min":103,"x_max":697,"o":"m 562 172 l 562 700 l 697 700 l 697 0 l 575 0 l 563 74 q 341 -11 463 -11 q 159 60 212 -11 q 103 311 103 133 l 103 700 l 239 700 l 239 317 q 275 146 239 192 q 396 106 307 106 q 562 172 486 106 m 184 959 l 404 1115 l 624 959 l 624 829 l 404 974 l 184 829 l 184 959 z "},"ü":{"ha":810,"x_min":103,"x_max":697,"o":"m 562 172 l 562 700 l 697 700 l 697 0 l 575 0 l 563 74 q 341 -11 463 -11 q 159 60 212 -11 q 103 311 103 133 l 103 700 l 239 700 l 239 317 q 275 146 239 192 q 396 106 307 106 q 562 172 486 106 m 649 900 q 649 881 649 900 q 625 843 649 863 q 564 823 600 823 q 505 843 528 823 q 481 900 481 863 q 505 956 481 937 q 564 975 528 975 q 625 956 600 975 q 649 900 649 937 m 334 900 q 334 881 334 900 q 309 843 334 863 q 249 823 285 823 q 190 843 213 823 q 166 900 166 863 q 190 956 166 937 q 249 975 213 975 q 309 956 285 975 q 334 900 334 937 z "},"ý":{"ha":695,"x_min":35,"x_max":705,"o":"m 76 -174 q 126 -179 94 -179 q 191 -166 157 -179 q 248 -132 224 -154 q 322 -16 289 -95 l 35 700 l 179 700 l 381 142 l 562 700 l 705 700 l 418 -86 q 328 -221 385 -174 q 125 -282 252 -282 q 101 -281 113 -282 l 76 -278 l 76 -174 m 479 1099 l 638 1099 l 443 850 l 322 850 l 479 1099 z "},"þ":{"ha":808,"x_min":114,"x_max":726,"o":"m 251 633 q 437 713 325 713 q 625 642 545 713 q 726 367 726 551 q 594 79 726 180 q 313 -10 481 -10 l 279 -10 q 250 -9 263 -10 l 250 -261 l 114 -261 l 114 1016 l 251 1016 l 251 633 m 250 100 q 324 94 269 94 q 429 110 380 94 q 512 159 477 125 q 585 367 585 229 q 486 590 585 536 q 415 608 452 608 q 351 599 378 608 q 303 575 323 589 q 250 519 264 549 l 250 100 z "},"ÿ":{"ha":695,"x_min":35,"x_max":705,"o":"m 76 -174 q 126 -179 94 -179 q 191 -166 157 -179 q 248 -132 224 -154 q 322 -16 289 -95 l 35 700 l 179 700 l 381 142 l 562 700 l 705 700 l 418 -86 q 328 -221 385 -174 q 125 -282 252 -282 q 101 -281 113 -282 l 76 -278 l 76 -174 m 626 900 q 626 881 626 900 q 602 843 626 863 q 541 823 577 823 q 482 843 505 823 q 458 900 458 863 q 482 956 458 937 q 541 975 505 975 q 602 956 577 975 q 626 900 626 937 m 311 900 q 311 881 311 900 q 286 843 311 863 q 226 823 262 823 q 166 843 190 823 q 143 900 143 863 q 166 956 143 937 q 226 975 190 975 q 286 956 262 975 q 311 900 311 937 z "},"Ā":{"ha":926,"x_min":18,"x_max":907,"o":"m 416 944 l 509 944 l 907 0 l 766 0 l 671 237 l 252 237 l 157 0 l 18 0 l 416 944 m 627 346 l 462 760 l 296 346 l 627 346 m 277 1141 l 645 1141 l 645 1038 l 277 1038 l 277 1141 z "},"ā":{"ha":810,"x_min":87,"x_max":698,"o":"m 137 125 q 125 144 137 125 q 101 216 114 163 q 87 352 87 268 q 124 507 87 436 q 218 623 160 578 q 500 711 332 711 q 632 707 587 711 q 698 700 632 707 l 698 0 l 576 0 l 570 81 q 446 0 530 26 q 381 -10 414 -10 q 315 -3 347 -10 q 250 19 282 3 q 189 61 218 35 q 137 125 159 87 m 562 600 q 476 606 519 606 q 384 590 433 606 q 300 543 335 575 q 229 336 229 475 q 290 141 229 204 q 403 94 337 94 q 543 156 488 94 q 562 184 556 172 l 562 600 m 277 944 l 645 944 l 645 841 l 277 841 l 277 944 z "},"Ă":{"ha":926,"x_min":18,"x_max":907,"o":"m 416 944 l 509 944 l 907 0 l 766 0 l 671 237 l 252 237 l 157 0 l 18 0 l 416 944 m 627 346 l 462 760 l 296 346 l 627 346 m 461 1038 q 301 1103 367 1038 q 234 1259 234 1168 l 342 1259 q 377 1170 342 1204 q 461 1135 412 1135 q 545 1170 511 1135 q 580 1259 580 1204 l 688 1259 q 621 1103 688 1168 q 461 1038 555 1038 z "},"ă":{"ha":810,"x_min":87,"x_max":698,"o":"m 137 125 q 125 144 137 125 q 101 216 114 163 q 87 352 87 268 q 124 507 87 436 q 218 623 160 578 q 500 711 332 711 q 632 707 587 711 q 698 700 632 707 l 698 0 l 576 0 l 570 81 q 446 0 530 26 q 381 -10 414 -10 q 315 -3 347 -10 q 250 19 282 3 q 189 61 218 35 q 137 125 159 87 m 562 600 q 476 606 519 606 q 384 590 433 606 q 300 543 335 575 q 229 336 229 475 q 290 141 229 204 q 403 94 337 94 q 543 156 488 94 q 562 184 556 172 l 562 600 m 461 814 q 301 879 367 814 q 234 1036 234 944 l 342 1036 q 377 946 342 981 q 461 911 412 911 q 545 946 511 911 q 580 1036 580 981 l 688 1036 q 621 879 688 944 q 461 814 555 814 z "},"Ą":{"ha":926,"x_min":18,"x_max":907,"o":"m 624 -183 q 760 17 624 -68 l 671 237 l 252 237 l 157 0 l 18 0 l 416 944 l 509 944 l 907 0 q 739 -164 739 -75 q 761 -221 739 -198 q 826 -243 784 -243 q 899 -231 869 -243 l 899 -331 q 810 -346 862 -346 q 722 -331 758 -346 q 664 -293 686 -316 q 624 -183 624 -250 m 627 346 l 462 760 l 296 346 l 627 346 z "},"ą":{"ha":810,"x_min":87,"x_max":698,"o":"m 690 -331 q 601 -346 653 -346 q 513 -331 549 -346 q 455 -293 477 -316 q 415 -183 415 -250 q 496 -30 415 -103 q 574 24 527 -3 l 570 81 q 446 0 530 26 q 381 -10 414 -10 q 315 -3 347 -10 q 250 19 282 3 q 189 61 218 35 q 137 125 159 87 q 87 322 87 208 q 124 507 87 436 q 218 623 160 578 q 500 711 332 711 q 632 707 587 711 l 698 700 l 698 0 q 530 -164 530 -75 q 552 -221 530 -198 q 617 -243 575 -243 q 690 -231 660 -243 l 690 -331 m 562 600 q 476 606 519 606 q 384 590 433 606 q 300 543 335 575 q 229 336 229 475 q 290 141 229 204 q 403 94 337 94 q 543 156 488 94 q 562 184 556 172 l 562 600 z "},"Ć":{"ha":810,"x_min":62,"x_max":746,"o":"m 746 5 q 565 -7 679 -7 q 360 24 452 -7 q 203 117 269 56 q 62 481 62 248 q 135 746 62 634 q 437 939 233 897 q 586 951 499 951 q 724 941 672 951 l 724 812 q 577 827 677 827 q 409 802 478 827 q 294 732 340 778 q 203 481 203 644 q 293 222 203 318 q 572 119 390 119 q 746 136 678 119 l 746 5 m 569 1286 l 728 1286 l 532 1038 l 412 1038 l 569 1286 z "},"ć":{"ha":693,"x_min":74,"x_max":672,"o":"m 608 2 q 467 -11 567 -11 q 296 14 366 -11 q 176 85 226 38 q 74 358 74 184 q 197 624 74 527 q 467 711 307 711 q 602 704 566 711 l 602 583 q 472 602 545 602 q 351 582 399 602 q 273 528 303 562 q 215 358 215 463 q 343 121 215 180 q 432 100 389 100 q 499 102 475 100 q 543 108 522 104 q 608 123 588 115 l 608 2 m 513 1099 l 672 1099 l 477 850 l 356 850 l 513 1099 z "},"Ĉ":{"ha":810,"x_min":62,"x_max":746,"o":"m 746 5 q 565 -7 679 -7 q 360 24 452 -7 q 203 117 269 56 q 62 481 62 248 q 135 746 62 634 q 437 939 233 897 q 586 951 499 951 q 724 941 672 951 l 724 812 q 577 827 677 827 q 409 802 478 827 q 294 732 340 778 q 203 481 203 644 q 293 222 203 318 q 572 119 390 119 q 746 136 678 119 l 746 5 m 282 1183 l 502 1339 l 722 1183 l 722 1053 l 502 1198 l 282 1053 l 282 1183 z "},"ĉ":{"ha":693,"x_min":74,"x_max":635,"o":"m 608 2 q 467 -11 567 -11 q 296 14 366 -11 q 176 85 226 38 q 74 358 74 184 q 197 624 74 527 q 467 711 307 711 q 602 704 566 711 l 602 583 q 472 602 545 602 q 351 582 399 602 q 273 528 303 562 q 215 358 215 463 q 343 121 215 180 q 432 100 389 100 q 499 102 475 100 q 543 108 522 104 q 608 123 588 115 l 608 2 m 196 959 l 416 1115 l 635 959 l 635 829 l 416 974 l 196 829 l 196 959 z "},"Ċ":{"ha":810,"x_min":62,"x_max":746,"o":"m 746 5 q 565 -7 679 -7 q 360 24 452 -7 q 203 117 269 56 q 62 481 62 248 q 135 746 62 634 q 437 939 233 897 q 586 951 499 951 q 724 941 672 951 l 724 812 q 577 827 677 827 q 409 802 478 827 q 294 732 340 778 q 203 481 203 644 q 293 222 203 318 q 572 119 390 119 q 746 136 678 119 l 746 5 m 587 1133 q 587 1115 587 1133 q 562 1076 587 1096 q 502 1057 538 1057 q 443 1076 466 1057 q 419 1133 419 1096 q 443 1190 419 1171 q 502 1208 466 1208 q 562 1190 538 1208 q 587 1133 587 1171 z "},"ċ":{"ha":693,"x_min":74,"x_max":608,"o":"m 608 2 q 467 -11 567 -11 q 296 14 366 -11 q 176 85 226 38 q 74 358 74 184 q 197 624 74 527 q 467 711 307 711 q 602 704 566 711 l 602 583 q 472 602 545 602 q 351 582 399 602 q 273 528 303 562 q 215 358 215 463 q 343 121 215 180 q 432 100 389 100 q 499 102 475 100 q 543 108 522 104 q 608 123 588 115 l 608 2 m 502 900 q 502 881 502 900 q 477 843 502 863 q 417 823 453 823 q 358 843 381 823 q 334 900 334 863 q 358 956 334 937 q 417 975 381 975 q 477 956 453 975 q 502 900 502 937 z "},"Č":{"ha":810,"x_min":62,"x_max":746,"o":"m 746 5 q 565 -7 679 -7 q 360 24 452 -7 q 203 117 269 56 q 62 481 62 248 q 135 746 62 634 q 437 939 233 897 q 586 951 499 951 q 724 941 672 951 l 724 812 q 577 827 677 827 q 409 802 478 827 q 294 732 340 778 q 203 481 203 644 q 293 222 203 318 q 572 119 390 119 q 746 136 678 119 l 746 5 m 282 1209 l 282 1339 l 502 1194 l 722 1339 l 722 1209 l 502 1053 l 282 1209 z "},"č":{"ha":693,"x_min":74,"x_max":635,"o":"m 608 2 q 467 -11 567 -11 q 296 14 366 -11 q 176 85 226 38 q 74 358 74 184 q 197 624 74 527 q 467 711 307 711 q 602 704 566 711 l 602 583 q 472 602 545 602 q 351 582 399 602 q 273 528 303 562 q 215 358 215 463 q 343 121 215 180 q 432 100 389 100 q 499 102 475 100 q 543 108 522 104 q 608 123 588 115 l 608 2 m 196 985 l 196 1115 l 416 970 l 635 1115 l 635 985 l 416 829 l 196 985 z "},"Ď":{"ha":926,"x_min":104,"x_max":848,"o":"m 104 943 l 334 943 q 701 829 566 943 q 848 471 848 706 q 705 113 848 235 q 340 0 572 0 l 104 0 l 104 943 m 709 470 q 325 834 709 834 l 240 834 l 240 109 l 332 109 q 689 320 625 109 q 709 470 709 387 m 213 1209 l 213 1339 l 433 1194 l 652 1339 l 652 1209 l 433 1053 l 213 1209 z "},"ď":{"ha":926,"x_min":80,"x_max":965,"o":"m 772 707 q 845 792 836 707 q 848 859 848 821 l 848 973 l 965 973 l 965 860 q 928 667 965 724 q 772 601 885 601 l 772 707 m 211 623 q 241 646 211 623 q 343 690 270 669 q 472 711 417 711 q 557 708 527 711 l 557 1009 l 692 1009 l 692 0 l 570 0 l 565 81 q 439 -1 524 26 q 373 -11 407 -11 q 307 -4 340 -11 q 242 19 275 3 q 181 61 210 35 q 129 125 152 87 q 80 322 80 208 q 116 507 80 436 q 211 623 153 578 m 293 543 q 276 526 293 543 q 240 459 258 510 q 221 335 221 408 q 239 215 221 262 q 283 141 256 168 q 395 94 330 94 q 536 156 480 94 q 556 184 550 172 l 556 601 l 543 602 q 468 606 511 606 q 376 591 425 606 q 293 543 328 576 z "},"Đ":{"ha":926,"x_min":20,"x_max":848,"o":"m 104 461 l 20 461 l 20 559 l 104 559 l 104 943 l 334 943 q 701 829 566 943 q 848 471 848 706 q 705 113 848 235 q 340 0 572 0 l 104 0 l 104 461 m 709 470 q 325 834 709 834 l 240 834 l 240 559 l 481 559 l 481 461 l 240 461 l 240 109 l 332 109 q 689 320 625 109 q 709 470 709 387 z "},"đ":{"ha":810,"x_min":80,"x_max":786,"o":"m 129 125 q 118 144 129 125 q 93 216 106 163 q 80 352 80 268 q 116 507 80 436 q 212 624 153 578 q 492 713 325 713 l 526 713 q 557 712 543 713 l 555 797 l 341 797 l 341 889 l 555 889 l 555 977 l 690 977 l 690 889 l 786 889 l 786 797 l 690 797 l 690 0 l 568 0 l 564 81 q 439 0 523 26 q 373 -10 407 -10 q 307 -3 340 -10 q 242 19 275 3 q 181 61 210 35 q 129 125 152 87 m 555 603 q 468 608 511 608 q 376 593 425 608 q 293 544 328 577 q 221 336 221 475 q 283 141 221 204 q 395 94 330 94 q 535 156 480 94 q 555 184 549 172 l 555 603 z "},"Ē":{"ha":810,"x_min":104,"x_max":714,"o":"m 104 944 l 714 944 l 714 826 l 240 826 l 240 548 l 599 548 l 599 434 l 240 434 l 240 119 l 714 119 l 714 0 l 104 0 l 104 944 m 233 1141 l 601 1141 l 601 1038 l 233 1038 l 233 1141 z "},"ē":{"ha":695,"x_min":48,"x_max":652,"o":"m 432 -11 q 48 364 48 -11 q 155 623 48 526 q 373 711 250 711 q 582 621 507 711 q 652 398 652 538 l 652 345 l 189 345 q 346 111 189 153 q 461 100 383 100 q 613 121 538 100 l 613 7 q 432 -11 538 -11 m 516 445 q 480 555 516 510 q 364 606 438 606 q 237 557 286 606 q 193 445 193 511 l 516 445 m 214 944 l 582 944 l 582 841 l 214 841 l 214 944 z "},"Ĕ":{"ha":810,"x_min":104,"x_max":714,"o":"m 104 944 l 714 944 l 714 826 l 240 826 l 240 548 l 599 548 l 599 434 l 240 434 l 240 119 l 714 119 l 714 0 l 104 0 l 104 944 m 417 1038 q 257 1103 323 1038 q 190 1259 190 1168 l 298 1259 q 333 1170 298 1204 q 417 1135 368 1135 q 501 1170 467 1135 q 536 1259 536 1204 l 644 1259 q 577 1103 644 1168 q 417 1038 511 1038 z "},"ĕ":{"ha":695,"x_min":48,"x_max":652,"o":"m 432 -11 q 48 364 48 -11 q 155 623 48 526 q 373 711 250 711 q 582 621 507 711 q 652 398 652 538 l 652 345 l 189 345 q 346 111 189 153 q 461 100 383 100 q 613 121 538 100 l 613 7 q 432 -11 538 -11 m 516 445 q 480 555 516 510 q 364 606 438 606 q 237 557 286 606 q 193 445 193 511 l 516 445 m 398 814 q 238 879 304 814 q 171 1036 171 944 l 279 1036 q 314 946 279 981 q 398 911 349 911 q 482 946 448 911 q 517 1036 517 981 l 625 1036 q 558 879 625 944 q 398 814 492 814 z "},"Ė":{"ha":810,"x_min":104,"x_max":714,"o":"m 104 944 l 714 944 l 714 826 l 240 826 l 240 548 l 599 548 l 599 434 l 240 434 l 240 119 l 714 119 l 714 0 l 104 0 l 104 944 m 501 1133 q 501 1115 501 1133 q 477 1076 501 1096 q 416 1057 452 1057 q 357 1076 380 1057 q 334 1133 334 1096 q 357 1190 334 1171 q 416 1208 380 1208 q 477 1190 452 1208 q 501 1133 501 1171 z "},"ė":{"ha":695,"x_min":48,"x_max":652,"o":"m 432 -11 q 48 364 48 -11 q 155 623 48 526 q 373 711 250 711 q 582 621 507 711 q 652 398 652 538 l 652 345 l 189 345 q 346 111 189 153 q 461 100 383 100 q 613 121 538 100 l 613 7 q 432 -11 538 -11 m 516 445 q 480 555 516 510 q 364 606 438 606 q 237 557 286 606 q 193 445 193 511 l 516 445 m 484 900 q 484 881 484 900 q 460 843 484 863 q 399 823 435 823 q 340 843 363 823 q 317 900 317 863 q 340 956 317 937 q 399 975 363 975 q 460 956 435 975 q 484 900 484 937 z "},"Ę":{"ha":810,"x_min":104,"x_max":714,"o":"m 430 -183 q 545 0 430 -81 l 104 0 l 104 944 l 714 944 l 714 826 l 240 826 l 240 548 l 599 548 l 599 434 l 240 434 l 240 119 l 714 119 l 714 0 q 545 -164 545 -75 q 567 -221 545 -198 q 632 -243 590 -243 q 705 -231 675 -243 l 705 -331 q 616 -346 668 -346 q 528 -331 564 -346 q 470 -293 492 -316 q 430 -183 430 -250 z "},"ę":{"ha":695,"x_min":48,"x_max":652,"o":"m 430 -11 q 48 364 48 -9 q 155 623 48 526 q 373 711 250 711 q 582 621 507 711 q 652 398 652 538 l 652 345 l 189 345 q 346 111 189 153 q 461 100 383 100 q 613 121 538 100 l 613 7 q 588 -5 612 7 q 530 -39 563 -17 q 479 -83 498 -61 q 444 -159 444 -121 q 466 -221 444 -198 q 531 -243 489 -243 q 604 -231 574 -243 l 604 -331 q 515 -346 567 -346 q 427 -331 463 -346 q 369 -293 391 -316 q 329 -183 329 -250 q 430 -11 329 -88 m 516 445 q 480 555 516 510 q 364 606 438 606 q 237 557 286 606 q 193 445 193 511 l 516 445 z "},"Ě":{"ha":810,"x_min":104,"x_max":714,"o":"m 104 944 l 714 944 l 714 826 l 240 826 l 240 548 l 599 548 l 599 434 l 240 434 l 240 119 l 714 119 l 714 0 l 104 0 l 104 944 m 197 1209 l 197 1339 l 416 1194 l 636 1339 l 636 1209 l 416 1053 l 197 1209 z "},"ě":{"ha":695,"x_min":48,"x_max":652,"o":"m 432 -11 q 48 364 48 -11 q 155 623 48 526 q 373 711 250 711 q 582 621 507 711 q 652 398 652 538 l 652 345 l 189 345 q 346 111 189 153 q 461 100 383 100 q 613 121 538 100 l 613 7 q 432 -11 538 -11 m 516 445 q 480 555 516 510 q 364 606 438 606 q 237 557 286 606 q 193 445 193 511 l 516 445 m 178 985 l 178 1115 l 398 970 l 618 1115 l 618 985 l 398 829 l 178 985 z "},"Ĝ":{"ha":926,"x_min":90,"x_max":812,"o":"m 812 9 q 607 -11 734 -11 q 388 21 479 -11 q 231 115 296 53 q 90 481 90 247 q 163 746 90 635 q 467 939 262 897 q 622 951 530 951 q 780 942 713 951 l 780 812 q 613 827 722 827 q 436 802 505 827 q 321 732 367 778 q 231 481 231 644 q 320 218 231 317 q 599 110 418 110 q 677 113 641 110 l 677 461 l 812 461 l 812 9 m 279 1183 l 498 1339 l 718 1183 l 718 1053 l 498 1198 l 279 1053 l 279 1183 z "},"ĝ":{"ha":810,"x_min":58,"x_max":692,"o":"m 502 -267 q 350 -282 443 -282 q 215 -269 258 -282 l 215 -148 q 346 -171 269 -171 q 460 -161 424 -172 q 518 -125 497 -150 q 556 34 556 -81 l 556 70 q 420 -2 505 18 q 353 -10 387 -10 q 287 -3 319 -10 q 222 21 254 5 q 161 65 191 38 q 110 132 132 92 q 60 345 60 218 q 127 551 58 463 q 292 671 187 629 q 497 711 387 711 q 692 700 608 711 l 692 34 q 502 -267 692 -220 m 556 601 q 471 606 513 606 q 376 591 429 606 q 285 543 324 575 q 199 345 199 473 q 266 142 199 206 q 389 94 316 94 q 536 156 476 94 q 556 184 550 172 l 556 601 m 187 959 l 407 1115 l 627 959 l 627 829 l 407 974 l 187 829 l 187 959 z "},"Ğ":{"ha":926,"x_min":90,"x_max":812,"o":"m 812 9 q 607 -11 734 -11 q 388 21 479 -11 q 231 115 296 53 q 90 481 90 247 q 163 746 90 635 q 467 939 262 897 q 622 951 530 951 q 780 942 713 951 l 780 812 q 613 827 722 827 q 436 802 505 827 q 321 732 367 778 q 231 481 231 644 q 320 218 231 317 q 599 110 418 110 q 677 113 641 110 l 677 461 l 812 461 l 812 9 m 499 1038 q 339 1103 405 1038 q 272 1259 272 1168 l 380 1259 q 415 1170 380 1204 q 499 1135 450 1135 q 583 1170 549 1135 q 618 1259 618 1204 l 726 1259 q 659 1103 726 1168 q 499 1038 593 1038 z "},"ğ":{"ha":810,"x_min":58,"x_max":692,"o":"m 502 -267 q 350 -282 443 -282 q 215 -269 258 -282 l 215 -148 q 346 -171 269 -171 q 460 -161 424 -172 q 518 -125 497 -150 q 556 34 556 -81 l 556 70 q 420 -2 505 18 q 353 -10 387 -10 q 287 -3 319 -10 q 222 21 254 5 q 161 65 191 38 q 110 132 132 92 q 60 345 60 218 q 127 551 58 463 q 292 671 187 629 q 497 711 387 711 q 692 700 608 711 l 692 34 q 502 -267 692 -220 m 556 601 q 471 606 513 606 q 376 591 429 606 q 285 543 324 575 q 199 345 199 473 q 266 142 199 206 q 389 94 316 94 q 536 156 476 94 q 556 184 550 172 l 556 601 m 407 814 q 247 879 313 814 q 180 1036 180 944 l 288 1036 q 323 946 288 981 q 407 911 357 911 q 491 946 456 911 q 526 1036 526 981 l 634 1036 q 567 879 634 944 q 407 814 501 814 z "},"Ġ":{"ha":926,"x_min":90,"x_max":812,"o":"m 812 9 q 607 -11 734 -11 q 388 21 479 -11 q 231 115 296 53 q 90 481 90 247 q 163 746 90 635 q 467 939 262 897 q 622 951 530 951 q 780 942 713 951 l 780 812 q 613 827 722 827 q 436 802 505 827 q 321 732 367 778 q 231 481 231 644 q 320 218 231 317 q 599 110 418 110 q 677 113 641 110 l 677 461 l 812 461 l 812 9 m 583 1133 q 583 1115 583 1133 q 559 1076 583 1096 q 498 1057 534 1057 q 439 1076 463 1057 q 416 1133 416 1096 q 439 1190 416 1171 q 498 1208 463 1208 q 559 1190 534 1208 q 583 1133 583 1171 z "},"ġ":{"ha":810,"x_min":58,"x_max":692,"o":"m 502 -267 q 350 -282 443 -282 q 215 -269 258 -282 l 215 -148 q 346 -171 269 -171 q 460 -161 424 -172 q 518 -125 497 -150 q 556 34 556 -81 l 556 70 q 420 -2 505 18 q 353 -10 387 -10 q 287 -3 319 -10 q 222 21 254 5 q 161 65 191 38 q 110 132 132 92 q 60 345 60 218 q 127 551 58 463 q 292 671 187 629 q 497 711 387 711 q 692 700 608 711 l 692 34 q 502 -267 692 -220 m 556 601 q 471 606 513 606 q 376 591 429 606 q 285 543 324 575 q 199 345 199 473 q 266 142 199 206 q 389 94 316 94 q 536 156 476 94 q 556 184 550 172 l 556 601 m 493 900 q 493 881 493 900 q 469 843 493 863 q 408 823 444 823 q 349 843 372 823 q 326 900 326 863 q 349 956 326 937 q 408 975 372 975 q 469 956 444 975 q 493 900 493 937 z "},"Ģ":{"ha":926,"x_min":90,"x_max":812,"o":"m 812 9 q 607 -11 734 -11 q 388 21 479 -11 q 231 115 296 53 q 90 481 90 247 q 163 746 90 635 q 467 939 262 897 q 622 951 530 951 q 780 942 713 951 l 780 812 q 613 827 722 827 q 436 802 505 827 q 321 732 367 778 q 231 481 231 644 q 320 218 231 317 q 599 110 418 110 q 677 113 641 110 l 677 461 l 812 461 l 812 9 m 623 -70 l 623 -147 q 578 -306 623 -263 q 427 -346 537 -346 l 427 -256 q 482 -238 467 -256 q 508 -147 508 -208 l 508 -70 l 623 -70 z "},"ģ":{"ha":810,"x_min":58,"x_max":692,"o":"m 502 -267 q 350 -282 443 -282 q 215 -269 258 -282 l 215 -148 q 346 -171 269 -171 q 460 -161 424 -172 q 518 -125 497 -150 q 556 34 556 -81 l 556 70 q 420 -2 505 18 q 353 -10 387 -10 q 287 -3 319 -10 q 222 21 254 5 q 161 65 191 38 q 110 132 132 92 q 60 345 60 218 q 127 551 58 463 q 292 671 187 629 q 497 711 387 711 q 692 700 608 711 l 692 34 q 502 -267 692 -220 m 556 601 q 471 606 513 606 q 376 591 429 606 q 285 543 324 575 q 199 345 199 473 q 266 142 199 206 q 389 94 316 94 q 536 156 476 94 q 556 184 550 172 l 556 601 m 375 806 l 375 883 q 420 1042 375 999 q 571 1082 461 1082 l 571 991 q 516 974 531 991 q 490 883 490 943 l 490 806 l 375 806 z "},"Ĥ":{"ha":926,"x_min":104,"x_max":822,"o":"m 104 944 l 240 944 l 240 571 l 686 571 l 686 944 l 822 944 l 822 0 l 686 0 l 686 452 l 240 452 l 240 0 l 104 0 l 104 944 m 298 1183 l 518 1339 l 738 1183 l 738 1053 l 518 1198 l 298 1053 l 298 1183 z "},"ĥ":{"ha":810,"x_min":105,"x_max":713,"o":"m 420 594 q 241 526 319 594 l 241 0 l 105 0 l 105 1009 l 241 1009 l 241 625 q 468 711 351 711 q 652 636 593 711 q 713 382 713 557 l 713 0 l 577 0 l 577 382 q 486 583 577 551 q 420 594 456 594 m 220 1183 l 439 1339 l 659 1183 l 659 1053 l 439 1198 l 220 1053 l 220 1183 z "},"Ħ":{"ha":926,"x_min":11,"x_max":922,"o":"m 104 700 l 11 700 l 11 798 l 104 798 l 104 944 l 240 944 l 240 798 l 686 798 l 686 944 l 822 944 l 822 798 l 922 798 l 922 700 l 822 700 l 822 0 l 686 0 l 686 452 l 240 452 l 240 0 l 104 0 l 104 700 m 686 571 l 686 700 l 240 700 l 240 571 l 686 571 z "},"ħ":{"ha":812,"x_min":19,"x_max":713,"o":"m 420 596 q 241 528 319 596 l 241 0 l 105 0 l 105 795 l 19 795 l 19 888 l 105 888 l 105 977 l 241 977 l 241 888 l 458 888 l 458 795 l 241 795 l 241 627 q 468 713 351 713 q 652 637 593 713 q 713 385 713 560 l 713 0 l 577 0 l 577 385 q 486 586 577 553 q 420 596 456 596 z "},"Ĩ":{"ha":347,"x_min":-107,"x_max":457,"o":"m 106 944 l 241 944 l 241 0 l 106 0 l 106 944 m -107 1086 q -60 1214 -107 1163 q 53 1263 -14 1263 q 167 1217 107 1263 l 224 1173 q 293 1141 265 1141 q 337 1160 321 1141 q 354 1214 354 1178 l 457 1214 q 410 1086 457 1137 q 297 1037 364 1037 q 155 1102 235 1037 l 127 1124 q 57 1159 85 1159 q 13 1141 29 1159 q -4 1086 -4 1122 l -107 1086 z "},"ĩ":{"ha":345,"x_min":-108,"x_max":456,"o":"m 104 700 l 240 700 l 240 0 l 104 0 l 104 700 m -108 857 q -61 983 -108 933 q 52 1034 -15 1034 q 166 987 106 1034 l 223 944 q 292 911 264 911 q 337 930 320 911 q 353 984 353 948 l 456 984 q 410 857 456 907 q 296 807 363 807 q 154 872 235 807 l 125 895 q 57 929 85 929 q 12 911 28 929 q -5 857 -5 892 l -108 857 z "},"Ī":{"ha":347,"x_min":-9,"x_max":358,"o":"m 106 944 l 241 944 l 241 0 l 106 0 l 106 944 m -9 1141 l 358 1141 l 358 1038 l -9 1038 l -9 1141 z "},"ī":{"ha":345,"x_min":-9,"x_max":358,"o":"m 104 700 l 240 700 l 240 0 l 104 0 l 104 700 m -9 944 l 358 944 l 358 841 l -9 841 l -9 944 z "},"Ĭ":{"ha":347,"x_min":-53,"x_max":401,"o":"m 106 944 l 241 944 l 241 0 l 106 0 l 106 944 m 174 1038 q 14 1103 80 1038 q -53 1259 -53 1168 l 56 1259 q 90 1170 56 1204 q 174 1135 125 1135 q 258 1170 224 1135 q 293 1259 293 1204 l 401 1259 q 334 1103 401 1168 q 174 1038 269 1038 z "},"ĭ":{"ha":345,"x_min":-53,"x_max":401,"o":"m 104 700 l 240 700 l 240 0 l 104 0 l 104 700 m 174 814 q 14 879 80 814 q -53 1036 -53 944 l 56 1036 q 90 946 56 981 q 174 911 125 911 q 258 946 224 911 q 293 1036 293 981 l 401 1036 q 334 879 401 944 q 174 814 269 814 z "},"Į":{"ha":347,"x_min":-41,"x_max":241,"o":"m 234 -331 q 144 -346 197 -346 q 56 -331 92 -346 q -1 -293 20 -316 q -41 -183 -41 -250 q 35 -32 -41 -102 q 106 19 63 -5 l 106 944 l 241 944 l 241 0 q 73 -164 73 -75 q 121 -237 73 -220 q 171 -243 138 -243 q 234 -231 203 -243 l 234 -331 z "},"į":{"ha":348,"x_min":-40,"x_max":263,"o":"m 263 904 q 263 884 263 904 q 238 844 263 865 q 174 823 212 823 q 112 844 136 823 q 87 904 87 865 q 112 963 87 943 q 174 983 136 983 q 238 963 212 983 q 263 904 263 943 m -40 -183 q 104 16 -40 -73 l 104 700 l 240 700 l 240 0 q 75 -164 75 -73 q 97 -221 75 -198 q 162 -243 120 -243 q 235 -231 205 -243 l 235 -331 q 146 -346 198 -346 q 58 -331 94 -346 q 0 -293 22 -316 q -40 -183 -40 -250 z "},"İ":{"ha":347,"x_min":91,"x_max":258,"o":"m 106 944 l 241 944 l 241 0 l 106 0 l 106 944 m 258 1133 q 258 1115 258 1133 q 234 1076 258 1096 q 174 1057 210 1057 q 114 1076 138 1057 q 91 1133 91 1096 q 114 1190 91 1171 q 174 1208 138 1208 q 234 1190 210 1208 q 258 1133 258 1171 z "},"ı":{"ha":345,"x_min":104,"x_max":240,"o":"m 104 700 l 240 700 l 240 0 l 104 0 l 104 700 z "},"Ĳ":{"ha":1043,"x_min":106,"x_max":935,"o":"m 106 944 l 241 944 l 241 0 l 106 0 l 106 944 m 514 -7 q 435 -3 486 -7 l 435 127 q 533 119 462 119 q 652 139 604 119 q 733 201 701 159 q 799 477 799 288 l 799 824 l 451 824 l 451 944 l 935 944 l 935 477 q 703 23 935 110 q 514 -7 624 -7 z "},"ĳ":{"ha":692,"x_min":88,"x_max":608,"o":"m 264 904 q 264 884 264 904 q 239 844 264 865 q 176 823 214 823 q 113 844 138 823 q 88 904 88 865 q 113 963 88 943 q 176 983 138 983 q 239 963 214 983 q 264 904 264 943 m 106 700 l 241 700 l 241 0 l 106 0 l 106 700 m 608 904 q 608 885 608 904 q 583 845 608 865 q 519 824 557 824 q 457 845 481 824 q 432 904 432 865 q 457 964 432 943 q 519 984 481 984 q 583 964 557 984 q 608 904 608 943 m 451 700 l 587 700 l 587 -14 q 471 -258 587 -197 q 354 -282 426 -282 q 330 -281 342 -282 l 305 -278 l 305 -174 q 347 -179 323 -179 q 390 -171 370 -179 q 425 -144 411 -163 q 451 -13 451 -106 l 451 700 z "},"Ĵ":{"ha":694,"x_min":87,"x_max":587,"o":"m 167 -7 q 87 -3 138 -7 l 87 127 q 185 119 115 119 q 305 139 256 119 q 386 201 353 159 q 452 477 452 288 l 452 824 l 104 824 l 104 944 l 587 944 l 587 477 q 356 23 587 110 q 167 -7 277 -7 m 125 1183 l 345 1339 l 565 1183 l 565 1053 l 345 1198 l 125 1053 l 125 1183 z "},"ĵ":{"ha":347,"x_min":-43,"x_max":397,"o":"m 106 700 l 241 700 l 241 -15 q 126 -260 241 -199 q 9 -283 81 -283 q -15 -282 -3 -283 q -40 -279 -15 -282 l -40 -175 q 1 -180 -22 -180 q 45 -172 24 -180 q 79 -145 66 -164 q 106 -14 106 -107 l 106 700 m -43 959 l 177 1115 l 397 959 l 397 829 l 177 974 l -43 829 l -43 959 z "},"Ķ":{"ha":810,"x_min":104,"x_max":802,"o":"m 104 944 l 239 944 l 239 502 l 603 944 l 772 944 l 385 490 l 802 0 l 634 0 l 239 471 l 239 0 l 104 0 l 104 944 m 511 -70 l 511 -147 q 466 -306 511 -263 q 315 -346 425 -346 l 315 -256 q 370 -238 355 -256 q 395 -147 395 -208 l 395 -70 l 511 -70 z "},"ķ":{"ha":694,"x_min":115,"x_max":711,"o":"m 115 1008 l 251 1008 l 251 387 l 534 700 l 696 700 l 394 382 l 711 0 l 546 0 l 251 357 l 251 0 l 115 0 l 115 1008 m 469 -70 l 469 -147 q 425 -306 469 -263 q 273 -346 383 -346 l 273 -256 q 328 -238 313 -256 q 354 -147 354 -208 l 354 -70 l 469 -70 z "},"ĸ":{"ha":694,"x_min":115,"x_max":711,"o":"m 115 701 l 251 701 l 251 387 l 534 700 l 696 700 l 394 382 l 711 0 l 546 0 l 251 357 l 251 0 l 115 0 l 115 701 z "},"Ĺ":{"ha":696,"x_min":104,"x_max":644,"o":"m 104 944 l 240 944 l 240 119 l 644 119 l 644 0 l 104 0 l 104 944 m 382 1286 l 541 1286 l 346 1038 l 225 1038 l 382 1286 z "},"ĺ":{"ha":463,"x_min":22,"x_max":416,"o":"m 134 1009 l 270 1009 l 270 265 q 331 107 270 131 q 374 99 351 99 q 416 104 397 99 l 416 0 l 391 -3 q 367 -4 378 -4 q 179 81 237 -4 q 134 264 134 149 l 134 1009 m 179 1286 l 338 1286 l 142 1038 l 22 1038 l 179 1286 z "},"Ļ":{"ha":696,"x_min":104,"x_max":644,"o":"m 104 944 l 240 944 l 240 119 l 644 119 l 644 0 l 104 0 l 104 944 m 432 -70 l 432 -147 q 387 -306 432 -263 q 236 -346 346 -346 l 236 -256 q 291 -238 276 -256 q 317 -147 317 -208 l 317 -70 l 432 -70 z "},"ļ":{"ha":463,"x_min":134,"x_max":416,"o":"m 134 1009 l 270 1009 l 270 265 q 331 107 270 131 q 374 99 351 99 q 416 104 397 99 l 416 0 l 391 -3 q 367 -4 378 -4 q 179 81 237 -4 q 134 264 134 149 l 134 1009 m 338 -70 l 338 -147 q 293 -306 338 -263 q 142 -346 252 -346 l 142 -256 q 197 -238 182 -256 q 222 -147 222 -208 l 222 -70 l 338 -70 z "},"Ľ":{"ha":696,"x_min":104,"x_max":644,"o":"m 346 707 q 419 792 410 707 q 422 859 422 821 l 422 973 l 538 973 l 538 860 q 502 667 538 724 q 346 601 458 601 l 346 707 m 104 944 l 240 944 l 240 119 l 644 119 l 644 0 l 104 0 l 104 944 z "},"ľ":{"ha":578,"x_min":134,"x_max":538,"o":"m 346 707 q 419 792 410 707 q 422 859 422 821 l 422 973 l 538 973 l 538 860 q 502 667 538 724 q 346 601 458 601 l 346 707 m 134 1009 l 270 1009 l 270 265 q 331 107 270 131 q 374 99 351 99 q 416 104 397 99 l 416 0 l 391 -3 q 367 -4 378 -4 q 179 81 237 -4 q 134 264 134 149 l 134 1009 z "},"Ŀ":{"ha":696,"x_min":104,"x_max":644,"o":"m 554 441 q 536 441 554 441 q 495 460 518 441 q 471 517 471 480 q 495 574 471 555 q 554 593 518 593 q 614 574 590 593 q 639 517 639 555 q 614 460 639 480 q 554 441 590 441 m 104 944 l 240 944 l 240 119 l 644 119 l 644 0 l 104 0 l 104 944 z "},"ŀ":{"ha":581,"x_min":134,"x_max":540,"o":"m 540 519 q 540 501 540 519 q 515 463 540 482 q 455 443 491 443 q 396 463 419 443 q 372 519 372 482 q 396 576 372 557 q 455 595 419 595 q 515 576 491 595 q 540 519 540 557 m 134 1009 l 270 1009 l 270 265 q 331 107 270 131 q 374 99 351 99 q 416 104 397 99 l 416 0 l 391 -3 q 367 -4 378 -4 q 179 81 237 -4 q 134 264 134 149 l 134 1009 z "},"Ł":{"ha":696,"x_min":16,"x_max":644,"o":"m 104 376 l 16 325 l 16 439 l 104 490 l 104 944 l 240 944 l 240 570 l 461 700 l 461 585 l 240 456 l 240 119 l 644 119 l 644 0 l 104 0 l 104 376 z "},"ł":{"ha":463,"x_min":12,"x_max":416,"o":"m 134 478 l 12 398 l 12 515 l 134 595 l 134 1009 l 270 1009 l 270 684 l 396 767 l 396 650 l 270 567 l 270 265 q 331 107 270 131 q 374 99 351 99 q 416 104 397 99 l 416 0 l 391 -3 q 367 -4 378 -4 q 179 81 237 -4 q 134 264 134 149 l 134 478 z "},"Ń":{"ha":926,"x_min":104,"x_max":821,"o":"m 104 944 l 201 944 l 694 248 l 687 345 l 687 944 l 821 944 l 821 0 l 724 0 l 313 578 l 231 696 l 238 578 l 238 0 l 104 0 l 104 944 m 540 1286 l 699 1286 l 503 1038 l 382 1038 l 540 1286 z "},"ń":{"ha":810,"x_min":105,"x_max":713,"o":"m 420 594 q 241 526 319 594 l 241 0 l 105 0 l 105 700 l 231 700 l 240 624 q 469 711 351 711 q 652 636 593 711 q 713 382 713 557 l 713 0 l 577 0 l 577 382 q 486 583 577 551 q 420 594 457 594 m 505 1099 l 663 1099 l 468 850 l 347 850 l 505 1099 z "},"Ņ":{"ha":926,"x_min":104,"x_max":821,"o":"m 104 944 l 201 944 l 694 248 l 687 345 l 687 944 l 821 944 l 821 0 l 724 0 l 313 578 l 231 696 l 238 578 l 238 0 l 104 0 l 104 944 m 531 -70 l 531 -147 q 486 -306 531 -263 q 335 -346 445 -346 l 335 -256 q 390 -238 375 -256 q 416 -147 416 -208 l 416 -70 l 531 -70 z "},"ņ":{"ha":810,"x_min":105,"x_max":713,"o":"m 420 594 q 241 526 319 594 l 241 0 l 105 0 l 105 700 l 231 700 l 240 624 q 469 711 351 711 q 652 636 593 711 q 713 382 713 557 l 713 0 l 577 0 l 577 382 q 486 583 577 551 q 420 594 457 594 m 469 -70 l 469 -147 q 424 -306 469 -263 q 273 -346 382 -346 l 273 -256 q 328 -238 313 -256 q 353 -147 353 -208 l 353 -70 l 469 -70 z "},"Ň":{"ha":926,"x_min":104,"x_max":821,"o":"m 104 944 l 201 944 l 694 248 l 687 345 l 687 944 l 821 944 l 821 0 l 724 0 l 313 578 l 231 696 l 238 578 l 238 0 l 104 0 l 104 944 m 253 1209 l 253 1339 l 473 1194 l 692 1339 l 692 1209 l 473 1053 l 253 1209 z "},"ň":{"ha":810,"x_min":105,"x_max":713,"o":"m 420 594 q 241 526 319 594 l 241 0 l 105 0 l 105 700 l 231 700 l 240 624 q 469 711 351 711 q 652 636 593 711 q 713 382 713 557 l 713 0 l 577 0 l 577 382 q 486 583 577 551 q 420 594 457 594 m 187 985 l 187 1115 l 407 970 l 627 1115 l 627 985 l 407 829 l 187 985 z "},"Ŋ":{"ha":926,"x_min":104,"x_max":821,"o":"m 104 944 l 201 944 l 694 248 l 687 345 l 687 944 l 821 944 l 821 -14 q 705 -258 821 -197 q 589 -282 661 -282 q 565 -281 577 -282 l 540 -278 l 540 -174 q 581 -179 558 -179 q 625 -171 604 -179 q 659 -144 646 -163 q 686 -13 686 -106 l 686 54 l 313 578 l 231 696 l 238 578 l 238 0 l 104 0 l 104 944 z "},"ŋ":{"ha":810,"x_min":106,"x_max":713,"o":"m 420 596 q 241 528 320 596 l 241 0 l 106 0 l 106 700 l 228 700 l 240 626 q 415 707 318 689 q 487 713 444 713 q 576 695 530 713 q 652 637 622 677 q 713 385 713 560 l 713 0 l 713 0 l 713 -15 q 597 -260 713 -199 q 480 -283 552 -283 q 456 -282 469 -283 l 431 -279 l 431 -175 q 473 -180 450 -180 q 516 -172 496 -180 q 551 -145 537 -164 q 577 -14 577 -107 l 577 231 l 578 231 l 578 385 q 486 586 578 553 q 420 596 457 596 z "},"Ō":{"ha":1042,"x_min":74,"x_max":968,"o":"m 74 471 q 107 671 74 581 q 199 823 140 760 q 522 955 323 955 q 843 823 720 955 q 968 471 968 690 q 843 119 968 252 q 522 -11 721 -11 q 199 119 323 -11 q 74 471 74 252 m 210 471 q 285 216 210 317 q 522 103 370 103 q 758 216 673 103 q 832 470 832 315 q 758 727 832 626 q 522 841 673 841 q 285 727 369 841 q 210 471 210 626 m 337 1141 l 705 1141 l 705 1038 l 337 1038 l 337 1141 z "},"ō":{"ha":810,"x_min":60,"x_max":748,"o":"m 60 351 q 165 618 60 516 q 408 714 263 714 q 646 618 551 714 q 748 351 748 517 q 646 85 748 186 q 408 -11 549 -11 q 165 85 264 -11 q 60 351 60 186 m 201 351 q 312 115 201 178 q 406 94 351 94 q 499 116 461 94 q 562 174 537 138 q 607 351 607 243 q 498 587 607 524 q 407 610 460 610 q 315 588 354 610 q 251 530 276 566 q 201 351 201 459 m 220 944 l 587 944 l 587 841 l 220 841 l 220 944 z "},"Ŏ":{"ha":1042,"x_min":74,"x_max":968,"o":"m 74 471 q 107 671 74 581 q 199 823 140 760 q 522 955 323 955 q 843 823 720 955 q 968 471 968 690 q 843 119 968 252 q 522 -11 721 -11 q 199 119 323 -11 q 74 471 74 252 m 210 471 q 285 216 210 317 q 522 103 370 103 q 758 216 673 103 q 832 470 832 315 q 758 727 832 626 q 522 841 673 841 q 285 727 369 841 q 210 471 210 626 m 521 1038 q 361 1103 427 1038 q 294 1259 294 1168 l 402 1259 q 437 1170 402 1204 q 521 1135 471 1135 q 605 1170 570 1135 q 640 1259 640 1204 l 748 1259 q 681 1103 748 1168 q 521 1038 615 1038 z "},"ŏ":{"ha":810,"x_min":60,"x_max":748,"o":"m 60 351 q 165 618 60 516 q 408 714 263 714 q 646 618 551 714 q 748 351 748 517 q 646 85 748 186 q 408 -11 549 -11 q 165 85 264 -11 q 60 351 60 186 m 201 351 q 312 115 201 178 q 406 94 351 94 q 499 116 461 94 q 562 174 537 138 q 607 351 607 243 q 498 587 607 524 q 407 610 460 610 q 315 588 354 610 q 251 530 276 566 q 201 351 201 459 m 404 814 q 243 879 309 814 q 176 1036 176 944 l 285 1036 q 319 946 285 981 q 404 911 354 911 q 488 946 453 911 q 522 1036 522 981 l 631 1036 q 564 879 631 944 q 404 814 498 814 z "},"Ő":{"ha":1042,"x_min":74,"x_max":968,"o":"m 74 471 q 107 671 74 581 q 199 823 140 760 q 522 955 323 955 q 843 823 720 955 q 968 471 968 690 q 843 119 968 252 q 522 -11 721 -11 q 199 119 323 -11 q 74 471 74 252 m 210 471 q 285 216 210 317 q 522 103 370 103 q 758 216 673 103 q 832 470 832 315 q 758 727 832 626 q 522 841 673 841 q 285 727 369 841 q 210 471 210 626 m 753 1286 l 906 1286 l 711 1038 l 595 1038 l 753 1286 m 464 1286 l 617 1286 l 422 1038 l 307 1038 l 464 1286 z "},"ő":{"ha":810,"x_min":60,"x_max":812,"o":"m 60 351 q 165 618 60 516 q 408 714 263 714 q 646 618 551 714 q 748 351 748 517 q 646 85 748 186 q 408 -11 549 -11 q 165 85 264 -11 q 60 351 60 186 m 201 351 q 312 115 201 178 q 406 94 351 94 q 499 116 461 94 q 562 174 537 138 q 607 351 607 243 q 498 587 607 524 q 407 610 460 610 q 315 588 354 610 q 251 530 276 566 q 201 351 201 459 m 659 1099 l 812 1099 l 616 850 l 501 850 l 659 1099 m 370 1099 l 523 1099 l 328 850 l 212 850 l 370 1099 z "},"Œ":{"ha":1154,"x_min":74,"x_max":1097,"o":"m 74 471 q 112 669 74 581 q 217 818 150 757 q 577 944 356 944 l 1097 944 l 1097 826 l 713 826 l 713 548 l 981 548 l 981 434 l 713 434 l 713 119 l 1097 119 l 1097 0 l 577 0 q 217 125 355 0 q 74 471 74 254 m 210 471 q 298 221 210 317 q 577 114 397 114 l 577 829 q 292 722 388 829 q 210 471 210 629 z "},"œ":{"ha":1153,"x_min":48,"x_max":1104,"o":"m 884 -11 q 597 115 682 -11 q 494 21 555 54 q 365 -11 432 -11 q 241 14 298 -11 q 142 85 184 39 q 48 351 48 187 q 142 618 48 517 q 361 714 230 714 q 600 584 514 714 q 831 711 684 711 q 1036 621 964 711 q 1104 398 1104 539 l 1104 345 l 665 345 q 806 111 665 153 q 915 100 840 100 q 1065 121 991 100 l 1065 7 q 884 -11 991 -11 m 280 115 q 360 94 313 94 q 440 116 407 94 q 493 174 473 138 q 532 351 532 244 q 491 530 532 458 q 361 610 446 610 q 229 530 275 610 q 189 351 189 460 q 280 115 189 177 m 968 445 q 890 592 968 552 q 824 606 861 606 q 757 593 786 606 q 707 557 728 579 q 665 445 665 511 l 968 445 z "},"Ŕ":{"ha":810,"x_min":115,"x_max":788,"o":"m 115 944 l 383 944 q 728 785 651 944 q 756 654 756 727 q 737 531 756 581 q 683 445 718 481 q 500 354 616 376 q 663 149 548 205 q 727 129 701 130 q 788 132 770 127 l 788 0 l 758 0 q 498 109 605 0 q 371 346 404 203 l 251 346 l 251 0 l 115 0 l 115 944 m 374 454 q 556 502 497 454 q 615 650 615 549 q 491 822 615 783 q 386 836 448 836 l 251 836 l 251 454 l 374 454 m 468 1286 l 627 1286 l 431 1038 l 311 1038 l 468 1286 z "},"ŕ":{"ha":578,"x_min":115,"x_max":550,"o":"m 550 576 q 461 587 513 587 q 376 576 409 587 q 317 551 342 566 q 250 490 271 524 l 250 0 l 115 0 l 115 700 l 245 700 l 250 603 q 399 699 301 667 q 479 711 434 711 q 550 704 525 711 l 550 576 m 353 1099 l 511 1099 l 316 850 l 195 850 l 353 1099 z "},"Ŗ":{"ha":810,"x_min":115,"x_max":788,"o":"m 115 944 l 383 944 q 728 785 651 944 q 756 654 756 727 q 737 531 756 581 q 683 445 718 481 q 500 354 616 376 q 663 149 548 205 q 727 129 701 130 q 788 132 770 127 l 788 0 l 758 0 q 498 109 605 0 q 371 346 404 203 l 251 346 l 251 0 l 115 0 l 115 944 m 374 454 q 556 502 497 454 q 615 650 615 549 q 491 822 615 783 q 386 836 448 836 l 251 836 l 251 454 l 374 454 m 459 -70 l 459 -147 q 414 -306 459 -263 q 263 -346 373 -346 l 263 -256 q 318 -238 303 -256 q 344 -147 344 -208 l 344 -70 l 459 -70 z "},"ŗ":{"ha":578,"x_min":50,"x_max":550,"o":"m 550 576 q 461 587 513 587 q 376 576 409 587 q 317 551 342 566 q 250 490 271 524 l 250 0 l 115 0 l 115 700 l 245 700 l 250 603 q 399 699 301 667 q 479 711 434 711 q 550 704 525 711 l 550 576 m 245 -70 l 245 -147 q 201 -306 245 -263 q 50 -346 159 -346 l 50 -256 q 104 -238 90 -256 q 130 -147 130 -208 l 130 -70 l 245 -70 z "},"Ř":{"ha":810,"x_min":115,"x_max":788,"o":"m 115 944 l 383 944 q 728 785 651 944 q 756 654 756 727 q 737 531 756 581 q 683 445 718 481 q 500 354 616 376 q 663 149 548 205 q 727 129 701 130 q 788 132 770 127 l 788 0 l 758 0 q 498 109 605 0 q 371 346 404 203 l 251 346 l 251 0 l 115 0 l 115 944 m 374 454 q 556 502 497 454 q 615 650 615 549 q 491 822 615 783 q 386 836 448 836 l 251 836 l 251 454 l 374 454 m 181 1209 l 181 1339 l 401 1194 l 621 1339 l 621 1209 l 401 1053 l 181 1209 z "},"ř":{"ha":578,"x_min":35,"x_max":550,"o":"m 550 576 q 461 587 513 587 q 376 576 409 587 q 317 551 342 566 q 250 490 271 524 l 250 0 l 115 0 l 115 700 l 245 700 l 250 603 q 399 699 301 667 q 479 711 434 711 q 550 704 525 711 l 550 576 m 35 985 l 35 1115 l 255 970 l 475 1115 l 475 985 l 255 829 l 35 985 z "},"Ś":{"ha":810,"x_min":100,"x_max":737,"o":"m 643 66 q 618 49 643 66 q 519 13 594 32 q 335 -7 444 -7 q 115 6 226 -7 l 115 138 q 315 115 214 115 q 465 126 415 115 q 546 156 515 138 q 602 244 602 190 q 581 309 602 286 q 481 375 546 345 l 307 454 q 180 532 218 496 q 100 711 100 610 q 191 880 100 816 q 475 951 291 951 q 692 941 593 951 l 692 812 q 506 831 608 831 q 356 820 403 831 q 283 793 310 810 q 235 715 235 764 q 266 636 235 667 q 365 575 293 610 l 543 490 q 668 411 632 448 q 720 336 703 374 q 737 246 737 298 q 714 147 737 193 q 643 66 691 100 m 505 1286 l 664 1286 l 469 1038 l 348 1038 l 505 1286 z "},"ś":{"ha":694,"x_min":105,"x_max":615,"o":"m 277 -11 q 105 1 192 -11 l 105 121 q 284 100 193 100 q 466 177 466 100 q 452 220 466 206 q 385 265 431 243 l 286 311 q 161 388 190 359 q 108 517 108 442 q 186 654 108 601 q 422 711 270 711 q 576 700 498 711 l 576 584 q 428 600 491 600 q 329 591 364 600 q 277 571 294 583 q 249 522 249 552 q 268 473 249 492 q 329 433 288 454 l 429 385 q 554 307 526 334 q 607 177 607 255 q 523 43 607 94 q 277 -11 435 -11 m 456 1099 l 615 1099 l 420 850 l 299 850 l 456 1099 z "},"Ŝ":{"ha":810,"x_min":100,"x_max":737,"o":"m 643 66 q 618 49 643 66 q 519 13 594 32 q 335 -7 444 -7 q 115 6 226 -7 l 115 138 q 315 115 214 115 q 465 126 415 115 q 546 156 515 138 q 602 244 602 190 q 581 309 602 286 q 481 375 546 345 l 307 454 q 180 532 218 496 q 100 711 100 610 q 191 880 100 816 q 475 951 291 951 q 692 941 593 951 l 692 812 q 506 831 608 831 q 356 820 403 831 q 283 793 310 810 q 235 715 235 764 q 266 636 235 667 q 365 575 293 610 l 543 490 q 668 411 632 448 q 720 336 703 374 q 737 246 737 298 q 714 147 737 193 q 643 66 691 100 m 218 1183 l 438 1339 l 658 1183 l 658 1053 l 438 1198 l 218 1053 l 218 1183 z "},"ŝ":{"ha":694,"x_min":105,"x_max":607,"o":"m 277 -11 q 105 1 192 -11 l 105 121 q 284 100 193 100 q 466 177 466 100 q 452 220 466 206 q 385 265 431 243 l 286 311 q 161 388 190 359 q 108 517 108 442 q 186 654 108 601 q 422 711 270 711 q 576 700 498 711 l 576 584 q 428 600 491 600 q 329 591 364 600 q 277 571 294 583 q 249 522 249 552 q 268 473 249 492 q 329 433 288 454 l 429 385 q 554 307 526 334 q 607 177 607 255 q 523 43 607 94 q 277 -11 435 -11 m 138 959 l 358 1115 l 578 959 l 578 829 l 358 974 l 138 829 l 138 959 z "},"Ş":{"ha":810,"x_min":100,"x_max":737,"o":"m 643 66 q 618 49 643 66 q 519 13 594 32 q 335 -7 444 -7 q 115 6 226 -7 l 115 138 q 315 115 214 115 q 465 126 415 115 q 546 156 515 138 q 602 244 602 190 q 581 309 602 286 q 481 375 546 345 l 307 454 q 180 532 218 496 q 100 711 100 610 q 191 880 100 816 q 475 951 291 951 q 692 941 593 951 l 692 812 q 506 831 608 831 q 356 820 403 831 q 283 793 310 810 q 235 715 235 764 q 266 636 235 667 q 365 575 293 610 l 543 490 q 668 411 632 448 q 720 336 703 374 q 737 246 737 298 q 714 147 737 193 q 643 66 691 100 m 481 -186 q 406 -149 481 -149 l 324 -149 l 324 57 l 422 57 l 422 -62 l 445 -62 q 582 -129 550 -62 q 593 -186 593 -152 q 576 -250 593 -220 q 530 -301 559 -280 q 382 -345 469 -345 q 313 -340 336 -345 l 313 -245 q 372 -252 344 -252 q 481 -186 481 -252 z "},"ş":{"ha":694,"x_min":105,"x_max":607,"o":"m 246 -10 q 105 1 180 -9 l 105 121 q 284 100 193 100 q 466 177 466 100 q 452 220 466 206 q 385 265 431 243 l 286 311 q 161 388 190 359 q 108 517 108 442 q 186 654 108 601 q 422 711 270 711 q 576 700 498 711 l 576 584 q 428 600 491 600 q 329 591 364 600 q 277 571 294 583 q 249 522 249 552 q 268 473 249 492 q 329 433 288 454 l 429 385 q 554 307 526 334 q 607 177 607 255 q 538 54 607 103 q 344 -8 467 1 l 344 -62 l 367 -62 q 504 -129 472 -62 q 515 -186 515 -152 q 498 -250 515 -220 q 452 -301 481 -280 q 304 -345 391 -345 q 235 -340 258 -345 l 235 -245 q 294 -252 266 -252 q 404 -186 404 -252 q 328 -149 404 -149 l 246 -149 l 246 -10 z "},"Š":{"ha":810,"x_min":100,"x_max":737,"o":"m 643 66 q 618 49 643 66 q 519 13 594 32 q 335 -7 444 -7 q 115 6 226 -7 l 115 138 q 315 115 214 115 q 465 126 415 115 q 546 156 515 138 q 602 244 602 190 q 581 309 602 286 q 481 375 546 345 l 307 454 q 180 532 218 496 q 100 711 100 610 q 191 880 100 816 q 475 951 291 951 q 692 941 593 951 l 692 812 q 506 831 608 831 q 356 820 403 831 q 283 793 310 810 q 235 715 235 764 q 266 636 235 667 q 365 575 293 610 l 543 490 q 668 411 632 448 q 720 336 703 374 q 737 246 737 298 q 714 147 737 193 q 643 66 691 100 m 218 1209 l 218 1339 l 438 1194 l 658 1339 l 658 1209 l 438 1053 l 218 1209 z "},"š":{"ha":694,"x_min":105,"x_max":607,"o":"m 277 -11 q 105 1 192 -11 l 105 121 q 284 100 193 100 q 466 177 466 100 q 452 220 466 206 q 385 265 431 243 l 286 311 q 161 388 190 359 q 108 517 108 442 q 186 654 108 601 q 422 711 270 711 q 576 700 498 711 l 576 584 q 428 600 491 600 q 329 591 364 600 q 277 571 294 583 q 249 522 249 552 q 268 473 249 492 q 329 433 288 454 l 429 385 q 554 307 526 334 q 607 177 607 255 q 523 43 607 94 q 277 -11 435 -11 m 138 985 l 138 1115 l 358 970 l 578 1115 l 578 985 l 358 829 l 138 985 z "},"Ţ":{"ha":810,"x_min":52,"x_max":755,"o":"m 336 825 l 52 825 l 52 944 l 755 944 l 755 825 l 471 825 l 471 0 l 336 0 l 336 825 m 461 -70 l 461 -147 q 416 -306 461 -263 q 265 -346 375 -346 l 265 -256 q 320 -238 305 -256 q 346 -147 346 -208 l 346 -70 l 461 -70 z "},"ţ":{"ha":578,"x_min":51,"x_max":504,"o":"m 357 107 q 425 99 379 99 q 500 110 470 99 l 500 1 q 459 -3 486 -2 l 416 -4 q 395 -4 402 -4 q 201 81 264 -4 q 151 264 151 151 l 151 596 l 51 596 l 51 660 l 151 700 l 184 873 l 287 873 l 287 700 l 504 700 l 504 596 l 287 596 l 287 265 q 357 107 287 132 m 374 -70 l 374 -147 q 330 -306 374 -263 q 178 -346 288 -346 l 178 -256 q 233 -238 218 -256 q 259 -147 259 -208 l 259 -70 l 374 -70 z "},"Ť":{"ha":810,"x_min":52,"x_max":755,"o":"m 336 825 l 52 825 l 52 944 l 755 944 l 755 825 l 471 825 l 471 0 l 336 0 l 336 825 m 183 1209 l 183 1339 l 403 1194 l 623 1339 l 623 1209 l 403 1053 l 183 1209 z "},"ť":{"ha":578,"x_min":51,"x_max":539,"o":"m 347 887 q 419 972 410 887 q 422 1038 422 1000 l 422 1153 l 539 1153 l 539 1040 q 502 848 539 904 q 347 781 459 781 l 347 887 m 357 107 q 425 99 379 99 q 500 110 470 99 l 500 1 q 459 -3 486 -2 l 416 -4 q 395 -4 402 -4 q 201 81 264 -4 q 151 264 151 151 l 151 596 l 51 596 l 51 660 l 151 700 l 184 873 l 287 873 l 287 700 l 504 700 l 504 596 l 287 596 l 287 265 q 357 107 287 132 z "},"Ŧ":{"ha":810,"x_min":52,"x_max":755,"o":"m 336 461 l 159 461 l 159 559 l 336 559 l 336 825 l 52 825 l 52 944 l 755 944 l 755 825 l 471 825 l 471 559 l 647 559 l 647 461 l 471 461 l 471 0 l 336 0 l 336 461 z "},"ŧ":{"ha":578,"x_min":50,"x_max":477,"o":"m 357 107 q 416 99 379 99 q 473 110 454 99 l 473 1 q 442 -3 463 -2 l 411 -4 q 395 -4 400 -4 q 201 81 264 -4 q 151 264 151 151 l 151 360 l 50 360 l 50 452 l 151 452 l 151 596 l 51 596 l 51 660 l 151 700 l 184 873 l 287 873 l 287 700 l 477 700 l 477 596 l 287 596 l 287 452 l 477 452 l 477 360 l 287 360 l 287 265 q 357 107 287 132 z "},"Ũ":{"ha":926,"x_min":104,"x_max":821,"o":"m 463 106 q 686 379 686 106 l 686 944 l 821 944 l 821 379 q 720 79 821 179 q 463 -11 629 -11 q 132 200 208 -11 q 104 379 104 274 l 104 944 l 240 944 l 240 379 q 463 106 240 106 m 181 1086 q 228 1214 181 1163 q 341 1263 274 1263 q 455 1217 395 1263 l 512 1173 q 581 1141 553 1141 q 626 1160 609 1141 q 642 1214 642 1178 l 745 1214 q 699 1086 745 1137 q 585 1037 652 1037 q 443 1102 524 1037 l 415 1124 q 346 1159 374 1159 q 301 1141 317 1159 q 284 1086 284 1122 l 181 1086 z "},"ũ":{"ha":810,"x_min":103,"x_max":697,"o":"m 562 172 l 562 700 l 697 700 l 697 0 l 575 0 l 563 74 q 341 -11 463 -11 q 159 60 212 -11 q 103 311 103 133 l 103 700 l 239 700 l 239 317 q 275 146 239 192 q 396 106 307 106 q 562 172 486 106 m 122 857 q 169 983 122 933 q 282 1034 215 1034 q 396 987 336 1034 l 453 944 q 522 911 494 911 q 567 930 550 911 q 583 984 583 948 l 686 984 q 640 857 686 907 q 526 807 593 807 q 384 872 465 807 l 355 895 q 287 929 315 929 q 242 911 258 929 q 225 857 225 892 l 122 857 z "},"Ū":{"ha":926,"x_min":104,"x_max":821,"o":"m 463 106 q 686 379 686 106 l 686 944 l 821 944 l 821 379 q 720 79 821 179 q 463 -11 629 -11 q 132 200 208 -11 q 104 379 104 274 l 104 944 l 240 944 l 240 379 q 463 106 240 106 m 279 1141 l 646 1141 l 646 1038 l 279 1038 l 279 1141 z "},"ū":{"ha":810,"x_min":103,"x_max":697,"o":"m 562 172 l 562 700 l 697 700 l 697 0 l 575 0 l 563 74 q 341 -11 463 -11 q 159 60 212 -11 q 103 311 103 133 l 103 700 l 239 700 l 239 317 q 275 146 239 192 q 396 106 307 106 q 562 172 486 106 m 220 944 l 588 944 l 588 841 l 220 841 l 220 944 z "},"Ŭ":{"ha":926,"x_min":104,"x_max":821,"o":"m 463 106 q 686 379 686 106 l 686 944 l 821 944 l 821 379 q 720 79 821 179 q 463 -11 629 -11 q 132 200 208 -11 q 104 379 104 274 l 104 944 l 240 944 l 240 379 q 463 106 240 106 m 463 1038 q 302 1103 368 1038 q 235 1259 235 1168 l 344 1259 q 378 1170 344 1204 q 463 1135 413 1135 q 547 1170 512 1135 q 581 1259 581 1204 l 690 1259 q 623 1103 690 1168 q 463 1038 557 1038 z "},"ŭ":{"ha":810,"x_min":103,"x_max":697,"o":"m 562 172 l 562 700 l 697 700 l 697 0 l 575 0 l 563 74 q 341 -11 463 -11 q 159 60 212 -11 q 103 311 103 133 l 103 700 l 239 700 l 239 317 q 275 146 239 192 q 396 106 307 106 q 562 172 486 106 m 404 814 q 244 879 310 814 q 177 1036 177 944 l 286 1036 q 320 946 286 981 q 404 911 355 911 q 488 946 454 911 q 523 1036 523 981 l 631 1036 q 564 879 631 944 q 404 814 498 814 z "},"Ů":{"ha":926,"x_min":104,"x_max":821,"o":"m 463 106 q 686 379 686 106 l 686 944 l 821 944 l 821 379 q 720 79 821 179 q 463 -11 629 -11 q 132 200 208 -11 q 104 379 104 274 l 104 944 l 240 944 l 240 379 q 463 106 240 106 m 462 1019 q 389 1034 423 1019 q 330 1072 355 1048 q 275 1201 275 1124 q 330 1330 275 1277 q 463 1383 385 1383 q 595 1331 541 1383 q 650 1201 650 1276 q 595 1072 650 1125 q 462 1019 540 1019 m 463 1095 q 534 1126 505 1095 q 564 1201 564 1156 q 502 1299 564 1270 q 463 1308 484 1308 q 391 1276 421 1308 q 362 1201 362 1246 q 391 1126 362 1156 q 463 1095 420 1095 z "},"ů":{"ha":810,"x_min":103,"x_max":697,"o":"m 562 172 l 562 700 l 697 700 l 697 0 l 575 0 l 563 74 q 341 -11 463 -11 q 159 60 212 -11 q 103 311 103 133 l 103 700 l 239 700 l 239 317 q 275 146 239 192 q 396 106 307 106 q 562 172 486 106 m 403 828 q 330 842 363 828 q 270 881 296 857 q 216 1010 216 933 q 270 1139 216 1086 q 403 1192 325 1192 q 536 1139 481 1192 q 591 1010 591 1085 q 536 881 591 934 q 403 828 480 828 m 403 910 q 470 939 442 910 q 497 999 497 968 q 490 1048 497 1029 q 469 1080 482 1066 q 403 1109 443 1109 q 336 1080 364 1109 q 309 1020 309 1051 q 316 970 309 988 q 336 939 323 952 q 403 910 364 910 z "},"Ű":{"ha":926,"x_min":104,"x_max":848,"o":"m 463 106 q 686 379 686 106 l 686 944 l 821 944 l 821 379 q 720 79 821 179 q 463 -11 629 -11 q 132 200 208 -11 q 104 379 104 274 l 104 944 l 240 944 l 240 379 q 463 106 240 106 m 694 1286 l 848 1286 l 652 1038 l 537 1038 l 694 1286 m 406 1286 l 559 1286 l 363 1038 l 248 1038 l 406 1286 z "},"ű":{"ha":810,"x_min":103,"x_max":812,"o":"m 562 172 l 562 700 l 697 700 l 697 0 l 575 0 l 563 74 q 341 -11 463 -11 q 159 60 212 -11 q 103 311 103 133 l 103 700 l 239 700 l 239 317 q 275 146 239 192 q 396 106 307 106 q 562 172 486 106 m 659 1099 l 812 1099 l 617 850 l 502 850 l 659 1099 m 370 1099 l 524 1099 l 328 850 l 213 850 l 370 1099 z "},"Ų":{"ha":926,"x_min":104,"x_max":821,"o":"m 501 -9 q 463 -11 482 -11 q 132 200 208 -11 q 104 379 104 274 l 104 944 l 240 944 l 240 379 q 463 106 240 106 q 686 379 686 106 l 686 944 l 821 944 l 821 379 q 692 54 821 152 q 583 -48 612 -10 q 531 -172 531 -117 q 579 -237 531 -220 q 629 -243 596 -243 q 692 -231 661 -243 l 692 -331 q 602 -346 654 -346 q 514 -331 550 -346 q 456 -293 478 -316 q 416 -178 416 -250 q 501 -9 416 -106 z "},"ų":{"ha":810,"x_min":103,"x_max":697,"o":"m 688 -338 q 599 -353 651 -353 q 511 -338 547 -353 q 453 -300 475 -323 q 413 -190 413 -256 q 494 -31 413 -106 q 571 23 525 -3 l 563 74 q 341 -11 463 -11 q 159 60 212 -11 q 103 311 103 133 l 103 700 l 239 700 l 239 317 q 275 146 239 192 q 396 106 307 106 q 562 172 486 106 l 562 700 l 697 700 l 697 0 l 696 0 q 528 -171 528 -81 q 576 -244 528 -227 q 625 -250 593 -250 q 688 -237 658 -250 l 688 -338 z "},"Ŵ":{"ha":1273,"x_min":1,"x_max":1271,"o":"m 1 944 l 142 944 l 325 278 l 351 161 l 381 278 l 572 944 l 703 944 l 892 278 l 922 156 l 951 278 l 1135 944 l 1271 944 l 985 0 l 854 0 l 656 665 l 633 749 l 612 665 l 415 0 l 285 0 l 1 944 m 416 1183 l 635 1339 l 855 1183 l 855 1053 l 635 1198 l 416 1053 l 416 1183 z "},"ŵ":{"ha":1158,"x_min":11,"x_max":1147,"o":"m 11 700 l 155 700 l 335 144 l 517 700 l 658 700 l 842 146 l 1013 700 l 1147 700 l 911 0 l 772 0 l 583 530 l 405 0 l 265 0 l 11 700 m 366 944 l 586 1100 l 806 944 l 806 814 l 586 959 l 366 814 l 366 944 z "},"Ŷ":{"ha":814,"x_min":0,"x_max":814,"o":"m 337 411 l 0 944 l 146 944 l 410 522 l 667 944 l 814 944 l 478 412 l 478 0 l 337 0 l 337 411 m 186 1183 l 406 1339 l 626 1183 l 626 1053 l 406 1198 l 186 1053 l 186 1183 z "},"ŷ":{"ha":695,"x_min":35,"x_max":705,"o":"m 76 -174 q 126 -179 94 -179 q 191 -166 157 -179 q 248 -132 224 -154 q 322 -16 289 -95 l 35 700 l 179 700 l 381 142 l 562 700 l 705 700 l 418 -86 q 328 -221 385 -174 q 125 -282 252 -282 q 101 -281 113 -282 l 76 -278 l 76 -174 m 161 959 l 381 1115 l 601 959 l 601 829 l 381 974 l 161 829 l 161 959 z "},"Ÿ":{"ha":814,"x_min":0,"x_max":814,"o":"m 337 411 l 0 944 l 146 944 l 410 522 l 667 944 l 814 944 l 478 412 l 478 0 l 337 0 l 337 411 m 643 1133 q 643 1115 643 1133 q 618 1076 643 1096 q 558 1057 594 1057 q 499 1076 522 1057 q 475 1133 475 1096 q 499 1190 475 1171 q 558 1208 522 1208 q 618 1190 594 1208 q 643 1133 643 1171 m 328 1133 q 328 1115 328 1133 q 303 1076 328 1096 q 243 1057 279 1057 q 183 1076 207 1057 q 160 1133 160 1096 q 183 1190 160 1171 q 243 1208 207 1208 q 303 1190 279 1208 q 328 1133 328 1171 z "},"Ź":{"ha":926,"x_min":62,"x_max":736,"o":"m 62 61 l 551 829 l 455 826 l 85 826 l 85 944 l 736 944 l 736 883 l 245 117 l 349 119 l 736 119 l 736 0 l 62 0 l 62 61 m 540 1286 l 699 1286 l 503 1038 l 382 1038 l 540 1286 z "},"ź":{"ha":695,"x_min":60,"x_max":656,"o":"m 60 79 l 467 591 l 85 591 l 85 700 l 641 700 l 641 621 l 228 109 l 656 109 l 656 0 l 60 0 l 60 79 m 471 1099 l 629 1099 l 434 850 l 313 850 l 471 1099 z "},"Ż":{"ha":926,"x_min":62,"x_max":736,"o":"m 62 61 l 551 829 l 455 826 l 85 826 l 85 944 l 736 944 l 736 883 l 245 117 l 349 119 l 736 119 l 736 0 l 62 0 l 62 61 m 557 1133 q 557 1115 557 1133 q 533 1076 557 1096 q 473 1057 509 1057 q 413 1076 437 1057 q 390 1133 390 1096 q 413 1190 390 1171 q 473 1208 437 1208 q 533 1190 509 1208 q 557 1133 557 1171 z "},"ż":{"ha":695,"x_min":60,"x_max":656,"o":"m 60 79 l 467 591 l 85 591 l 85 700 l 641 700 l 641 621 l 228 109 l 656 109 l 656 0 l 60 0 l 60 79 m 458 900 q 458 881 458 900 q 434 843 458 863 q 374 823 410 823 q 314 843 338 823 q 291 900 291 863 q 314 956 291 937 q 374 975 338 975 q 434 956 410 975 q 458 900 458 937 z "},"Ž":{"ha":926,"x_min":62,"x_max":736,"o":"m 62 61 l 551 829 l 455 826 l 85 826 l 85 944 l 736 944 l 736 883 l 245 117 l 349 119 l 736 119 l 736 0 l 62 0 l 62 61 m 253 1209 l 253 1339 l 473 1194 l 692 1339 l 692 1209 l 473 1053 l 253 1209 z "},"ž":{"ha":695,"x_min":60,"x_max":656,"o":"m 60 79 l 467 591 l 85 591 l 85 700 l 641 700 l 641 621 l 228 109 l 656 109 l 656 0 l 60 0 l 60 79 m 153 985 l 153 1115 l 372 970 l 592 1115 l 592 985 l 372 829 l 153 985 z "},"ƒ":{"ha":693,"x_min":23,"x_max":669,"o":"m 23 -106 q 90 -115 47 -115 q 157 -106 132 -115 q 197 -83 182 -98 q 232 8 222 -56 l 320 577 l 203 577 l 203 682 l 336 682 q 346 739 341 710 q 359 795 350 768 q 385 845 369 822 q 429 885 401 868 q 600 922 490 922 q 669 916 646 922 l 669 809 q 603 817 645 817 q 535 809 560 817 q 495 785 511 800 q 458 682 471 760 l 588 682 l 588 577 l 442 577 l 347 -33 q 315 -131 338 -98 q 264 -181 292 -163 q 92 -219 205 -219 q 23 -214 47 -219 l 23 -106 z "},"Ǽ":{"ha":1267,"x_min":14,"x_max":1190,"o":"m 626 944 l 1190 944 l 1190 826 l 806 826 l 806 548 l 1075 548 l 1075 434 l 806 434 l 806 119 l 1190 119 l 1190 0 l 671 0 l 671 237 l 317 237 l 165 0 l 14 0 l 626 944 m 671 346 l 671 790 l 387 346 l 671 346 m 873 1286 l 1032 1286 l 837 1038 l 716 1038 l 873 1286 z "},"ǽ":{"ha":1155,"x_min":62,"x_max":1093,"o":"m 861 -10 q 578 125 662 -10 q 468 24 534 58 q 302 -10 402 -10 q 148 39 218 -10 q 62 219 62 100 q 181 396 62 338 q 442 446 281 446 l 521 446 l 521 475 q 478 568 521 533 q 345 603 436 603 q 163 586 233 603 q 127 578 144 581 l 127 686 q 361 711 228 711 q 605 616 545 711 q 770 705 671 684 q 846 711 800 711 q 943 689 893 711 q 1025 627 992 667 q 1093 399 1093 545 l 1093 346 l 648 346 q 756 121 648 173 q 889 101 798 101 q 1055 122 981 101 l 1055 7 q 861 -10 981 -10 m 957 446 q 880 595 957 559 q 819 607 854 607 q 697 557 748 607 q 648 446 648 510 l 957 446 m 584 591 l 585 592 q 584 591 584 592 m 280 325 q 257 315 280 325 q 216 281 234 305 q 198 220 198 256 q 210 160 198 184 q 241 122 222 136 q 319 94 277 94 q 397 105 361 94 q 464 138 433 115 q 532 289 532 191 l 532 345 l 442 345 q 280 325 326 345 m 687 1099 l 846 1099 l 650 850 l 530 850 l 687 1099 z "},"Ș":{"ha":810,"x_min":100,"x_max":737,"o":"m 643 66 q 618 49 643 66 q 519 13 594 32 q 335 -7 444 -7 q 115 6 226 -7 l 115 138 q 315 115 214 115 q 465 126 415 115 q 546 156 515 138 q 602 244 602 190 q 581 309 602 286 q 481 375 546 345 l 307 454 q 180 532 218 496 q 100 711 100 610 q 191 880 100 816 q 475 951 291 951 q 692 941 593 951 l 692 812 q 506 831 608 831 q 356 820 403 831 q 283 793 310 810 q 235 715 235 764 q 266 636 235 667 q 365 575 293 610 l 543 490 q 668 411 632 448 q 720 336 703 374 q 737 246 737 298 q 714 147 737 193 q 643 66 691 100 m 461 -70 l 461 -147 q 416 -306 461 -263 q 265 -346 375 -346 l 265 -256 q 320 -238 305 -256 q 346 -147 346 -208 l 346 -70 l 461 -70 z "},"ș":{"ha":694,"x_min":105,"x_max":607,"o":"m 277 -11 q 105 1 192 -11 l 105 121 q 284 100 193 100 q 466 177 466 100 q 452 220 466 206 q 385 265 431 243 l 286 311 q 161 388 190 359 q 108 517 108 442 q 186 654 108 601 q 422 711 270 711 q 576 700 498 711 l 576 584 q 428 600 491 600 q 329 591 364 600 q 277 571 294 583 q 249 522 249 552 q 268 473 249 492 q 329 433 288 454 l 429 385 q 554 307 526 334 q 607 177 607 255 q 523 43 607 94 q 277 -11 435 -11 m 404 -70 l 404 -147 q 359 -306 404 -263 q 208 -346 317 -346 l 208 -256 q 262 -238 248 -256 q 288 -147 288 -208 l 288 -70 l 404 -70 z "},"ȷ":{"ha":347,"x_min":-40,"x_max":241,"o":"m 106 700 l 241 700 l 241 -15 q 126 -260 241 -199 q 9 -283 81 -283 q -15 -282 -3 -283 q -40 -279 -15 -282 l -40 -175 q 1 -180 -22 -180 q 45 -172 24 -180 q 79 -145 66 -164 q 106 -14 106 -107 l 106 700 z "},"ˆ":{"ha":692,"x_min":126,"x_max":566,"o":"m 126 959 l 346 1115 l 566 959 l 566 829 l 346 974 l 126 829 l 126 959 z "},"ˇ":{"ha":692,"x_min":126,"x_max":566,"o":"m 126 985 l 126 1115 l 346 970 l 566 1115 l 566 985 l 346 829 l 126 985 z "},"˘":{"ha":808,"x_min":119,"x_max":573,"o":"m 346 814 q 186 879 252 814 q 119 1036 119 944 l 227 1036 q 262 946 227 981 q 346 911 296 911 q 430 946 395 911 q 465 1036 465 981 l 573 1036 q 506 879 573 944 q 346 814 440 814 z "},"˙":{"ha":347,"x_min":92,"x_max":259,"o":"m 259 900 q 259 881 259 900 q 235 843 259 863 q 174 823 210 823 q 115 843 138 823 q 92 900 92 863 q 115 956 92 937 q 174 975 138 975 q 235 956 210 975 q 259 900 259 937 z "},"˚":{"ha":577,"x_min":100,"x_max":475,"o":"m 288 828 q 214 842 248 828 q 155 881 180 857 q 100 1010 100 933 q 155 1139 100 1086 q 288 1192 210 1192 q 420 1139 366 1192 q 475 1010 475 1085 q 420 881 475 934 q 288 828 365 828 m 288 910 q 354 939 327 910 q 382 999 382 968 q 374 1048 382 1029 q 354 1080 367 1066 q 288 1109 328 1109 q 221 1080 249 1109 q 194 1020 194 1051 q 201 970 194 988 q 221 939 208 952 q 288 910 249 910 z "},"˛":{"ha":461,"x_min":96,"x_max":379,"o":"m 372 -331 q 282 -346 334 -346 q 194 -331 230 -346 q 136 -293 158 -316 q 96 -183 96 -250 q 184 -19 96 -96 q 269 38 218 10 l 353 23 l 379 7 q 211 -164 211 -75 q 259 -237 211 -220 q 309 -243 276 -243 q 372 -231 341 -243 l 372 -331 z "},"˜":{"ha":692,"x_min":64,"x_max":628,"o":"m 64 857 q 111 983 64 933 q 224 1034 157 1034 q 338 987 278 1034 l 395 944 q 464 911 436 911 q 508 930 492 911 q 525 984 525 948 l 628 984 q 581 857 628 907 q 468 807 535 807 q 326 872 406 807 l 297 895 q 228 929 256 929 q 183 911 200 929 q 167 857 167 892 l 64 857 z "},"˝":{"ha":808,"x_min":155,"x_max":754,"o":"m 601 1099 l 754 1099 l 559 850 l 444 850 l 601 1099 m 312 1099 l 465 1099 l 270 850 l 155 850 l 312 1099 z "},"Δ":{"ha":1042,"x_min":133,"x_max":909,"o":"m 133 68 l 480 944 l 562 944 l 909 68 l 909 0 l 133 0 l 133 68 m 767 110 l 540 691 l 521 751 l 502 691 l 274 110 l 767 110 z "},"Ω":{"ha":1157,"x_min":117,"x_max":1040,"o":"m 117 115 l 311 115 q 153 380 191 226 q 140 492 140 433 q 274 827 140 703 q 578 945 399 945 q 883 827 758 945 q 1017 492 1017 703 q 845 115 1017 274 l 1040 115 l 1040 0 l 656 0 l 656 62 q 875 381 837 214 q 888 499 888 436 q 867 624 888 563 q 807 731 846 686 q 578 831 721 831 q 350 731 436 831 q 269 493 269 638 q 393 168 269 315 q 500 62 437 115 l 500 0 l 117 0 l 117 115 z "},"π":{"ha":926,"x_min":31,"x_max":831,"o":"m 831 0 q 782 -4 790 -4 q 608 81 656 -4 q 572 264 572 144 l 572 586 l 245 586 l 245 1 l 126 1 l 126 586 l 31 586 l 31 700 l 831 700 l 831 586 l 692 586 l 692 265 q 749 107 692 131 q 790 99 768 99 q 831 104 812 99 l 831 0 z "},"Ḃ":{"ha":810,"x_min":115,"x_max":740,"o":"m 115 944 l 353 944 q 655 809 587 944 q 680 708 680 758 q 670 628 680 658 q 642 574 659 599 q 553 496 608 528 l 553 493 q 703 391 655 464 q 740 267 740 335 q 713 150 740 199 q 639 67 686 100 q 380 0 542 0 l 115 0 l 115 944 m 379 532 q 526 618 488 532 q 539 687 539 649 q 530 752 539 724 q 499 799 520 779 q 364 841 454 841 l 251 841 l 251 532 l 379 532 m 599 264 q 401 429 599 429 l 251 429 l 251 103 l 380 103 q 581 193 529 103 q 599 264 599 224 m 430 1133 q 430 1115 430 1133 q 406 1076 430 1096 q 345 1057 381 1057 q 286 1076 309 1057 q 262 1133 262 1096 q 286 1190 262 1171 q 345 1208 309 1208 q 406 1190 381 1208 q 430 1133 430 1171 z "},"ḃ":{"ha":808,"x_min":114,"x_max":726,"o":"m 595 78 q 566 55 595 78 q 463 11 536 33 q 304 -10 389 -10 q 114 0 219 -10 l 114 1009 l 250 1009 l 250 630 q 374 703 294 681 q 435 711 404 711 q 499 704 467 711 q 564 682 532 698 q 625 641 596 667 q 677 576 654 615 q 726 380 726 494 q 690 195 726 267 q 595 78 654 124 m 250 100 q 325 94 269 94 q 429 110 380 94 q 513 159 478 125 q 585 367 585 229 q 487 588 585 536 q 415 606 452 606 q 351 597 378 606 q 304 574 324 587 q 250 517 265 547 l 250 100 m 562 900 q 562 881 562 900 q 537 843 562 863 q 477 823 513 823 q 417 843 441 823 q 394 900 394 863 q 417 956 394 937 q 477 975 441 975 q 537 956 513 975 q 562 900 562 937 z "},"Ḋ":{"ha":926,"x_min":104,"x_max":848,"o":"m 104 943 l 334 943 q 701 829 566 943 q 848 471 848 706 q 705 113 848 235 q 340 0 572 0 l 104 0 l 104 943 m 709 470 q 325 834 709 834 l 240 834 l 240 109 l 332 109 q 689 320 625 109 q 709 470 709 387 m 517 1133 q 517 1115 517 1133 q 493 1076 517 1096 q 433 1057 469 1057 q 373 1076 397 1057 q 350 1133 350 1096 q 373 1190 350 1171 q 433 1208 397 1208 q 493 1190 469 1208 q 517 1133 517 1171 z "},"ḋ":{"ha":810,"x_min":80,"x_max":692,"o":"m 211 623 q 241 646 211 623 q 343 690 270 669 q 472 711 417 711 q 557 708 527 711 l 557 1009 l 692 1009 l 692 0 l 570 0 l 565 81 q 439 -1 524 26 q 373 -11 407 -11 q 307 -4 340 -11 q 242 19 275 3 q 181 61 210 35 q 129 125 152 87 q 80 322 80 208 q 116 507 80 436 q 211 623 153 578 m 293 543 q 276 526 293 543 q 240 459 258 510 q 221 335 221 408 q 239 215 221 262 q 283 141 256 168 q 395 94 330 94 q 536 156 480 94 q 556 184 550 172 l 556 601 l 543 602 q 468 606 511 606 q 376 591 425 606 q 293 543 328 576 m 410 900 q 410 881 410 900 q 385 843 410 863 q 325 823 361 823 q 266 843 289 823 q 242 900 242 863 q 266 956 242 937 q 325 975 289 975 q 385 956 361 975 q 410 900 410 937 z "},"Ḟ":{"ha":810,"x_min":104,"x_max":747,"o":"m 104 944 l 747 944 l 747 826 l 240 826 l 240 548 l 631 548 l 631 434 l 240 434 l 240 0 l 104 0 l 104 944 m 509 1133 q 509 1115 509 1133 q 485 1076 509 1096 q 425 1057 460 1057 q 365 1076 389 1057 q 342 1133 342 1096 q 365 1190 342 1171 q 425 1208 389 1208 q 485 1190 460 1208 q 509 1133 509 1171 z "},"ḟ":{"ha":464,"x_min":38,"x_max":460,"o":"m 460 907 q 393 916 436 916 q 324 907 349 916 q 283 884 298 899 q 258 793 258 856 l 258 700 l 433 700 l 433 596 l 258 596 l 258 0 l 122 0 l 122 596 l 38 596 l 38 660 l 122 700 l 122 774 q 135 882 122 846 q 165 941 147 918 q 212 983 182 965 q 389 1020 275 1020 q 460 1015 437 1020 l 460 907 m 298 1165 q 298 1146 298 1165 q 274 1108 298 1128 q 214 1088 250 1088 q 154 1108 178 1088 q 131 1165 131 1128 q 154 1221 131 1202 q 214 1240 178 1240 q 274 1221 250 1240 q 298 1165 298 1202 z "},"Ṁ":{"ha":1042,"x_min":98,"x_max":943,"o":"m 98 944 l 185 944 l 522 557 l 857 944 l 943 944 l 943 0 l 808 0 l 808 719 l 768 665 l 522 378 l 275 664 l 234 718 l 234 0 l 98 0 l 98 944 m 605 1133 q 605 1115 605 1133 q 581 1076 605 1096 q 520 1057 556 1057 q 461 1076 484 1057 q 437 1133 437 1096 q 461 1190 437 1171 q 520 1208 484 1208 q 581 1190 556 1208 q 605 1133 605 1171 z "},"ṁ":{"ha":1274,"x_min":109,"x_max":1161,"o":"m 243 526 l 244 0 l 109 0 l 109 700 l 233 700 l 243 623 q 416 705 317 686 q 479 711 448 711 q 670 604 606 711 q 917 711 788 711 q 1103 634 1044 711 q 1161 376 1161 556 l 1161 0 l 1025 0 l 1025 372 q 941 583 1025 548 q 874 594 912 594 q 707 529 783 594 l 707 0 l 572 0 l 572 377 q 536 547 572 498 q 412 594 501 594 q 243 526 323 594 m 778 900 q 778 881 778 900 q 753 843 778 863 q 693 823 729 823 q 634 843 657 823 q 610 900 610 863 q 634 956 610 937 q 693 975 657 975 q 753 956 729 975 q 778 900 778 937 z "},"Ṗ":{"ha":810,"x_min":115,"x_max":756,"o":"m 115 944 l 383 944 q 728 785 651 944 q 756 647 756 727 q 728 510 756 567 q 651 416 699 453 q 401 346 557 346 l 251 346 l 251 0 l 115 0 l 115 944 m 374 454 q 556 502 497 454 q 615 650 615 549 q 491 822 615 783 q 386 836 448 836 l 251 836 l 251 454 l 374 454 m 465 1133 q 465 1115 465 1133 q 441 1076 465 1096 q 380 1057 416 1057 q 321 1076 345 1057 q 298 1133 298 1096 q 321 1190 298 1171 q 380 1208 345 1208 q 441 1190 416 1208 q 465 1133 465 1171 z "},"ṗ":{"ha":811,"x_min":115,"x_max":726,"o":"m 251 -271 l 115 -271 l 115 700 l 237 700 l 243 620 q 368 701 283 674 q 434 711 400 711 q 500 704 467 711 q 564 681 532 696 q 625 638 596 665 q 677 574 654 612 q 726 367 726 490 q 595 79 726 178 q 315 -10 480 -10 l 281 -10 q 251 -9 264 -10 l 251 -271 m 251 100 q 326 95 270 95 q 430 111 381 95 q 513 159 479 126 q 585 367 585 228 q 522 560 585 498 q 410 606 476 606 q 271 545 326 606 q 251 517 257 529 l 251 100 m 547 900 q 547 881 547 900 q 523 843 547 863 q 463 823 498 823 q 403 843 427 823 q 380 900 380 863 q 403 956 380 937 q 463 975 427 975 q 523 956 498 975 q 547 900 547 937 z "},"Ṡ":{"ha":810,"x_min":100,"x_max":737,"o":"m 643 66 q 618 49 643 66 q 519 13 594 32 q 335 -7 444 -7 q 115 6 226 -7 l 115 138 q 315 115 214 115 q 465 126 415 115 q 546 156 515 138 q 602 244 602 190 q 581 309 602 286 q 481 375 546 345 l 307 454 q 180 532 218 496 q 100 711 100 610 q 191 880 100 816 q 475 951 291 951 q 692 941 593 951 l 692 812 q 506 831 608 831 q 356 820 403 831 q 283 793 310 810 q 235 715 235 764 q 266 636 235 667 q 365 575 293 610 l 543 490 q 668 411 632 448 q 720 336 703 374 q 737 246 737 298 q 714 147 737 193 q 643 66 691 100 m 523 1133 q 523 1115 523 1133 q 498 1076 523 1096 q 438 1057 474 1057 q 379 1076 402 1057 q 355 1133 355 1096 q 379 1190 355 1171 q 438 1208 402 1208 q 498 1190 474 1208 q 523 1133 523 1171 z "},"ṡ":{"ha":694,"x_min":105,"x_max":607,"o":"m 277 -11 q 105 1 192 -11 l 105 121 q 284 100 193 100 q 466 177 466 100 q 452 220 466 206 q 385 265 431 243 l 286 311 q 161 388 190 359 q 108 517 108 442 q 186 654 108 601 q 422 711 270 711 q 576 700 498 711 l 576 584 q 428 600 491 600 q 329 591 364 600 q 277 571 294 583 q 249 522 249 552 q 268 473 249 492 q 329 433 288 454 l 429 385 q 554 307 526 334 q 607 177 607 255 q 523 43 607 94 q 277 -11 435 -11 m 444 900 q 444 881 444 900 q 420 843 444 863 q 359 823 395 823 q 300 843 323 823 q 277 900 277 863 q 300 956 277 937 q 359 975 323 975 q 420 956 395 975 q 444 900 444 937 z "},"Ṫ":{"ha":810,"x_min":52,"x_max":755,"o":"m 336 825 l 52 825 l 52 944 l 755 944 l 755 825 l 471 825 l 471 0 l 336 0 l 336 825 m 488 1133 q 488 1115 488 1133 q 463 1076 488 1096 q 403 1057 439 1057 q 343 1076 367 1057 q 320 1133 320 1096 q 343 1190 320 1171 q 403 1208 367 1208 q 463 1190 439 1208 q 488 1133 488 1171 z "},"ṫ":{"ha":578,"x_min":51,"x_max":504,"o":"m 357 107 q 425 99 379 99 q 500 110 470 99 l 500 1 q 459 -3 486 -2 l 416 -4 q 395 -4 402 -4 q 201 81 264 -4 q 151 264 151 151 l 151 596 l 51 596 l 51 660 l 151 700 l 184 873 l 287 873 l 287 700 l 504 700 l 504 596 l 287 596 l 287 265 q 357 107 287 132 m 326 1048 q 326 1030 326 1048 q 302 991 326 1011 q 241 972 277 972 q 182 991 205 972 q 159 1048 159 1011 q 182 1105 159 1086 q 241 1124 205 1124 q 302 1105 277 1124 q 326 1048 326 1086 z "},"Ẁ":{"ha":1273,"x_min":1,"x_max":1271,"o":"m 1 944 l 142 944 l 325 278 l 351 161 l 381 278 l 572 944 l 703 944 l 892 278 l 922 156 l 951 278 l 1135 944 l 1271 944 l 985 0 l 854 0 l 656 665 l 633 749 l 612 665 l 415 0 l 285 0 l 1 944 m 412 1286 l 571 1286 l 728 1038 l 608 1038 l 412 1286 z "},"ẁ":{"ha":1158,"x_min":11,"x_max":1147,"o":"m 11 700 l 155 700 l 335 144 l 517 700 l 658 700 l 842 146 l 1013 700 l 1147 700 l 911 0 l 772 0 l 583 530 l 405 0 l 265 0 l 11 700 m 364 1084 l 523 1084 l 680 836 l 559 836 l 364 1084 z "},"Ẃ":{"ha":1273,"x_min":1,"x_max":1271,"o":"m 1 944 l 142 944 l 325 278 l 351 161 l 381 278 l 572 944 l 703 944 l 892 278 l 922 156 l 951 278 l 1135 944 l 1271 944 l 985 0 l 854 0 l 656 665 l 633 749 l 612 665 l 415 0 l 285 0 l 1 944 m 703 1286 l 861 1286 l 666 1038 l 545 1038 l 703 1286 z "},"ẃ":{"ha":1158,"x_min":11,"x_max":1147,"o":"m 11 700 l 155 700 l 335 144 l 517 700 l 658 700 l 842 146 l 1013 700 l 1147 700 l 911 0 l 772 0 l 583 530 l 405 0 l 265 0 l 11 700 m 684 1084 l 842 1084 l 647 836 l 526 836 l 684 1084 z "},"Ẅ":{"ha":1273,"x_min":1,"x_max":1271,"o":"m 1 944 l 142 944 l 325 278 l 351 161 l 381 278 l 572 944 l 703 944 l 892 278 l 922 156 l 951 278 l 1135 944 l 1271 944 l 985 0 l 854 0 l 656 665 l 633 749 l 612 665 l 415 0 l 285 0 l 1 944 m 872 1133 q 872 1115 872 1133 q 848 1076 872 1096 q 787 1057 823 1057 q 728 1076 751 1057 q 705 1133 705 1096 q 728 1190 705 1171 q 787 1208 751 1208 q 848 1190 823 1208 q 872 1133 872 1171 m 557 1133 q 557 1115 557 1133 q 532 1076 557 1096 q 472 1057 508 1057 q 413 1076 436 1057 q 389 1133 389 1096 q 413 1190 389 1171 q 472 1208 436 1208 q 532 1190 508 1208 q 557 1133 557 1171 z "},"ẅ":{"ha":1158,"x_min":11,"x_max":1147,"o":"m 11 700 l 155 700 l 335 144 l 517 700 l 658 700 l 842 146 l 1013 700 l 1147 700 l 911 0 l 772 0 l 583 530 l 405 0 l 265 0 l 11 700 m 831 885 q 831 866 831 885 q 806 828 831 848 q 746 808 782 808 q 687 828 710 808 q 663 885 663 848 q 687 941 663 922 q 746 960 710 960 q 806 941 782 960 q 831 885 831 922 m 515 885 q 515 866 515 885 q 491 828 515 848 q 431 808 467 808 q 371 828 395 808 q 348 885 348 848 q 371 941 348 922 q 431 960 395 960 q 491 941 467 960 q 515 885 515 922 z "},"Ỳ":{"ha":814,"x_min":0,"x_max":814,"o":"m 337 411 l 0 944 l 146 944 l 410 522 l 667 944 l 814 944 l 478 412 l 478 0 l 337 0 l 337 411 m 183 1286 l 342 1286 l 499 1038 l 378 1038 l 183 1286 z "},"ỳ":{"ha":695,"x_min":35,"x_max":705,"o":"m 76 -174 q 126 -179 94 -179 q 191 -166 157 -179 q 248 -132 224 -154 q 322 -16 289 -95 l 35 700 l 179 700 l 381 142 l 562 700 l 705 700 l 418 -86 q 328 -221 385 -174 q 125 -282 252 -282 q 101 -281 113 -282 l 76 -278 l 76 -174 m 159 1099 l 318 1099 l 475 850 l 355 850 l 159 1099 z "},"–":{"ha":810,"x_min":115,"x_max":692,"o":"m 115 455 l 692 455 l 692 352 l 115 352 l 115 455 z "},"—":{"ha":1275,"x_min":115,"x_max":1153,"o":"m 115 455 l 1153 455 l 1153 352 l 115 352 l 115 455 z "},"‘":{"ha":347,"x_min":74,"x_max":311,"o":"m 74 774 q 125 968 74 906 q 311 1038 182 1038 l 311 929 q 210 841 225 929 q 205 774 205 812 l 205 692 l 74 692 l 74 774 z "},"’":{"ha":347,"x_min":74,"x_max":311,"o":"m 311 955 q 260 761 311 823 q 74 692 203 692 l 74 800 q 174 888 159 800 q 180 955 180 917 l 180 1038 l 311 1038 l 311 955 z "},"‚":{"ha":347,"x_min":10,"x_max":247,"o":"m 247 32 q 196 -162 247 -100 q 10 -231 139 -231 l 10 -123 q 111 -35 96 -123 q 116 32 116 -6 l 116 115 l 247 115 l 247 32 z "},"“":{"ha":694,"x_min":115,"x_max":633,"o":"m 115 774 q 166 968 115 906 q 352 1038 223 1038 l 352 929 q 252 841 267 929 q 246 774 246 812 l 246 692 l 115 692 l 115 774 m 397 774 q 448 968 397 906 q 633 1038 505 1038 l 633 929 q 533 841 548 929 q 528 774 528 812 l 528 692 l 397 692 l 397 774 z "},"”":{"ha":694,"x_min":58,"x_max":576,"o":"m 576 955 q 526 761 576 823 q 340 692 469 692 l 340 800 q 440 888 425 800 q 446 955 446 917 l 446 1038 l 576 1038 l 576 955 m 295 955 q 244 761 295 823 q 58 692 187 692 l 58 800 q 159 888 144 800 q 164 955 164 917 l 164 1038 l 295 1038 l 295 955 z "},"„":{"ha":694,"x_min":58,"x_max":576,"o":"m 295 33 q 244 -161 295 -99 q 58 -231 187 -231 l 58 -122 q 159 -34 144 -122 q 164 33 164 -5 l 164 115 l 295 115 l 295 33 m 576 33 q 526 -161 576 -99 q 340 -231 469 -231 l 340 -122 q 440 -34 425 -122 q 446 33 446 -5 l 446 115 l 576 115 l 576 33 z "},"†":{"ha":579,"x_min":35,"x_max":545,"o":"m 238 593 l 35 576 l 35 690 l 238 674 l 238 922 l 341 922 l 341 674 l 545 690 l 545 576 l 341 593 l 341 0 l 238 0 l 238 593 z "},"‡":{"ha":579,"x_min":35,"x_max":545,"o":"m 35 345 l 238 328 l 238 593 l 35 576 l 35 690 l 238 674 l 238 922 l 341 922 l 341 674 l 545 690 l 545 576 l 341 593 l 341 328 l 545 345 l 545 231 l 341 247 l 341 0 l 238 0 l 238 247 l 35 231 l 35 345 z "},"•":{"ha":578,"x_min":81,"x_max":496,"o":"m 288 232 q 142 293 203 232 q 81 439 81 354 q 142 586 81 524 q 288 647 202 647 q 435 586 375 647 q 496 439 496 524 q 435 293 496 355 q 288 232 374 232 z "},"…":{"ha":1040,"x_min":79,"x_max":962,"o":"m 867 -17 q 847 -17 867 -17 q 799 5 826 -17 q 772 69 772 27 q 799 133 772 111 q 867 155 826 155 q 935 133 908 155 q 962 69 962 111 q 935 5 962 27 q 867 -17 908 -17 m 520 -17 q 500 -17 520 -17 q 453 5 479 -17 q 426 69 426 27 q 453 133 426 111 q 520 155 479 155 q 589 133 562 155 q 616 69 616 111 q 589 5 616 27 q 520 -17 562 -17 m 174 -17 q 153 -17 174 -17 q 106 5 133 -17 q 79 69 79 27 q 106 133 79 111 q 174 155 133 155 q 242 133 215 155 q 269 69 269 111 q 242 5 269 27 q 174 -17 215 -17 z "},"‰":{"ha":1622,"x_min":79,"x_max":1552,"o":"m 292 461 q 205 476 245 461 q 138 521 166 492 q 79 691 79 583 q 138 860 79 797 q 292 922 196 922 q 444 860 387 922 q 503 691 503 798 q 444 521 503 583 q 292 461 388 461 m 187 690 q 187 656 187 690 q 215 585 187 623 q 292 548 243 548 q 367 585 340 548 q 394 690 394 623 q 367 796 394 758 q 292 835 340 835 q 215 796 243 835 q 187 690 187 758 m 1128 230 q 1143 327 1128 284 q 1187 399 1159 370 q 1341 461 1245 461 q 1493 399 1436 461 q 1552 231 1552 337 q 1493 61 1552 123 q 1341 1 1437 1 q 1187 61 1244 1 q 1128 230 1128 123 m 637 230 q 652 327 637 284 q 696 399 668 370 q 850 461 754 461 q 1002 399 945 461 q 1061 231 1061 337 q 1002 61 1061 123 q 850 1 946 1 q 696 61 753 1 q 637 230 637 123 m 1341 374 q 1316 374 1341 374 q 1264 336 1292 374 q 1236 230 1236 297 q 1264 125 1236 162 q 1341 87 1292 87 q 1416 125 1390 87 q 1443 230 1443 162 q 1416 336 1443 297 q 1341 374 1390 374 m 850 374 q 825 374 850 374 q 773 336 801 374 q 745 230 745 297 q 773 125 745 162 q 850 87 801 87 q 925 125 899 87 q 952 230 952 162 q 925 336 952 297 q 850 374 899 374 m 783 922 l 897 922 l 363 0 l 250 0 l 783 922 z "},"‹":{"ha":694,"x_min":115,"x_max":530,"o":"m 115 402 l 530 675 l 530 542 l 239 361 l 530 176 l 530 43 l 115 322 l 115 402 z "},"›":{"ha":694,"x_min":162,"x_max":576,"o":"m 576 402 l 162 675 l 162 542 l 453 361 l 162 176 l 162 43 l 576 322 l 576 402 z "},"⁄":{"ha":694,"x_min":24,"x_max":671,"o":"m 557 922 l 671 922 l 137 0 l 24 0 l 557 922 z "},"€":{"ha":810,"x_min":0,"x_max":774,"o":"m 774 9 q 611 -5 712 -5 q 441 9 511 -5 q 314 55 372 24 q 145 241 194 119 l 0 241 l 44 346 l 119 346 q 115 408 115 378 q 117 461 115 437 l 0 461 l 44 565 l 138 565 q 304 768 183 696 q 571 836 419 836 q 747 825 684 836 l 747 696 q 571 717 682 717 q 275 565 349 717 l 674 565 l 629 461 l 245 461 q 243 405 243 438 q 248 346 243 372 l 576 346 l 532 241 l 290 241 q 589 115 374 115 q 717 126 671 115 q 774 142 764 137 l 774 9 z "},"™":{"ha":1273,"x_min":98,"x_max":1174,"o":"m 632 923 l 703 923 l 903 672 l 1103 923 l 1174 923 l 1174 346 l 1057 346 l 1057 708 l 1016 654 l 903 525 l 790 654 l 749 708 l 749 346 l 632 346 l 632 923 m 267 819 l 98 819 l 98 922 l 551 922 l 551 819 l 382 819 l 382 346 l 267 346 l 267 819 z "},"∂":{"ha":810,"x_min":74,"x_max":742,"o":"m 168 909 q 331 922 248 922 q 483 899 414 922 q 598 837 551 876 q 673 750 645 799 q 718 650 702 701 q 742 469 742 566 q 685 159 742 271 q 571 34 644 79 q 417 -11 498 -11 q 276 11 336 -11 q 171 73 216 32 q 74 311 74 162 q 170 545 74 458 q 391 627 258 627 q 625 507 557 627 l 628 507 q 559 709 628 627 q 319 807 477 807 q 229 798 279 807 q 168 785 178 788 l 168 909 m 210 311 q 222 231 210 270 q 258 161 234 192 q 408 94 313 94 q 564 168 511 94 q 606 311 606 228 q 553 460 606 404 q 401 517 498 517 q 256 456 309 517 q 210 311 210 400 z "},"∏":{"ha":1157,"x_min":138,"x_max":1019,"o":"m 233 830 l 138 830 l 138 944 l 1019 944 l 1019 830 l 924 830 l 924 -231 l 804 -231 l 804 830 l 352 830 l 352 -231 l 233 -231 l 233 830 z "},"∑":{"ha":811,"x_min":58,"x_max":749,"o":"m 410 346 l 58 845 l 58 922 l 749 922 l 749 817 l 214 817 l 549 346 l 214 -125 l 749 -125 l 749 -231 l 58 -231 l 58 -153 l 410 346 z "},"−":{"ha":810,"x_min":86,"x_max":726,"o":"m 86 456 l 726 456 l 726 352 l 86 352 l 86 456 z "},"√":{"ha":923,"x_min":68,"x_max":937,"o":"m 68 576 l 301 576 l 505 18 l 812 1016 l 937 1016 l 564 -138 l 449 -138 l 220 463 l 68 463 l 68 576 z "},"∞":{"ha":1393,"x_min":119,"x_max":1273,"o":"m 556 242 q 538 228 556 242 q 478 196 520 214 q 385 178 437 178 q 291 193 332 178 q 219 234 249 209 q 170 291 189 259 q 140 355 151 323 q 119 451 119 412 q 124 522 119 491 q 139 585 128 553 q 170 647 151 616 q 218 701 189 677 q 389 753 285 753 q 624 630 505 753 q 682 568 656 597 l 682 569 l 701 548 l 774 629 q 1004 753 888 753 q 1253 585 1196 753 q 1273 486 1273 527 q 1269 415 1273 445 q 1253 354 1264 386 q 1223 290 1242 321 q 1174 234 1204 259 q 1004 178 1107 178 q 762 305 884 178 q 706 368 731 338 l 693 382 q 686 374 690 378 q 668 353 682 370 q 623 303 654 336 q 556 242 593 271 m 798 440 q 1004 296 924 296 q 1135 404 1104 296 q 1144 457 1144 437 q 1142 494 1144 477 q 1135 530 1140 511 q 1120 567 1129 549 q 1095 601 1110 586 q 1004 635 1059 635 q 839 541 938 635 q 794 494 813 517 l 772 469 l 798 440 m 298 332 q 306 324 298 332 q 336 306 314 316 q 387 296 358 296 q 444 310 415 296 q 502 346 473 324 q 601 439 547 380 q 611 450 606 444 q 620 461 615 456 l 591 494 q 389 635 468 635 q 258 532 288 635 q 248 477 248 498 q 250 439 248 456 q 258 404 252 423 q 273 366 263 385 q 298 332 283 347 z "},"∫":{"ha":578,"x_min":54,"x_max":520,"o":"m 54 -240 q 116 -248 81 -248 q 171 -240 150 -248 q 205 -216 193 -232 q 227 -125 227 -189 l 227 771 q 236 881 227 848 q 260 938 245 914 q 300 979 275 962 q 456 1017 354 1017 q 520 1011 496 1017 l 520 904 q 457 912 491 912 q 401 904 422 912 q 368 880 380 896 q 345 789 345 853 l 345 -107 q 336 -217 345 -184 q 312 -274 327 -250 q 273 -315 298 -298 q 116 -353 218 -353 q 54 -347 75 -353 l 54 -240 z "},"≈":{"ha":810,"x_min":79,"x_max":732,"o":"m 79 494 q 123 636 79 583 q 245 692 170 692 q 327 677 291 692 q 386 650 362 662 l 475 602 q 560 574 528 574 q 610 594 591 574 q 629 653 629 614 l 732 653 q 635 480 732 535 q 565 456 604 463 q 484 470 519 456 q 426 496 449 484 l 338 545 q 253 574 286 574 q 182 494 182 574 l 79 494 m 79 230 q 123 372 79 318 q 245 427 170 427 q 327 412 291 427 q 386 385 362 397 l 475 338 q 560 309 528 309 q 610 329 591 309 q 629 389 629 349 l 732 389 q 635 216 732 271 q 565 191 604 199 q 484 205 519 191 q 426 232 449 220 l 338 280 q 253 309 286 309 q 182 230 182 309 l 79 230 z "},"≠":{"ha":810,"x_min":85,"x_max":724,"o":"m 244 235 l 85 235 l 85 339 l 304 339 l 380 469 l 85 469 l 85 574 l 440 574 l 576 807 l 686 807 l 550 574 l 724 574 l 724 469 l 490 469 l 414 339 l 724 339 l 724 235 l 354 235 l 218 0 l 109 0 l 244 235 z "},"≤":{"ha":807,"x_min":47,"x_max":728,"o":"m 48 554 l 728 847 l 728 723 l 224 519 l 728 315 l 728 191 l 48 484 l 48 554 m 47 105 l 728 105 l 728 1 l 47 1 l 47 105 z "},"≥":{"ha":807,"x_min":79,"x_max":760,"o":"m 759 554 l 79 847 l 79 723 l 583 519 l 79 315 l 79 191 l 759 484 l 759 554 m 760 105 l 79 105 l 79 1 l 760 1 l 760 105 z "},"◊":{"ha":811,"x_min":60,"x_max":751,"o":"m 60 461 l 365 922 l 446 922 l 751 462 l 446 0 l 365 0 l 60 461 m 609 462 l 406 777 l 202 461 l 406 146 l 609 462 z "},"ﬀ":{"ha":926,"x_min":38,"x_max":892,"o":"m 892 905 q 826 913 868 913 q 758 905 783 913 q 718 881 732 897 q 692 790 692 853 l 692 700 l 861 700 l 861 596 l 692 596 l 692 0 l 556 0 l 556 596 l 258 596 l 258 0 l 122 0 l 122 596 l 38 596 l 38 660 l 121 701 l 122 772 q 213 980 122 926 q 389 1017 275 1017 q 458 1012 435 1017 l 458 905 q 392 913 434 913 q 324 905 349 913 q 283 881 298 897 q 258 790 258 853 l 258 700 l 556 701 l 556 772 q 569 879 556 843 q 599 939 581 915 q 646 980 616 962 q 823 1017 709 1017 q 892 1012 869 1017 l 892 905 z "},"ﬁ":{"ha":810,"x_min":31,"x_max":713,"o":"m 452 905 q 385 913 427 913 q 317 905 342 913 q 277 881 292 897 q 251 790 251 853 l 251 700 l 692 700 l 692 0 l 556 0 l 556 596 l 251 596 l 251 0 l 115 0 l 115 596 l 31 596 l 31 660 l 115 701 l 115 772 q 206 980 115 926 q 382 1017 269 1017 q 452 1012 428 1017 l 452 905 m 713 904 q 713 884 713 904 q 688 844 713 865 q 625 823 663 823 q 562 844 587 823 q 537 904 537 865 q 562 963 537 943 q 625 983 587 983 q 688 963 663 983 q 713 904 713 943 z "},"ﬂ":{"ha":924,"x_min":31,"x_max":858,"o":"m 576 899 q 445 913 499 913 q 355 905 391 913 q 297 879 320 897 q 251 752 251 842 l 251 700 l 420 700 l 420 596 l 251 596 l 251 0 l 115 0 l 115 596 l 31 596 l 31 660 l 115 701 l 115 750 q 173 935 115 871 q 439 1017 250 1017 q 680 996 559 1017 l 711 990 l 711 989 l 712 989 l 712 265 q 773 107 712 131 q 817 99 793 99 q 858 104 840 99 l 858 0 l 833 -3 q 809 -4 821 -4 q 621 81 679 -4 q 576 264 576 149 l 576 899 z "}}}
